{
  "accessors": [
    {
      "bufferView": 2,
      "componentType": 5126,
      "count": 1736,
      "max": [
        1.6136897802352905,
        1.8303381204605103,
        2.4708352088928223
      ],
      "min": [
        -3.1229615211486816,
        -1.8765965700149536,
        -0.04102683067321777
      ],
      "type": "VEC3"
    },
    {
      "bufferView": 2,
      "byteOffset": 20832,
      "componentType": 5126,
      "count": 1736,
      "max": [
        1.0,
        1.0,
        1.0
      ],
      "min": [
        -1.0,
        -1.0,
        -1.0
      ],
      "type": "VEC3"
    },
    {
      "bufferView": 3,
      "componentType": 5126,
      "count": 1736,
      "max": [
        1.0,
        1.0,
        1.0,
        1.0
      ],
      "min": [
        -1.0,
        -1.0,
        -1.0,
        -1.0
      ],
      "type": "VEC4"
    },
    {
      "bufferView": 1,
      "componentType": 5126,
      "count": 1736,
      "max": [
        0.9966681599617004,
        0.9756782054901123
      ],
      "min": [
        0.00039057774120010436,
        0.0003905777120962739
      ],
      "type": "VEC2"
    },
    {
      "bufferView": 1,
      "byteOffset": 13888,
      "componentType": 5126,
      "count": 1736,
      "max": [
        0.9966681599617004,
        0.9756782054901123
      ],
      "min": [
        0.00039057774120010436,
        0.0003905777120962739
      ],
      "type": "VEC2"
    },
    {
      "bufferView": 1,
      "byteOffset": 27776,
      "componentType": 5126,
      "count": 1736,
      "max": [
        0.9966681599617004,
        0.9756782054901123
      ],
      "min": [
        0.00039057774120010436,
        0.0003905777120962739
      ],
      "type": "VEC2"
    },
    {
      "bufferView": 1,
      "byteOffset": 41664,
      "componentType": 5126,
      "count": 1736,
      "max": [
        0.9966681599617004,
        0.9756782054901123
      ],
      "min": [
        0.00039057774120010436,
        0.0003905777120962739
      ],
      "type": "VEC2"
    },
    {
      "bufferView": 0,
      "componentType": 5125,
      "count": 5688,
      "type": "SCALAR"
    },
    {
      "bufferView": 2,
      "byteOffset": 41664,
      "componentType": 5126,
      "count": 82,
      "max": [
        1.3217214345932007,
        -1.0618016719818115,
        1.2874830961227417
      ],
      "min": [
        -3.1139001846313477,
        -1.8765965700149536,
        0.03552374616265297
      ],
      "type": "VEC3"
    },
    {
      "bufferView": 2,
      "byteOffset": 42648,
      "componentType": 5126,
      "count": 82,
      "max": [
        0.995498776435852,
        0.9747276902198792,
        1.0
      ],
      "min": [
        -0.995498776435852,
        -0.9905082583427429,
        -0.4063890278339386
      ],
      "type": "VEC3"
    },
    {
      "bufferView": 1,
      "byteOffset": 55552,
      "componentType": 5126,
      "count": 82,
      "max": [
        0.9132096767425537,
        0.9649438261985779
      ],
      "min": [
        0.025631899014115334,
        0.1961391121149063
      ],
      "type": "VEC2"
    },
    {
      "bufferView": 0,
      "byteOffset": 22752,
      "componentType": 5125,
      "count": 174,
      "type": "SCALAR"
    },
    {
      "bufferView": 2,
      "byteOffset": 43632,
      "componentType": 5126,
      "count": 29,
      "max": [
        1.542345404624939,
        -0.2668479084968567,
        2.3994908332824707
      ],
      "min": [
        -1.542345404624939,
        -0.2668479382991791,
        0.7026357650756836
      ],
      "type": "VEC3"
    },
    {
      "bufferView": 2,
      "byteOffset": 43980,
      "componentType": 5126,
      "count": 29,
      "max": [
        1.9322738964433483e-08,
        -1.0,
        6.515750072821902e-08
      ],
      "min": [
        -1.9322735411719805e-08,
        -1.0,
        -4.1281872142917564e-08
      ],
      "type": "VEC3"
    },
    {
      "bufferView": 1,
      "byteOffset": 56208,
      "componentType": 5126,
      "count": 29,
      "max": [
        1.0,
        1.0
      ],
      "min": [
        0.0,
        0.0
      ],
      "type": "VEC2"
    },
    {
      "bufferView": 1,
      "byteOffset": 56440,
      "componentType": 5126,
      "count": 29,
      "max": [
        1.0,
        1.0
      ],
      "min": [
        0.0,
        0.0
      ],
      "type": "VEC2"
    },
    {
      "bufferView": 0,
      "byteOffset": 23448,
      "componentType": 5125,
      "count": 84,
      "type": "SCALAR"
    },
    {
      "bufferView": 2,
      "byteOffset": 44328,
      "componentType": 5126,
      "count": 2369,
      "max": [
        1.6067179441452026,
        1.5592892169952393,
        1.3718602657318115
      ],
      "min": [
        -3.056373357772827,
        -2.0734946727752686,
        -0.04053231328725815
      ],
      "type": "VEC3"
    },
    {
      "bufferView": 2,
      "byteOffset": 72756,
      "componentType": 5126,
      "count": 2369,
      "max": [
        0.995498776435852,
        0.9995853304862976,
        1.0
      ],
      "min": [
        -0.9979960918426514,
        -0.9995853304862976,
        -1.0
      ],
      "type": "VEC3"
    },
    {
      "bufferView": 3,
      "byteOffset": 27776,
      "componentType": 5126,
      "count": 2369,
      "max": [
        1.0,
        0.9965311884880066,
        0.9957364797592163,
        1.0
      ],
      "min": [
        -1.0,
        -0.9999833703041077,
        -0.9957333207130432,
        -1.0
      ],
      "type": "VEC4"
    },
    {
      "bufferView": 1,
      "byteOffset": 56672,
      "componentType": 5126,
      "count": 2369,
      "max": [
        1.0706998109817505,
        0.9649438261985779
      ],
      "min": [
        0.018176715821027756,
        0.007689120247960091
      ],
      "type": "VEC2"
    },
    {
      "bufferView": 1,
      "byteOffset": 75624,
      "componentType": 5126,
      "count": 2369,
      "max": [
        1.0706998109817505,
        0.9649438261985779
      ],
      "min": [
        0.018176715821027756,
        0.007689120247960091
      ],
      "type": "VEC2"
    },
    {
      "bufferView": 1,
      "byteOffset": 94576,
      "componentType": 5126,
      "count": 2369,
      "max": [
        1.0706998109817505,
        0.9649438261985779
      ],
      "min": [
        0.018176715821027756,
        0.007689120247960091
      ],
      "type": "VEC2"
    },
    {
      "bufferView": 1,
      "byteOffset": 113528,
      "componentType": 5126,
      "count": 2369,
      "max": [
        1.0706998109817505,
        0.9649438261985779
      ],
      "min": [
        0.018176715821027756,
        0.007689120247960091
      ],
      "type": "VEC2"
    },
    {
      "bufferView": 0,
      "byteOffset": 23784,
      "componentType": 5125,
      "count": 3924,
      "type": "SCALAR"
    }
  ],
  "asset": {
    "extras": {
      "author": "alessiaspedicati (https://sketchfab.com/alessiaspedicati)",
      "license": "CC-BY-4.0 (http://creativecommons.org/licenses/by/4.0/)",
      "source": "https://sketchfab.com/3d-models/personal-computer-180683837959415689bfe2dc5f01be8f",
      "title": "Personal_computer"
    },
    "generator": "Sketchfab-16.74.0",
    "version": "2.0"
  },
  "bufferViews": [
    {
      "buffer": 0,
      "byteLength": 39480,
      "name": "floatBufferViews",
      "target": 34963
    },
    {
      "buffer": 0,
      "byteLength": 132480,
      "byteOffset": 39480,
      "byteStride": 8,
      "name": "floatBufferViews",
      "target": 34962
    },
    {
      "buffer": 0,
      "byteLength": 101184,
      "byteOffset": 171960,
      "byteStride": 12,
      "name": "floatBufferViews",
      "target": 34962
    },
    {
      "buffer": 0,
      "byteLength": 65680,
      "byteOffset": 273144,
      "byteStride": 16,
      "name": "floatBufferViews",
      "target": 34962
    }
  ],
  "buffers": [
    {
      "byteLength": 338824,
      "uri": "scene.bin"
    }
  ],
  "extensionsUsed": [
    "KHR_materials_specular",
    "KHR_materials_emissive_strength",
    "KHR_texture_transform"
  ],
  "images": [
    {
      "uri": "textures/material_baseColor.png"
    },
    {
      "uri": "textures/material_metallicRoughness.png"
    },
    {
      "uri": "textures/material_normal.png"
    },
    {
      "uri": "textures/Screen_baseColor.png"
    },
    {
      "uri": "textures/Keyboard_baseColor.png"
    },
    {
      "uri": "textures/Keyboard_metallicRoughness.png"
    },
    {
      "uri": "textures/Keyboard_normal.png"
    }
  ],
  "materials": [
    {
      "doubleSided": true,
      "extensions": {
        "KHR_materials_specular": {
          "specularColorFactor": [
            1.0,
            1.0,
            1.0
          ],
          "specularFactor": 0.0771484
        }
      },
      "name": "material",
      "normalTexture": {
        "index": 2
      },
      "pbrMetallicRoughness": {
        "baseColorFactor": [
          0.8335263497945898,
          0.8335263497945898,
          0.8335263497945898,
          1.0
        ],
        "baseColorTexture": {
          "index": 0
        },
        "metallicRoughnessTexture": {
          "index": 1
        },
        "roughnessFactor": 0.394668
      }
    },
    {
      "doubleSided": true,
      "emissiveFactor": [
        0.155523,
        1.0,
        0.0482593
      ],
      "extensions": {
        "KHR_materials_emissive_strength": {
          "emissiveStrength": 2.75318
        }
      },
      "name": "LightMat",
      "pbrMetallicRoughness": {
        "baseColorFactor": [
          0.0517663,
          1.0,
          0.256419,
          1.0
        ],
        "metallicFactor": 0.0,
        "roughnessFactor": 0.804041
      }
    },
    {
      "doubleSided": true,
      "emissiveFactor": [
        1.0,
        1.0,
        1.0
      ],
      "emissiveTexture": {
        "index": 4
      },
      "extensions": {
        "KHR_materials_emissive_strength": {
          "emissiveStrength": 5.22668
        },
        "KHR_materials_specular": {
          "specularColorFactor": [
            1.0,
            1.0,
            1.0
          ],
          "specularFactor": 0.0
        }
      },
      "name": "Screen",
      "pbrMetallicRoughness": {
        "baseColorTexture": {
          "extensions": {
            "KHR_texture_transform": {
              "scale": [
                1.00021,
                1
              ]
            }
          },
          "index": 3
        },
        "metallicFactor": 0.108191,
        "roughnessFactor": 0.821336
      }
    },
    {
      "doubleSided": true,
      "name": "Keyboard",
      "normalTexture": {
        "index": 7
      },
      "pbrMetallicRoughness": {
        "baseColorTexture": {
          "index": 5
        },
        "metallicFactor": 0.516573,
        "metallicRoughnessTexture": {
          "index": 6
        },
        "roughnessFactor": 0.67505
      }
    }
  ],
  "meshes": [
    {
      "name": "Object_0",
      "primitives": [
        {
          "attributes": {
            "NORMAL": 1,
            "POSITION": 0,
            "TANGENT": 2,
            "TEXCOORD_0": 3,
            "TEXCOORD_1": 4,
            "TEXCOORD_2": 5,
            "TEXCOORD_3": 6
          },
          "indices": 7,
          "material": 0,
          "mode": 4
        }
      ]
    },
    {
      "name": "Object_1",
      "primitives": [
        {
          "attributes": {
            "NORMAL": 9,
            "POSITION": 8,
            "TEXCOORD_0": 10
          },
          "indices": 11,
          "material": 1,
          "mode": 4
        }
      ]
    },
    {
      "name": "Object_2",
      "primitives": [
        {
          "attributes": {
            "NORMAL": 13,
            "POSITION": 12,
            "TEXCOORD_0": 14,
            "TEXCOORD_1": 15
          },
          "indices": 16,
          "material": 2,
          "mode": 4
        }
      ]
    },
    {
      "name": "Object_3",
      "primitives": [
        {
          "attributes": {
            "NORMAL": 18,
            "POSITION": 17,
            "TANGENT": 19,
            "TEXCOORD_0": 20,
            "TEXCOORD_1": 21,
            "TEXCOORD_2": 22,
            "TEXCOORD_3": 23
          },
          "indices": 24,
          "material": 3,
          "mode": 4
        }
      ]
    }
  ],
  "nodes": [
    {
      "children": [
        1
      ],
      "matrix": [
        0.9423275600949879,
        -0.0019276463696338009,
        -4.280234765805084e-19,
        0.0,
        3.099891689609526e-19,
        3.607770184032667e-16,
        -0.9423295259475708,
        0.0,
        0.0019276463696338009,
        0.9423275600949879,
        3.607768936869924e-16,
        0.0,
        0.0,
        0.0,
        0.0,
        1.0
      ],
      "name": "Sketchfab_model"
    },
    {
      "children": [
        2
      ],
      "name": "root"
    },
    {
      "children": [
        3
      ],
      "matrix": [
        1.0,
        0.0,
        0.0,
        0.0,
        0.0,
        2.220446049250313e-16,
        1.0,
        0.0,
        0.0,
        -1.0,
        2.220446049250313e-16,
        0.0,
        0.0,
        0.0,
        0.0,
        1.0
      ],
      "name": "GLTF_SceneRootNode"
    },
    {
      "children": [
        4
      ],
      "matrix": [
        0.002877258462831378,
        0.0,
        0.0,
        0.0,
        0.0,
        6.388797186465962e-19,
        -0.002877258462831378,
        0.0,
        0.0,
        0.002877258462831378,
        6.388797186465962e-19,
        0.0,
        0.0,
        0.0,
        0.0,
        1.0
      ],
      "name": "Sketchfab_model_0"
    },
    {
      "children": [
        5
      ],
      "matrix": [
        1.0,
        0.0,
        0.0,
        0.0,
        0.0,
        0.0,
        1.0,
        0.0,
        0.0,
        -1.0,
        0.0,
        0.0,
        0.0,
        0.0,
        0.0,
        1.0
      ],
      "name": "eda352ebf8e8448da670d2ad9af8449d.fbx_1"
    },
    {
      "children": [
        6
      ],
      "name": "RootNode_2"
    },
    {
      "children": [
        7,
        9,
        11,
        13
      ],
      "matrix": [
        100.0,
        0.0,
        0.0,
        0.0,
        0.0,
        -1.6292067812173627e-05,
        -100.0,
        0.0,
        0.0,
        100.0,
        -1.6292067812173627e-05,
        0.0,
        0.0,
        0.0,
        0.0,
        1.0
      ],
      "name": "Cube_3"
    },
    {
      "children": [
        8
      ],
      "name": "Cube_PC_0_4"
    },
    {
      "mesh": 0,
      "name": "Object_8"
    },
    {
      "children": [
        10
      ],
      "name": "Cube_LightMat_0_5"
    },
    {
      "mesh": 1,
      "name": "Object_10"
    },
    {
      "children": [
        12
      ],
      "name": "Cube_Screen_0_6"
    },
    {
      "mesh": 2,
      "name": "Object_12"
    },
    {
      "children": [
        14
      ],
      "name": "Cube_Keyboard_0_7"
    },
    {
      "mesh": 3,
      "name": "Object_14"
    }
  ],
  "samplers": [
    {
      "magFilter": 9729,
      "minFilter": 9987,
      "wrapS": 10497,
      "wrapT": 10497
    },
    {
      "magFilter": 9728,
      "minFilter": 9728,
      "wrapS": 10497,
      "wrapT": 10497
    },
    {
      "magFilter": 9728,
      "minFilter": 9986,
      "wrapS": 10497,
      "wrapT": 10497
    }
  ],
  "scene": 0,
  "scenes": [
    {
      "name": "Sketchfab_Scene",
      "nodes": [
        0
      ]
    }
  ],
  "textures": [
    {
      "sampler": 0,
      "source": 0
    },
    {
      "sampler": 0,
      "source": 1
    },
    {
      "sampler": 0,
      "source": 2
    },
    {
      "sampler": 1,
      "source": 3
    },
    {
      "sampler": 2,
      "source": 3
    },
    {
      "sampler": 1,
      "source": 4
    },
    {
      "sampler": 0,
      "source": 5
    },
    {
      "sampler": 0,
      "source": 6
    }
  ]
}
