# Blender 4.5.3 LTS
# www.blender.org
mtllib speaker.mtl
o speaker
v -0.006800 0.010000 -0.020000
v -0.006800 0.010000 0.020000
v -0.021200 0.010000 -0.020000
v -0.021200 0.010000 0.020000
v 0.030000 0.010000 0.050000
v -0.030000 0.010000 0.050000
v 0.030000 0.010000 -0.050000
v -0.030000 0.010000 -0.050000
v -0.016800 0.120600 0.005000
v -0.031200 0.050000 0.020000
v -0.016800 0.120600 -0.005000
v -0.031200 0.050000 -0.020000
v -0.016800 0.139400 0.005000
v -0.031200 0.150000 0.020000
v -0.016800 0.139400 -0.005000
v -0.031200 0.150000 -0.020000
v -0.016800 0.050000 -0.020000
v -0.016800 0.050000 0.020000
v -0.016800 0.150000 -0.020000
v -0.016800 0.150000 0.020000
v -0.004800 0.120600 -0.005000
v -0.004800 0.120600 0.005000
v -0.004800 0.139400 -0.005000
v -0.004800 0.139400 0.005000
v -0.004800 0.036000 -0.030000
v -0.004800 0.036000 0.030000
v -0.004800 0.324000 -0.030000
v -0.004800 0.324000 0.030000
v 0.005929 0.039370 -0.027815
v 0.005929 0.039370 0.027815
v 0.005929 0.320630 -0.027815
v 0.005929 0.320630 0.027815
v 0.030000 0.000000 -0.050000
v -0.030000 0.000000 0.050000
v 0.030000 0.000000 0.050000
v -0.030000 0.000000 -0.050000
v 0.030000 0.010000 0.000000
v -0.030000 0.010000 0.000000
v -0.006800 0.010000 0.000000
v -0.021200 0.010000 0.000000
v -0.016800 0.050000 0.000000
v -0.031200 0.050000 0.000000
v -0.016800 0.150000 0.000000
v -0.031200 0.150000 0.000000
v -0.016800 0.120600 0.000000
v -0.016800 0.139400 0.000000
v -0.004800 0.120600 0.000000
v -0.004800 0.139400 0.000000
v -0.004800 0.036000 0.000000
v -0.004800 0.324000 0.000000
v 0.030000 0.000000 0.000000
v -0.030000 0.000000 0.000000
v 0.008053 0.039370 -0.021454
v 0.008053 0.039370 0.021454
v 0.000484 0.036000 0.000000
v 0.010674 0.039370 -0.007853
v 0.010674 0.039370 0.007853
v 0.008053 0.320630 0.021454
v 0.008053 0.320630 -0.021454
v 0.000484 0.324000 0.000000
v 0.010674 0.320630 0.007853
v 0.010674 0.320630 -0.007853
v 0.005200 0.324000 -0.030000
v 0.005200 0.036000 -0.030000
v 0.005200 0.324000 0.030000
v 0.005200 0.036000 0.030000
v 0.008053 0.036000 -0.021454
v 0.010674 0.036000 -0.007853
v 0.010674 0.036000 0.007853
v 0.008053 0.036000 0.021454
v 0.008053 0.324000 0.021454
v 0.010674 0.324000 0.007853
v 0.010674 0.324000 -0.007853
v 0.008053 0.324000 -0.021454
v 0.006053 0.039370 -0.021454
v 0.006053 0.320630 -0.021454
v 0.008674 0.320630 -0.007853
v 0.008674 0.039370 -0.007853
v 0.008674 0.320630 0.007853
v 0.008674 0.039370 0.007853
v 0.006053 0.320630 0.021454
v 0.006053 0.039370 0.021454
v 0.003929 0.320630 -0.027815
v 0.003929 0.039370 -0.027815
v 0.003929 0.320630 0.027815
v 0.003929 0.039370 0.027815
vn -0.9701 -0.2425 -0.0000
vn -0.9925 -0.1222 -0.0000
vn -0.0000 -0.0000 1.0000
vn -1.0000 -0.0000 -0.0000
vn 1.0000 -0.0000 -0.0000
vn -0.0000 -0.0000 -1.0000
vn -0.0000 1.0000 -0.0000
vn 0.9701 0.2425 -0.0000
vn 0.9925 0.1222 -0.0000
vn -0.0000 -1.0000 -0.0000
vn 0.9485 -0.0000 -0.3166
vn 0.9485 -0.0000 0.3166
vn 0.9673 -0.0000 -0.2535
vn 0.9955 -0.0000 -0.0951
vn 0.9955 -0.0000 0.0951
vn 0.9673 -0.0000 0.2535
vt 0.771150 0.409029
vt 0.713351 0.409029
vt 0.713351 0.292354
vt 0.771150 0.292354
vt 0.654258 0.949973
vt 0.625358 0.949973
vt 0.625358 0.776578
vt 0.654258 0.776578
vt 0.706152 0.740479
vt 0.677277 0.740479
vt 0.677277 0.595983
vt 0.706152 0.595983
vt 0.561651 0.740480
vt 0.532757 0.740480
vt 0.532757 0.595983
vt 0.561651 0.595983
vt 0.618160 0.949973
vt 0.589260 0.949973
vt 0.589260 0.776578
vt 0.618160 0.776578
vt 0.599803 0.090297
vt 0.558188 0.090297
vt 0.532757 0.003599
vt 0.706152 0.003599
vt 0.599803 0.148096
vt 0.706152 0.148096
vt 0.558188 0.148096
vt 0.558188 0.205894
vt 0.532757 0.292592
vt 0.532757 0.148096
vt 0.599803 0.205894
vt 0.706152 0.292592
vt 0.949853 0.710607
vt 0.908344 0.707642
vt 0.928934 0.419384
vt 0.970443 0.422349
vt 0.949853 0.409220
vt 0.908344 0.412185
vt 0.928934 0.294823
vt 0.970443 0.291858
vt 0.970443 0.827970
vt 0.928934 0.825005
vt 0.771150 0.821280
vt 0.713351 0.821280
vt 0.713351 0.705172
vt 0.771150 0.705172
vt 0.525558 0.881533
vt 0.483943 0.881533
vt 0.483943 0.823735
vt 0.525558 0.823735
vt 0.399468 0.823735
vt 0.399468 0.878066
vt 0.364789 0.878066
vt 0.364789 0.823735
vt 0.713351 0.003599
vt 0.771150 0.003599
vt 0.908344 0.006564
vt 0.949853 0.003599
vt 0.771150 0.501177
vt 0.785600 0.501177
vt 0.828949 0.705172
vt 0.771150 0.446856
vt 0.756700 0.446856
vt 0.713351 0.416228
vt 0.771150 0.416228
vt 0.756700 0.501177
vt 0.785600 0.446856
vt 0.828949 0.416228
vt 0.270892 0.536641
vt 0.256442 0.536641
vt 0.184194 0.003599
vt 0.270892 0.003599
vt 0.772621 0.863158
vt 0.758171 0.863158
vt 0.758171 0.828479
vt 0.772621 0.828479
vt 0.794269 0.882810
vt 0.794269 0.828479
vt 0.828948 0.828479
vt 0.828948 0.882810
vt 0.736523 0.828479
vt 0.750972 0.828479
vt 0.750972 0.863158
vt 0.736523 0.863158
vt 0.836147 0.835899
vt 0.836147 0.003599
vt 0.865047 0.003599
vt 0.865047 0.835899
vt 0.285342 0.590927
vt 0.285342 0.536641
vt 0.357590 0.003599
vt 0.357590 0.835213
vt 0.270892 0.590927
vt 0.270892 0.835213
vt 0.256442 0.590927
vt 0.184194 0.835213
vt 0.901145 0.003599
vt 0.901145 0.835899
vt 0.872246 0.835899
vt 0.872246 0.003599
vt 0.706152 0.444288
vt 0.532757 0.444288
vt 0.532757 0.299791
vt 0.706152 0.299791
vt 0.706152 0.588784
vt 0.532757 0.588784
vt 0.722073 0.828479
vt 0.722073 0.863158
vt 0.787070 0.863158
vt 0.787070 0.828479
vt 0.828949 0.292354
vt 0.828949 0.003599
vt 0.525558 0.939332
vt 0.483943 0.939332
vt 0.828949 0.821280
vt 0.561651 0.884976
vt 0.532757 0.884976
vt 0.706152 0.884976
vt 0.677277 0.884976
vt 0.828949 0.409029
vt 0.576426 0.744680
vt 0.568850 0.705374
vt 0.598298 0.682681
vt 0.568850 0.659988
vt 0.576426 0.620682
vt 0.662503 0.620682
vt 0.670078 0.659988
vt 0.640630 0.682681
vt 0.670078 0.705374
vt 0.662503 0.744680
vt 0.469169 0.842120
vt 0.476744 0.881426
vt 0.470964 0.881426
vt 0.463389 0.842120
vt 0.438135 0.966119
vt 0.430560 0.926813
vt 0.436340 0.926813
vt 0.443915 0.966119
vt 0.977642 0.816421
vt 0.977642 0.003599
vt 0.983422 0.003599
vt 0.983422 0.816421
vt 0.469169 0.966119
vt 0.463031 0.984504
vt 0.457251 0.984504
vt 0.463389 0.966119
vt 0.613570 0.595983
vt 0.613570 0.682681
vt 0.584671 0.595983
vt 0.476744 0.926813
vt 0.470964 0.926813
vt 0.613570 0.769379
vt 0.584671 0.769379
vt 0.625358 0.769379
vt 0.625358 0.682681
vt 0.654258 0.769379
vt 0.625358 0.595983
vt 0.654258 0.595983
vt 0.009913 0.013376
vt 0.009913 0.826060
vt 0.003599 0.835759
vt 0.003599 0.003599
vt 0.170682 0.826060
vt 0.170682 0.013376
vt 0.176995 0.003599
vt 0.176995 0.835759
vt 0.028298 0.826173
vt 0.067604 0.826312
vt 0.067604 0.836049
vt 0.028298 0.835910
vt 0.112991 0.826312
vt 0.112991 0.836049
vt 0.152297 0.826173
vt 0.152297 0.835910
vt 0.152297 0.013488
vt 0.112991 0.013627
vt 0.112991 0.003890
vt 0.152297 0.003751
vt 0.067604 0.013627
vt 0.067604 0.003890
vt 0.028298 0.013488
vt 0.028298 0.003751
vt 0.383174 0.816397
vt 0.383174 0.003712
vt 0.422480 0.003851
vt 0.422480 0.816536
vt 0.467867 0.003851
vt 0.467867 0.816536
vt 0.507173 0.003712
vt 0.507173 0.816397
vt 0.525558 0.816284
vt 0.525558 0.003599
vt 0.364789 0.816284
vt 0.364789 0.003599
vt 0.444273 0.984504
vt 0.450052 0.984504
vt 0.996401 0.003599
vt 0.996401 0.816421
vt 0.990621 0.816421
vt 0.990621 0.003599
vt 0.463031 0.823735
vt 0.457251 0.823735
vt 0.430560 0.881426
vt 0.438135 0.842120
vt 0.443915 0.842120
vt 0.436340 0.881426
vt 0.444273 0.823735
vt 0.450052 0.823735
s 1
usemtl speaker
f 40/1/1 4/2/1 10/3/2 42/4/2
f 35/5/3 5/6/3 6/7/3 34/8/3
f 52/9/4 38/10/4 8/11/4 36/12/4
f 51/13/5 37/14/5 5/15/5 35/16/5
f 36/17/6 8/18/6 7/19/6 33/20/6
f 2/21/7 4/22/7 6/23/7 5/24/7
f 39/25/7 2/21/7 5/24/7 37/26/7
f 40/27/7 3/28/7 8/29/7 38/30/7
f 3/28/7 1/31/7 7/32/7 8/29/7
f 17/33/6 12/34/6 16/35/6 19/36/6
f 4/37/3 2/38/3 18/39/3 10/40/3
f 1/41/6 3/42/6 12/34/6 17/33/6
f 39/43/8 1/44/8 17/45/9 41/46/9
f 43/47/7 44/48/7 14/49/7 20/50/7
f 13/51/3 9/52/3 22/53/3 24/54/3
f 42/4/2 10/3/2 14/55/4 44/56/4
f 10/40/3 18/39/3 20/57/3 14/58/3
f 45/59/5 9/60/5 18/61/9 41/46/9
f 46/62/5 15/63/5 19/64/5 43/65/5
f 15/63/5 11/66/5 17/45/9 19/64/5
f 9/60/5 13/67/5 20/68/5 18/61/9
f 48/69/4 24/70/4 28/71/4 50/72/4
f 46/73/7 13/74/7 24/75/7 48/76/7
f 11/77/6 15/78/6 23/79/6 21/80/6
f 45/81/10 11/82/10 21/83/10 47/84/10
f 25/85/6 27/86/6 63/87/6 64/88/6
f 21/89/4 23/90/4 27/91/4 25/92/4
f 47/93/4 21/89/4 25/92/4 49/94/4
f 24/70/4 22/95/4 26/96/4 28/71/4
f 28/97/3 26/98/3 66/99/3 65/100/3
f 52/101/10 51/102/10 35/103/10 34/104/10
f 36/105/10 33/106/10 51/102/10 52/101/10
f 22/95/4 47/93/4 49/94/4 26/96/4
f 9/107/10 45/81/10 47/84/10 22/108/10
f 15/109/7 46/73/7 48/76/7 23/110/7
f 23/90/4 48/69/4 50/72/4 27/91/4
f 13/67/5 46/62/5 43/65/5 20/68/5
f 11/66/5 45/59/5 41/46/9 17/45/9
f 12/111/2 42/4/2 44/56/4 16/112/4
f 19/113/7 16/114/7 44/48/7 43/47/7
f 2/115/8 39/43/8 41/46/9 18/61/9
f 4/22/7 40/27/7 38/30/7 6/23/7
f 1/31/7 39/25/7 37/26/7 7/32/7
f 33/116/5 7/117/5 37/14/5 51/13/5
f 34/118/4 6/119/4 38/10/4 52/9/4
f 3/120/1 40/1/1 42/4/2 12/111/2
f 67/121/10 68/122/10 55/123/10
f 68/122/10 69/124/10 55/123/10
f 69/124/10 70/125/10 55/123/10
f 71/126/7 72/127/7 60/128/7
f 72/127/7 73/129/7 60/128/7
f 73/129/7 74/130/7 60/128/7
f 54/131/7 57/132/7 80/133/7 82/134/7
f 59/135/10 62/136/10 77/137/10 76/138/10
f 29/139/3 31/140/3 83/141/3 84/142/3
f 53/143/7 29/144/7 84/145/7 75/146/7
f 26/147/10 49/148/10 55/123/10 70/125/10 66/149/10
f 57/132/7 56/150/7 78/151/7 80/133/7
f 49/148/10 25/152/10 64/153/10 67/121/10 55/123/10
f 27/154/7 50/155/7 60/128/7 74/130/7 63/156/7
f 50/155/7 28/157/7 65/158/7 71/126/7 60/128/7
f 31/159/11 29/160/11 64/161/11 63/162/11
f 30/163/12 32/164/12 65/165/12 66/166/12
f 53/167/13 56/168/14 68/169/14 67/170/13
f 56/168/14 57/171/15 69/172/15 68/169/14
f 57/171/15 54/173/16 70/174/16 69/172/15
f 58/175/16 61/176/15 72/177/15 71/178/16
f 61/176/15 62/179/14 73/180/14 72/177/15
f 62/179/14 59/181/13 74/182/13 73/180/14
f 54/173/16 30/163/12 66/166/12 70/174/16
f 32/164/12 58/175/16 71/178/16 65/165/12
f 29/160/11 53/167/13 67/170/13 64/161/11
f 59/181/13 31/159/11 63/162/11 74/182/13
f 75/183/13 76/184/13 77/185/14 78/186/14
f 78/186/14 77/185/14 79/187/15 80/188/15
f 80/188/15 79/187/15 81/189/16 82/190/16
f 86/191/12 82/190/16 81/189/16 85/192/12
f 75/183/13 84/193/11 83/194/11 76/184/13
f 31/195/10 59/135/10 76/138/10 83/196/10
f 32/197/6 30/198/6 86/199/6 85/200/6
f 30/201/7 54/131/7 82/134/7 86/202/7
f 61/203/10 58/204/10 81/205/10 79/206/10
f 56/150/7 53/143/7 75/146/7 78/151/7
f 58/204/10 32/207/10 85/208/10 81/205/10
f 62/136/10 61/203/10 79/206/10 77/137/10
