{
  "accessors": [
    {
      "bufferView": 2,
      "componentType": 5126,
      "count": 8263,
      "max": [
        29.399953842163086,
        89.0,
        164.3000946044922
      ],
      "min": [
        0.1997620016336441,
        -230.1999969482422,
        7.100000858306885
      ],
      "type": "VEC3"
    },
    {
      "bufferView": 2,
      "byteOffset": 99156,
      "componentType": 5126,
      "count": 8263,
      "max": [
        1.0,
        1.0,
        1.0
      ],
      "min": [
        -1.0,
        -1.0,
        -1.0
      ],
      "type": "VEC3"
    },
    {
      "bufferView": 1,
      "componentType": 5126,
      "count": 8263,
      "max": [
        18.0,
        29.686798095703125
      ],
      "min": [
        -17.0,
        -28.686798095703125
      ],
      "type": "VEC2"
    },
    {
      "bufferView": 0,
      "componentType": 5125,
      "count": 20106,
      "type": "SCALAR"
    },
    {
      "bufferView": 2,
      "byteOffset": 198312,
      "componentType": 5126,
      "count": 8404,
      "max": [
        29.399953842163086,
        89.0,
        162.2751007080078
      ],
      "min": [
        0.44986799359321594,
        -176.39999389648438,
        12.850102424621582
      ],
      "type": "VEC3"
    },
    {
      "bufferView": 2,
      "byteOffset": 299160,
      "componentType": 5126,
      "count": 8404,
      "max": [
        1.0,
        1.0,
        1.0
      ],
      "min": [
        -1.0,
        -1.0,
        -1.0
      ],
      "type": "VEC3"
    },
    {
      "bufferView": 1,
      "byteOffset": 66104,
      "componentType": 5126,
      "count": 8404,
      "max": [
        18.0,
        29.686798095703125
      ],
      "min": [
        -17.0,
        -28.686798095703125
      ],
      "type": "VEC2"
    },
    {
      "bufferView": 0,
      "byteOffset": 80424,
      "componentType": 5125,
      "count": 20478,
      "type": "SCALAR"
    },
    {
      "bufferView": 2,
      "byteOffset": 400008,
      "componentType": 5126,
      "count": 10109,
      "max": [
        29.399953842163086,
        -10.550000190734863,
        58.63259506225586
      ],
      "min": [
        0.44986799359321594,
        -120.0,
        12.850102424621582
      ],
      "type": "VEC3"
    },
    {
      "bufferView": 2,
      "byteOffset": 521316,
      "componentType": 5126,
      "count": 10109,
      "max": [
        1.0,
        1.0,
        1.0
      ],
      "min": [
        -1.0,
        -1.0,
        -1.0
      ],
      "type": "VEC3"
    },
    {
      "bufferView": 1,
      "byteOffset": 133336,
      "componentType": 5126,
      "count": 10109,
      "max": [
        18.0,
        29.686798095703125
      ],
      "min": [
        -17.0,
        -28.686798095703125
      ],
      "type": "VEC2"
    },
    {
      "bufferView": 0,
      "byteOffset": 162336,
      "componentType": 5125,
      "count": 24594,
      "type": "SCALAR"
    },
    {
      "bufferView": 2,
      "byteOffset": 642624,
      "componentType": 5126,
      "count": 9605,
      "max": [
        29.399953842163086,
        -10.550000190734863,
        66.10000610351563
      ],
      "min": [
        0.06976400315761566,
        -231.4499969482422,
        7.900000095367432
      ],
      "type": "VEC3"
    },
    {
      "bufferView": 2,
      "byteOffset": 757884,
      "componentType": 5126,
      "count": 9605,
      "max": [
        1.0,
        1.0,
        1.0
      ],
      "min": [
        -1.0,
        -1.0,
        -1.0
      ],
      "type": "VEC3"
    },
    {
      "bufferView": 1,
      "byteOffset": 214208,
      "componentType": 5126,
      "count": 9605,
      "max": [
        18.0,
        29.686798095703125
      ],
      "min": [
        -17.0,
        -28.686798095703125
      ],
      "type": "VEC2"
    },
    {
      "bufferView": 0,
      "byteOffset": 260712,
      "componentType": 5125,
      "count": 23322,
      "type": "SCALAR"
    },
    {
      "bufferView": 2,
      "byteOffset": 873144,
      "componentType": 5126,
      "count": 10137,
      "max": [
        29.399799346923828,
        86.6384506225586,
        66.90010070800781
      ],
      "min": [
        0.06976400315761566,
        -231.1999969482422,
        7.100000858306885
      ],
      "type": "VEC3"
    },
    {
      "bufferView": 2,
      "byteOffset": 994788,
      "componentType": 5126,
      "count": 10137,
      "max": [
        1.0,
        1.0,
        1.0
      ],
      "min": [
        -1.0,
        -1.0,
        -1.0
      ],
      "type": "VEC3"
    },
    {
      "bufferView": 1,
      "byteOffset": 291048,
      "componentType": 5126,
      "count": 10137,
      "max": [
        18.0,
        29.686798095703125
      ],
      "min": [
        -17.0,
        -28.686798095703125
      ],
      "type": "VEC2"
    },
    {
      "bufferView": 0,
      "byteOffset": 354000,
      "componentType": 5125,
      "count": 24636,
      "type": "SCALAR"
    },
    {
      "bufferView": 2,
      "byteOffset": 1116432,
      "componentType": 5126,
      "count": 9497,
      "max": [
        27.176868438720703,
        88.19999694824219,
        185.43260192871094
      ],
      "min": [
        5.399395942687988,
        -117.78844451904297,
        15.067585945129395
      ],
      "type": "VEC3"
    },
    {
      "bufferView": 2,
      "byteOffset": 1230396,
      "componentType": 5126,
      "count": 9497,
      "max": [
        1.0,
        1.0,
        1.0
      ],
      "min": [
        -1.0,
        -1.0,
        -1.0
      ],
      "type": "VEC3"
    },
    {
      "bufferView": 1,
      "byteOffset": 372144,
      "componentType": 5126,
      "count": 9497,
      "max": [
        4.125,
        22.334999084472656
      ],
      "min": [
        -3.125,
        -21.334999084472656
      ],
      "type": "VEC2"
    },
    {
      "bufferView": 0,
      "byteOffset": 452544,
      "componentType": 5125,
      "count": 23694,
      "type": "SCALAR"
    },
    {
      "bufferView": 2,
      "byteOffset": 1344360,
      "componentType": 5126,
      "count": 9801,
      "max": [
        27.999753952026367,
        88.19999694824219,
        191.60009765625
      ],
      "min": [
        2.099303960800171,
        -8.199999809265137,
        15.067585945129395
      ],
      "type": "VEC3"
    },
    {
      "bufferView": 2,
      "byteOffset": 1461972,
      "componentType": 5126,
      "count": 9801,
      "max": [
        1.0,
        1.0,
        1.0
      ],
      "min": [
        -1.0,
        -1.0,
        -1.0
      ],
      "type": "VEC3"
    },
    {
      "bufferView": 1,
      "byteOffset": 448120,
      "componentType": 5126,
      "count": 9801,
      "max": [
        4.125,
        22.334999084472656
      ],
      "min": [
        -3.125,
        -21.334999084472656
      ],
      "type": "VEC2"
    },
    {
      "bufferView": 0,
      "byteOffset": 547320,
      "componentType": 5125,
      "count": 24432,
      "type": "SCALAR"
    },
    {
      "bufferView": 2,
      "byteOffset": 1579584,
      "componentType": 5126,
      "count": 10274,
      "max": [
        29.59969711303711,
        89.30000305175781,
        191.60009765625
      ],
      "min": [
        2.099303960800171,
        -9.300000190734863,
        8.900008201599121
      ],
      "type": "VEC3"
    },
    {
      "bufferView": 2,
      "byteOffset": 1702872,
      "componentType": 5126,
      "count": 10274,
      "max": [
        1.0,
        1.0,
        1.0
      ],
      "min": [
        -1.0,
        -1.0,
        -1.0
      ],
      "type": "VEC3"
    },
    {
      "bufferView": 1,
      "byteOffset": 526528,
      "componentType": 5126,
      "count": 10274,
      "max": [
        18.0,
        29.686798095703125
      ],
      "min": [
        -17.0,
        -28.686798095703125
      ],
      "type": "VEC2"
    },
    {
      "bufferView": 0,
      "byteOffset": 645048,
      "componentType": 5125,
      "count": 24216,
      "type": "SCALAR"
    },
    {
      "bufferView": 2,
      "byteOffset": 1826160,
      "componentType": 5126,
      "count": 8976,
      "max": [
        29.599952697753906,
        89.30000305175781,
        185.19989013671875
      ],
      "min": [
        2.099484920501709,
        -9.300000190734863,
        12.850103378295898
      ],
      "type": "VEC3"
    },
    {
      "bufferView": 2,
      "byteOffset": 1933872,
      "componentType": 5126,
      "count": 8976,
      "max": [
        1.0,
        1.0,
        1.0
      ],
      "min": [
        -1.0,
        -1.0,
        -1.0
      ],
      "type": "VEC3"
    },
    {
      "bufferView": 1,
      "byteOffset": 608720,
      "componentType": 5126,
      "count": 8976,
      "max": [
        18.0,
        29.686798095703125
      ],
      "min": [
        -17.0,
        -28.686798095703125
      ],
      "type": "VEC2"
    },
    {
      "bufferView": 0,
      "byteOffset": 741912,
      "componentType": 5125,
      "count": 21264,
      "type": "SCALAR"
    },
    {
      "bufferView": 2,
      "byteOffset": 2041584,
      "componentType": 5126,
      "count": 11568,
      "max": [
        29.59969711303711,
        88.0999984741211,
        191.60009765625
      ],
      "min": [
        0.06976400315761566,
        -231.1999969482422,
        7.100000858306885
      ],
      "type": "VEC3"
    },
    {
      "bufferView": 2,
      "byteOffset": 2180400,
      "componentType": 5126,
      "count": 11568,
      "max": [
        1.0,
        1.0,
        1.0
      ],
      "min": [
        -1.0,
        -1.0,
        -1.0
      ],
      "type": "VEC3"
    },
    {
      "bufferView": 1,
      "byteOffset": 680528,
      "componentType": 5126,
      "count": 11568,
      "max": [
        20.0,
        29.686798095703125
      ],
      "min": [
        -19.0,
        -28.686798095703125
      ],
      "type": "VEC2"
    },
    {
      "bufferView": 0,
      "byteOffset": 826968,
      "componentType": 5125,
      "count": 35628,
      "type": "SCALAR"
    },
    {
      "bufferView": 2,
      "byteOffset": 2319216,
      "componentType": 5126,
      "count": 550,
      "max": [
        28.0999755859375,
        88.19999694824219,
        191.60009765625
      ],
      "min": [
        0.06976500153541565,
        -231.1999969482422,
        7.100000858306885
      ],
      "type": "VEC3"
    },
    {
      "bufferView": 2,
      "byteOffset": 2325816,
      "componentType": 5126,
      "count": 550,
      "max": [
        1.0,
        1.0,
        1.0
      ],
      "min": [
        -1.0,
        -1.0,
        -1.0
      ],
      "type": "VEC3"
    },
    {
      "bufferView": 1,
      "byteOffset": 773072,
      "componentType": 5126,
      "count": 550,
      "max": [
        1.0,
        1.0
      ],
      "min": [
        0.0,
        0.0
      ],
      "type": "VEC2"
    },
    {
      "bufferView": 0,
      "byteOffset": 969480,
      "componentType": 5125,
      "count": 1038,
      "type": "SCALAR"
    },
    {
      "bufferView": 2,
      "byteOffset": 2332416,
      "componentType": 5126,
      "count": 726,
      "max": [
        32.999786376953125,
        46.5369987487793,
        98.23712158203125
      ],
      "min": [
        29.99964714050293,
        -182.88699340820313,
        60.46311950683594
      ],
      "type": "VEC3"
    },
    {
      "bufferView": 2,
      "byteOffset": 2341128,
      "componentType": 5126,
      "count": 726,
      "max": [
        1.0,
        0.9960350394248962,
        0.9960362315177917
      ],
      "min": [
        -1.0,
        -0.9960362315177917,
        -0.9960362315177917
      ],
      "type": "VEC3"
    },
    {
      "bufferView": 1,
      "byteOffset": 777472,
      "componentType": 5126,
      "count": 726,
      "max": [
        12.869999885559082,
        15.064998626708984
      ],
      "min": [
        -11.869999885559082,
        -14.064998626708984
      ],
      "type": "VEC2"
    },
    {
      "bufferView": 0,
      "byteOffset": 973632,
      "componentType": 5125,
      "count": 2124,
      "type": "SCALAR"
    },
    {
      "bufferView": 2,
      "byteOffset": 2349840,
      "componentType": 5126,
      "count": 9924,
      "max": [
        29.79966926574707,
        -9.999995231628418,
        193.4001007080078
      ],
      "min": [
        0.09929700195789337,
        -231.0,
        7.099999904632568
      ],
      "type": "VEC3"
    },
    {
      "bufferView": 2,
      "byteOffset": 2468928,
      "componentType": 5126,
      "count": 9924,
      "max": [
        1.0,
        1.0,
        1.0
      ],
      "min": [
        -1.0,
        -1.0,
        -1.0
      ],
      "type": "VEC3"
    },
    {
      "bufferView": 1,
      "byteOffset": 783280,
      "componentType": 5126,
      "count": 9924,
      "max": [
        4.05525016784668,
        1.8880000114440918
      ],
      "min": [
        -1.0552500486373901,
        -1.4824999570846558
      ],
      "type": "VEC2"
    },
    {
      "bufferView": 0,
      "byteOffset": 982128,
      "componentType": 5125,
      "count": 22206,
      "type": "SCALAR"
    },
    {
      "bufferView": 2,
      "byteOffset": 2588016,
      "componentType": 5126,
      "count": 2823,
      "max": [
        29.999980926513672,
        90.00000762939453,
        193.50010681152344
      ],
      "min": [
        -0.0007029999978840351,
        -232.0,
        7.0
      ],
      "type": "VEC3"
    },
    {
      "bufferView": 2,
      "byteOffset": 2621892,
      "componentType": 5126,
      "count": 2823,
      "max": [
        1.0,
        1.0,
        1.0
      ],
      "min": [
        -1.0,
        -1.0,
        -1.0
      ],
      "type": "VEC3"
    },
    {
      "bufferView": 1,
      "byteOffset": 862672,
      "componentType": 5126,
      "count": 2823,
      "max": [
        4.072500228881836,
        1.8880000114440918
      ],
      "min": [
        -1.0709999799728394,
        -1.4757499694824219
      ],
      "type": "VEC2"
    },
    {
      "bufferView": 0,
      "byteOffset": 1070952,
      "componentType": 5125,
      "count": 6810,
      "type": "SCALAR"
    },
    {
      "bufferView": 2,
      "byteOffset": 2655768,
      "componentType": 5126,
      "count": 2543,
      "max": [
        29.9997615814209,
        88.19999694824219,
        191.6000213623047
      ],
      "min": [
        -0.00033099998836405575,
        -232.0,
        8.90000057220459
      ],
      "type": "VEC3"
    },
    {
      "bufferView": 2,
      "byteOffset": 2686284,
      "componentType": 5126,
      "count": 2543,
      "max": [
        1.0,
        1.0,
        1.0
      ],
      "min": [
        -1.0,
        -1.0,
        -1.0
      ],
      "type": "VEC3"
    },
    {
      "bufferView": 1,
      "byteOffset": 885256,
      "componentType": 5126,
      "count": 2543,
      "max": [
        20.0,
        26.5
      ],
      "min": [
        -19.0,
        -25.5
      ],
      "type": "VEC2"
    },
    {
      "bufferView": 0,
      "byteOffset": 1098192,
      "componentType": 5125,
      "count": 9900,
      "type": "SCALAR"
    },
    {
      "bufferView": 2,
      "byteOffset": 2716800,
      "componentType": 5126,
      "count": 90,
      "max": [
        29.999980926513672,
        89.69999694824219,
        193.50010681152344
      ],
      "min": [
        29.699296951293945,
        -9.700008392333984,
        7.0001068115234375
      ],
      "type": "VEC3"
    },
    {
      "bufferView": 2,
      "byteOffset": 2717880,
      "componentType": 5126,
      "count": 90,
      "max": [
        1.0,
        1.0,
        1.0
      ],
      "min": [
        -1.0,
        -1.0,
        -1.0
      ],
      "type": "VEC3"
    },
    {
      "bufferView": 1,
      "byteOffset": 905600,
      "componentType": 5126,
      "count": 90,
      "max": [
        1.0,
        1.0
      ],
      "min": [
        0.0,
        0.0
      ],
      "type": "VEC2"
    },
    {
      "bufferView": 0,
      "byteOffset": 1137792,
      "componentType": 5125,
      "count": 168,
      "type": "SCALAR"
    }
  ],
  "asset": {
    "extras": {
      "author": "KRONZI (https://sketchfab.com/crosslag)",
      "license": "CC-BY-4.0 (http://creativecommons.org/licenses/by/4.0/)",
      "source": "https://sketchfab.com/3d-models/alterita148--kniznica-v1-8270cb7b69d74f2d9901422d6781f7d4",
      "title": "Alterita148_ Kniznica_v1"
    },
    "generator": "Sketchfab-15.3.0",
    "version": "2.0"
  },
  "bufferViews": [
    {
      "buffer": 0,
      "byteLength": 1138464,
      "name": "floatBufferViews",
      "target": 34963
    },
    {
      "buffer": 0,
      "byteLength": 906320,
      "byteOffset": 1138464,
      "byteStride": 8,
      "name": "floatBufferViews",
      "target": 34962
    },
    {
      "buffer": 0,
      "byteLength": 2718960,
      "byteOffset": 2044784,
      "byteStride": 12,
      "name": "floatBufferViews",
      "target": 34962
    }
  ],
  "buffers": [
    {
      "byteLength": 4763744,
      "uri": "scene.bin"
    }
  ],
  "images": [
    {
      "uri": "textures/dekor_baseColor.jpeg"
    },
    {
      "uri": "textures/lanizovo_henda_baseColor.jpeg"
    }
  ],
  "materials": [
    {
      "doubleSided": true,
      "name": "biela",
      "pbrMetallicRoughness": {
        "metallicFactor": 0.0,
        "roughnessFactor": 0.6
      }
    },
    {
      "doubleSided": true,
      "name": "cierna_lesk",
      "pbrMetallicRoughness": {
        "baseColorFactor": [
          0.0,
          0.0,
          0.0,
          1.0
        ],
        "metallicFactor": 0.0,
        "roughnessFactor": 0.6
      }
    },
    {
      "doubleSided": true,
      "name": "dekor",
      "pbrMetallicRoughness": {
        "baseColorTexture": {
          "index": 0
        },
        "metallicFactor": 0.0,
        "roughnessFactor": 0.6
      }
    },
    {
      "doubleSided": true,
      "name": "lanizovo_henda",
      "pbrMetallicRoughness": {
        "baseColorTexture": {
          "index": 1
        },
        "metallicFactor": 0.0,
        "roughnessFactor": 0.6
      }
    },
    {
      "doubleSided": true,
      "name": "zrkadlo",
      "pbrMetallicRoughness": {
        "roughnessFactor": 0.0
      }
    }
  ],
  "meshes": [
    {
      "name": "Object_0",
      "primitives": [
        {
          "attributes": {
            "NORMAL": 1,
            "POSITION": 0,
            "TEXCOORD_0": 2
          },
          "indices": 3,
          "material": 0,
          "mode": 4
        }
      ]
    },
    {
      "name": "Object_1",
      "primitives": [
        {
          "attributes": {
            "NORMAL": 5,
            "POSITION": 4,
            "TEXCOORD_0": 6
          },
          "indices": 7,
          "material": 0,
          "mode": 4
        }
      ]
    },
    {
      "name": "Object_2",
      "primitives": [
        {
          "attributes": {
            "NORMAL": 9,
            "POSITION": 8,
            "TEXCOORD_0": 10
          },
          "indices": 11,
          "material": 0,
          "mode": 4
        }
      ]
    },
    {
      "name": "Object_3",
      "primitives": [
        {
          "attributes": {
            "NORMAL": 13,
            "POSITION": 12,
            "TEXCOORD_0": 14
          },
          "indices": 15,
          "material": 0,
          "mode": 4
        }
      ]
    },
    {
      "name": "Object_4",
      "primitives": [
        {
          "attributes": {
            "NORMAL": 17,
            "POSITION": 16,
            "TEXCOORD_0": 18
          },
          "indices": 19,
          "material": 0,
          "mode": 4
        }
      ]
    },
    {
      "name": "Object_5",
      "primitives": [
        {
          "attributes": {
            "NORMAL": 21,
            "POSITION": 20,
            "TEXCOORD_0": 22
          },
          "indices": 23,
          "material": 0,
          "mode": 4
        }
      ]
    },
    {
      "name": "Object_6",
      "primitives": [
        {
          "attributes": {
            "NORMAL": 25,
            "POSITION": 24,
            "TEXCOORD_0": 26
          },
          "indices": 27,
          "material": 0,
          "mode": 4
        }
      ]
    },
    {
      "name": "Object_7",
      "primitives": [
        {
          "attributes": {
            "NORMAL": 29,
            "POSITION": 28,
            "TEXCOORD_0": 30
          },
          "indices": 31,
          "material": 0,
          "mode": 4
        }
      ]
    },
    {
      "name": "Object_8",
      "primitives": [
        {
          "attributes": {
            "NORMAL": 33,
            "POSITION": 32,
            "TEXCOORD_0": 34
          },
          "indices": 35,
          "material": 0,
          "mode": 4
        }
      ]
    },
    {
      "name": "Object_9",
      "primitives": [
        {
          "attributes": {
            "NORMAL": 37,
            "POSITION": 36,
            "TEXCOORD_0": 38
          },
          "indices": 39,
          "material": 0,
          "mode": 4
        }
      ]
    },
    {
      "name": "Object_10",
      "primitives": [
        {
          "attributes": {
            "NORMAL": 41,
            "POSITION": 40,
            "TEXCOORD_0": 42
          },
          "indices": 43,
          "material": 0,
          "mode": 4
        }
      ]
    },
    {
      "name": "Object_11",
      "primitives": [
        {
          "attributes": {
            "NORMAL": 45,
            "POSITION": 44,
            "TEXCOORD_0": 46
          },
          "indices": 47,
          "material": 1,
          "mode": 4
        }
      ]
    },
    {
      "name": "Object_12",
      "primitives": [
        {
          "attributes": {
            "NORMAL": 49,
            "POSITION": 48,
            "TEXCOORD_0": 50
          },
          "indices": 51,
          "material": 2,
          "mode": 4
        }
      ]
    },
    {
      "name": "Object_13",
      "primitives": [
        {
          "attributes": {
            "NORMAL": 53,
            "POSITION": 52,
            "TEXCOORD_0": 54
          },
          "indices": 55,
          "material": 2,
          "mode": 4
        }
      ]
    },
    {
      "name": "Object_14",
      "primitives": [
        {
          "attributes": {
            "NORMAL": 57,
            "POSITION": 56,
            "TEXCOORD_0": 58
          },
          "indices": 59,
          "material": 3,
          "mode": 4
        }
      ]
    },
    {
      "name": "Object_15",
      "primitives": [
        {
          "attributes": {
            "NORMAL": 61,
            "POSITION": 60,
            "TEXCOORD_0": 62
          },
          "indices": 63,
          "material": 4,
          "mode": 4
        }
      ]
    }
  ],
  "nodes": [
    {
      "children": [
        1
      ],
      "matrix": [
        1.0,
        0.0,
        0.0,
        0.0,
        0.0,
        2.220446049250313e-16,
        -1.0,
        0.0,
        0.0,
        1.0,
        2.220446049250313e-16,
        0.0,
        0.0,
        0.0,
        0.0,
        1.0
      ],
      "name": "Sketchfab_model"
    },
    {
      "children": [
        2,
        3,
        4,
        5,
        6,
        7,
        8,
        9,
        10,
        11,
        12,
        13,
        14,
        15,
        16,
        17
      ],
      "name": "Alterita148_Kniznica_v1.obj.cleaner.materialmerger.gles"
    },
    {
      "mesh": 0,
      "name": "Object_2"
    },
    {
      "mesh": 1,
      "name": "Object_3"
    },
    {
      "mesh": 2,
      "name": "Object_4"
    },
    {
      "mesh": 3,
      "name": "Object_5"
    },
    {
      "mesh": 4,
      "name": "Object_6"
    },
    {
      "mesh": 5,
      "name": "Object_7"
    },
    {
      "mesh": 6,
      "name": "Object_8"
    },
    {
      "mesh": 7,
      "name": "Object_9"
    },
    {
      "mesh": 8,
      "name": "Object_10"
    },
    {
      "mesh": 9,
      "name": "Object_11"
    },
    {
      "mesh": 10,
      "name": "Object_12"
    },
    {
      "mesh": 11,
      "name": "Object_13"
    },
    {
      "mesh": 12,
      "name": "Object_14"
    },
    {
      "mesh": 13,
      "name": "Object_15"
    },
    {
      "mesh": 14,
      "name": "Object_16"
    },
    {
      "mesh": 15,
      "name": "Object_17"
    }
  ],
  "samplers": [
    {
      "magFilter": 9729,
      "minFilter": 9987,
      "wrapS": 10497,
      "wrapT": 10497
    }
  ],
  "scene": 0,
  "scenes": [
    {
      "name": "Sketchfab_Scene",
      "nodes": [
        0
      ]
    }
  ],
  "textures": [
    {
      "sampler": 0,
      "source": 0
    },
    {
      "sampler": 0,
      "source": 1
    }
  ]
}
