# Blender 4.5.3 LTS
# www.blender.org
mtllib ottoman.mtl
o ottoman
v -0.000000 0.230916 -0.239265
v 0.239265 0.230916 -0.000000
v -0.000000 -0.008349 -0.000000
v -0.239265 0.230916 0.000000
v 0.000000 0.230916 0.239265
v -0.000000 0.470181 -0.000000
v 0.114265 0.230916 -0.228530
v -0.114265 0.230916 -0.228530
v -0.000000 0.116651 -0.228530
v -0.000000 0.344031 -0.228220
v 0.228530 0.230916 0.114265
v 0.228530 0.230916 -0.114265
v 0.228530 0.116651 -0.000000
v 0.228220 0.344031 0.000000
v -0.000000 0.002385 0.114265
v -0.000000 0.002386 -0.114265
v -0.114265 0.002386 -0.000000
v 0.113115 0.002696 -0.000000
v -0.228530 0.230916 -0.114265
v -0.228530 0.230916 0.114265
v -0.228530 0.116651 0.000000
v -0.228220 0.344031 0.000000
v -0.114265 0.230916 0.228530
v 0.114265 0.230916 0.228530
v 0.000000 0.116651 0.228530
v 0.000000 0.344031 0.228220
v -0.000000 0.459446 0.114265
v -0.000000 0.459446 -0.114265
v 0.114265 0.459446 -0.000000
v -0.113115 0.459136 0.000000
v -0.101091 0.438686 -0.105885
v 0.106407 0.438417 -0.102488
v 0.105885 0.332007 0.207770
v 0.102488 0.124509 0.207502
v -0.207770 0.332006 0.105885
v -0.207502 0.124509 0.102488
v 0.101091 0.023146 -0.105885
v -0.106407 0.023414 -0.102488
v 0.207770 0.332007 -0.105885
v 0.207502 0.124509 -0.102488
v -0.105885 0.332007 -0.207770
v -0.102488 0.124509 -0.207502
v 0.105885 0.332007 -0.207770
v 0.207770 0.332007 0.105885
v 0.101091 0.023146 0.105885
v -0.207770 0.332007 -0.105885
v -0.105885 0.332007 0.207770
v -0.101091 0.438686 0.105885
v 0.173978 0.232361 -0.231811
v -0.055120 0.230916 -0.233898
v 0.000000 0.063308 -0.232604
v 0.231811 0.232361 0.173978
v 0.233898 0.230916 -0.055120
v 0.232604 0.063308 0.000000
v 0.001445 -0.000895 0.173978
v -0.000000 -0.002982 -0.055120
v -0.168466 -0.001601 0.000590
v -0.231811 0.232361 -0.173978
v -0.233898 0.230916 0.055120
v -0.232604 0.063308 0.000000
v -0.173978 0.232361 0.231811
v 0.055120 0.230916 0.233898
v -0.000590 0.062450 0.232517
v -0.001445 0.462727 0.173978
v -0.000000 0.464814 -0.055120
v 0.167608 0.463520 0.000000
v 0.055120 0.230916 -0.233898
v -0.173978 0.232361 -0.231811
v -0.000000 0.175796 -0.233898
v -0.000000 0.407425 -0.231629
v 0.233898 0.230916 0.055120
v 0.231811 0.232361 -0.173978
v 0.233898 0.175796 -0.000000
v 0.231629 0.407425 -0.000000
v -0.000000 -0.002982 0.055120
v 0.001445 -0.000895 -0.173978
v -0.055120 -0.002982 -0.000000
v 0.176509 -0.000713 -0.000000
v -0.233898 0.230916 -0.055120
v -0.231811 0.232361 0.173978
v -0.233898 0.175796 0.000000
v -0.231629 0.407425 0.000000
v -0.055120 0.230916 0.233898
v 0.173978 0.232361 0.231811
v 0.000000 0.175796 0.233898
v -0.000000 0.407425 0.231629
v -0.000000 0.464814 0.055120
v -0.001445 0.462727 -0.173978
v 0.055120 0.464814 -0.000000
v -0.176509 0.462545 0.000000
v -0.108898 0.448711 -0.047740
v -0.108898 0.446778 -0.168123
v -0.168123 0.446778 -0.108898
v 0.108898 0.446778 -0.168123
v 0.168123 0.446778 -0.108898
v 0.047740 0.448711 -0.108898
v 0.108898 0.446778 0.168123
v 0.106407 0.438417 0.102488
v 0.168123 0.446778 0.108898
v 0.047740 0.448711 0.108898
v 0.047740 0.339814 0.217796
v 0.168123 0.339814 0.215862
v 0.108898 0.399039 0.215862
v 0.168123 0.122018 0.215862
v 0.108898 0.062793 0.215862
v 0.108898 0.183176 0.217796
v -0.168123 0.122018 0.215862
v -0.102488 0.124509 0.207502
v -0.108898 0.062793 0.215862
v -0.108898 0.183176 0.217796
v -0.217796 0.339814 0.047740
v -0.215862 0.339814 0.168123
v -0.215862 0.399039 0.108898
v -0.215862 0.122018 0.168123
v -0.215862 0.062793 0.108898
v -0.217796 0.183176 0.108898
v -0.215862 0.122018 -0.168123
v -0.207502 0.124509 -0.102488
v -0.215862 0.062793 -0.108898
v -0.217796 0.183176 -0.108898
v 0.108898 0.013120 -0.047740
v 0.108898 0.015054 -0.168123
v 0.168123 0.015054 -0.108898
v -0.108898 0.015054 -0.168123
v -0.168123 0.015054 -0.108898
v -0.047740 0.013120 -0.108898
v -0.108898 0.015054 0.168123
v -0.106407 0.023414 0.102488
v -0.168123 0.015054 0.108898
v -0.047740 0.013120 0.108898
v 0.217796 0.339814 -0.047740
v 0.215862 0.339814 -0.168123
v 0.215862 0.399039 -0.108898
v 0.215862 0.122018 -0.168123
v 0.215862 0.062793 -0.108898
v 0.217796 0.183176 -0.108898
v 0.215862 0.122018 0.168123
v 0.207502 0.124509 0.102488
v 0.215862 0.062793 0.108898
v 0.217796 0.183176 0.108898
v -0.047740 0.339814 -0.217796
v -0.168123 0.339814 -0.215862
v -0.108898 0.399039 -0.215862
v -0.168123 0.122018 -0.215862
v -0.108898 0.062793 -0.215862
v -0.108898 0.183176 -0.217796
v 0.168123 0.122018 -0.215862
v 0.102488 0.124509 -0.207502
v 0.108898 0.062793 -0.215862
v 0.108898 0.183176 -0.217796
v 0.168123 0.339814 -0.215862
v 0.047740 0.339814 -0.217795
v 0.108898 0.399039 -0.215862
v 0.215862 0.339814 0.168123
v 0.217795 0.339814 0.047740
v 0.215862 0.399039 0.108898
v 0.108898 0.015054 0.168123
v 0.108898 0.013120 0.047740
v 0.168123 0.015054 0.108898
v -0.215862 0.339814 -0.168123
v -0.217795 0.339814 -0.047740
v -0.215862 0.399039 -0.108898
v -0.168123 0.339814 0.215862
v -0.047740 0.339814 0.217795
v -0.108898 0.399039 0.215862
v -0.108898 0.446778 0.168123
v -0.108898 0.448711 0.047740
v -0.168123 0.446778 0.108898
v -0.171955 0.452592 0.171955
v -0.171955 0.402871 0.221676
v -0.221676 0.402871 -0.171955
v 0.171955 0.009240 0.171955
v 0.221676 0.402871 0.171955
v 0.171955 0.402871 -0.221676
v -0.051430 0.179486 -0.225847
v -0.051430 0.403232 -0.223746
v 0.225847 0.179486 -0.051430
v 0.223746 0.403232 -0.051430
v -0.051430 0.005069 -0.051430
v 0.172316 0.007170 -0.051430
v -0.225847 0.179486 0.051430
v -0.223746 0.403232 0.051430
v 0.051430 0.179486 0.225847
v 0.051430 0.403232 0.223746
v 0.051430 0.456762 -0.051430
v -0.172316 0.454662 -0.051430
v -0.051430 0.456763 -0.051430
v -0.051430 0.454662 -0.172316
v -0.171955 0.452592 -0.171955
v 0.171955 0.452592 -0.171955
v 0.171955 0.452592 0.171955
v 0.051430 0.456762 0.051430
v 0.051430 0.282346 0.225847
v 0.172316 0.282346 0.223746
v 0.171955 0.402871 0.221676
v 0.051430 0.058600 0.223746
v 0.171955 0.058961 0.221676
v -0.171955 0.058961 0.221676
v -0.051430 0.179486 0.225847
v -0.225847 0.282346 0.051430
v -0.223746 0.282346 0.172316
v -0.221676 0.402871 0.171955
v -0.221676 0.058961 0.171955
v -0.221676 0.058961 -0.171955
v -0.225847 0.179486 -0.051430
v 0.051430 0.005069 -0.051430
v 0.051430 0.007170 -0.172316
v 0.171955 0.009240 -0.171955
v -0.172316 0.007170 -0.051430
v -0.171955 0.009240 -0.171955
v -0.171955 0.009240 0.171955
v -0.051430 0.005069 0.051430
v 0.225847 0.282346 -0.051430
v 0.223746 0.282346 -0.172316
v 0.221676 0.402871 -0.171955
v 0.221676 0.058961 -0.171955
v 0.221676 0.058961 0.171955
v 0.225847 0.179486 0.051430
v -0.051430 0.282346 -0.225847
v -0.172316 0.282346 -0.223746
v -0.171955 0.402871 -0.221676
v -0.171955 0.058961 -0.221676
v 0.171955 0.058961 -0.221676
v 0.051430 0.179486 -0.225847
v 0.172316 0.282346 -0.223746
v 0.051430 0.282346 -0.225847
v 0.051430 0.403232 -0.223746
v 0.223746 0.282346 0.172316
v 0.225847 0.282346 0.051430
v 0.223746 0.403232 0.051430
v 0.051430 0.007170 0.172316
v 0.051430 0.005069 0.051430
v 0.172316 0.007170 0.051430
v -0.223746 0.282346 -0.172316
v -0.225847 0.282346 -0.051430
v -0.223746 0.403232 -0.051430
v -0.172316 0.282346 0.223746
v -0.051430 0.282346 0.225847
v -0.051430 0.403232 0.223746
v -0.051430 0.454662 0.172316
v -0.051430 0.456762 0.051430
v -0.172316 0.454662 0.051430
v 0.208402 0.438590 -0.197978
v 0.197610 0.445150 -0.197723
v 0.200929 0.438078 -0.207665
v 0.207674 0.428893 -0.208402
v 0.214214 0.428638 -0.197653
v 0.206332 0.436832 -0.204805
v 0.197679 0.428570 -0.214234
v 0.207162 0.029987 -0.207665
v 0.197654 0.033237 -0.214234
v 0.197977 0.023242 -0.208402
v 0.207673 0.022514 -0.197979
v 0.214254 0.033305 -0.197678
v 0.197723 0.016682 -0.197610
v 0.205916 0.024584 -0.204806
v 0.197977 0.438590 0.208402
v 0.197723 0.445150 0.197610
v 0.205916 0.437248 0.204806
v 0.207673 0.439318 0.197979
v 0.207163 0.431845 0.207665
v 0.197653 0.428638 0.214214
v 0.214234 0.428570 0.197679
v 0.207665 0.029987 0.207162
v 0.214234 0.033237 0.197654
v 0.208402 0.023242 0.197977
v 0.197979 0.022514 0.207673
v 0.197678 0.033305 0.214254
v 0.197610 0.016682 0.197723
v 0.204806 0.024584 0.205917
v -0.197978 0.438590 -0.208402
v -0.197722 0.445150 -0.197610
v -0.205916 0.437248 -0.204805
v -0.207673 0.439318 -0.197978
v -0.207163 0.431845 -0.207665
v -0.197653 0.428638 -0.214214
v -0.214234 0.428570 -0.197679
v -0.208402 0.023242 -0.197977
v -0.197610 0.016682 -0.197723
v -0.204806 0.024584 -0.205916
v -0.197979 0.022514 -0.207673
v -0.207665 0.029987 -0.207162
v -0.214234 0.033237 -0.197654
v -0.197678 0.033305 -0.214254
v -0.207673 0.428895 0.208402
v -0.214234 0.428594 0.197654
v -0.207163 0.438581 0.200929
v -0.197979 0.439318 0.207673
v -0.197678 0.428526 0.214254
v -0.205916 0.435721 0.206332
v -0.197610 0.445150 0.197723
v -0.200929 0.023251 0.207163
v -0.197723 0.016682 0.197610
v -0.207673 0.022514 0.197979
v -0.208402 0.032939 0.207674
v -0.197652 0.033194 0.214214
v -0.214234 0.033262 0.197678
v -0.206332 0.026110 0.205916
v -0.217011 0.013209 0.000134
v 0.001416 0.003652 -0.197019
v -0.000212 0.013548 -0.217367
v 0.227264 0.232332 -0.197019
v 0.217367 0.230704 -0.217367
v -0.227103 0.231025 0.197621
v -0.217367 0.231128 0.217367
v 0.197019 0.232332 0.227264
v 0.217367 0.230704 0.217367
v -0.197019 0.232332 -0.227264
v -0.217367 0.230704 -0.217367
v -0.000212 0.448283 0.217367
v 0.000123 0.437332 0.224526
v 0.217367 0.448283 0.000212
v 0.224526 0.437332 -0.000123
v 0.000212 0.013548 0.217367
v -0.217367 0.448283 -0.000212
v -0.224526 0.437332 0.000123
v -0.001416 0.458180 -0.197019
v 0.000212 0.448283 -0.217367
v -0.000123 0.437332 -0.224526
v 0.217367 0.013548 -0.000212
v -0.213129 0.030133 0.111296
v -0.208575 0.022781 0.111607
v -0.200783 0.017787 0.111296
v -0.111296 0.030133 -0.213129
v -0.111333 0.022566 -0.208350
v -0.111296 0.017787 -0.200783
v 0.200783 0.119619 -0.213129
v 0.208350 0.119583 -0.208350
v 0.213129 0.119619 -0.200783
v -0.213313 0.343898 0.200225
v -0.208350 0.342249 0.208350
v -0.200225 0.343898 0.213313
v 0.213129 0.119619 0.200783
v 0.208350 0.119583 0.208350
v 0.200783 0.119619 0.213129
v -0.213129 0.119619 -0.200783
v -0.208350 0.119583 -0.208350
v -0.200783 0.119619 -0.213129
v -0.112982 0.431141 0.213313
v -0.111333 0.439266 0.208350
v -0.112982 0.444229 0.200225
v 0.213313 0.431141 0.112982
v 0.208350 0.439266 0.111333
v 0.200783 0.444044 0.111296
v 0.111296 0.030133 0.213129
v 0.111333 0.022566 0.208350
v 0.112982 0.017603 0.200225
v -0.213313 0.431141 -0.112982
v -0.208350 0.439265 -0.111333
v -0.200225 0.444229 -0.112982
v 0.112982 0.431141 -0.213313
v 0.111333 0.439266 -0.208350
v 0.111296 0.444045 -0.200783
v 0.213129 0.030133 -0.111296
v 0.208350 0.022566 -0.111333
v 0.200225 0.017603 -0.112982
v -0.213052 0.030012 -0.110853
v -0.208390 0.022526 -0.112049
v -0.200904 0.017864 -0.110853
v 0.110853 0.030012 -0.213052
v 0.112049 0.022526 -0.208390
v 0.112638 0.017637 -0.200189
v 0.200189 0.343554 -0.213278
v 0.208390 0.342965 -0.208390
v 0.213278 0.343554 -0.200189
v -0.213052 0.120063 0.200904
v -0.208390 0.118867 0.208390
v -0.200904 0.120063 0.213052
v 0.213278 0.343554 0.200189
v 0.208390 0.342965 0.208390
v 0.200189 0.343554 0.213278
v -0.213278 0.343554 -0.200189
v -0.208390 0.342965 -0.208390
v -0.200189 0.343554 -0.213278
v 0.112638 0.431105 0.213278
v 0.112049 0.439306 0.208390
v 0.110853 0.443968 0.200904
v 0.213278 0.431105 -0.112638
v 0.208390 0.439306 -0.112049
v 0.200904 0.443968 -0.110853
v -0.110853 0.030012 0.213052
v -0.112049 0.022526 0.208390
v -0.110853 0.017864 0.200904
v -0.213278 0.431105 0.112638
v -0.208390 0.439306 0.112049
v -0.200189 0.444194 0.112638
v -0.112638 0.431105 -0.213278
v -0.112049 0.439306 -0.208390
v -0.112638 0.444194 -0.200189
v 0.213052 0.030012 0.110853
v 0.208390 0.022526 0.112049
v 0.200189 0.017637 0.112638
v -0.201590 0.013763 0.173294
v -0.211062 0.019854 0.174339
v -0.217153 0.029326 0.173294
v -0.173445 0.014780 -0.204725
v -0.173373 0.026895 -0.216371
v 0.217153 0.057621 -0.201589
v 0.211062 0.056577 -0.211062
v 0.201589 0.057621 -0.217153
v -0.202281 0.404875 0.216793
v -0.211062 0.405255 0.211062
v -0.216793 0.404875 0.202281
v 0.201589 0.057621 0.217153
v 0.211062 0.056577 0.211062
v 0.217153 0.057621 0.201589
v -0.204725 0.057471 -0.216136
v -0.216371 0.057542 -0.204021
v -0.173959 0.447709 0.202280
v -0.174339 0.441978 0.211062
v -0.173960 0.433195 0.216794
v 0.201590 0.448069 0.173294
v 0.211062 0.441978 0.174339
v 0.216794 0.433195 0.173960
v 0.173959 0.014123 0.202281
v 0.174339 0.019854 0.211062
v 0.173294 0.029326 0.217153
v -0.202279 0.447710 -0.173960
v -0.211062 0.441978 -0.174339
v -0.216794 0.433195 -0.173960
v 0.173373 0.447287 -0.204021
v 0.173977 0.435990 -0.215870
v 0.202279 0.014122 -0.173960
v 0.211062 0.019854 -0.174339
v 0.217153 0.029326 -0.173294
v -0.195086 0.003053 -0.000622
v 0.053692 0.011251 -0.199771
v 0.219664 0.284608 -0.199771
v 0.199771 0.284608 -0.219664
v -0.197621 0.231025 0.227103
v 0.199771 0.284608 0.219664
v 0.219664 0.284608 0.199771
v -0.199771 0.284608 -0.219664
v -0.219664 0.284608 -0.199771
v -0.000109 0.458019 0.197621
v 0.195086 0.458778 -0.000622
v 0.000109 0.003813 0.197621
v -0.206417 0.455442 0.000123
v -0.053692 0.450580 -0.199771
v 0.206416 0.006389 0.000123
v -0.227863 0.035830 -0.000622
v -0.209143 0.007783 0.000042
v -0.223133 0.021772 0.000041
v 0.000622 0.035830 -0.227863
v -0.000042 0.007783 -0.209143
v -0.000042 0.021772 -0.223133
v 0.197019 0.232332 -0.227264
v 0.223133 0.230874 -0.209143
v 0.209143 0.230874 -0.223133
v -0.199771 0.284608 0.219664
v -0.219664 0.284608 0.199771
v -0.209143 0.230957 0.223133
v -0.223133 0.230957 0.209143
v 0.227264 0.232332 0.197019
v 0.209143 0.230874 0.223133
v 0.223133 0.230874 0.209143
v -0.227264 0.232332 -0.197019
v -0.209143 0.230874 -0.223133
v -0.223133 0.230874 -0.209143
v -0.053692 0.450580 0.199771
v -0.000042 0.454049 0.209144
v -0.055544 0.433707 0.218795
v 0.209143 0.454049 0.000042
v 0.218795 0.433707 0.055544
v 0.053692 0.011251 0.199771
v -0.000622 0.035830 0.227863
v 0.000042 0.007783 0.209143
v 0.000042 0.021772 0.223133
v -0.202791 0.449711 -0.055544
v -0.218795 0.433707 -0.055544
v 0.000042 0.454049 -0.209144
v 0.055544 0.433707 -0.218795
v 0.202791 0.012121 -0.055545
v 0.227863 0.035830 0.000622
v 0.223133 0.021772 -0.000042
v -0.204661 0.014679 -0.173246
v -0.216454 0.026940 -0.173194
v 0.173804 0.014044 -0.202200
v 0.174103 0.019824 -0.211092
v 0.173207 0.029323 -0.217186
v 0.216872 0.404720 -0.202200
v 0.211092 0.405019 -0.211092
v 0.202200 0.404720 -0.216872
v -0.201592 0.057707 0.217186
v -0.211092 0.056813 0.211092
v -0.217186 0.057707 0.201592
v 0.202200 0.404720 0.216872
v 0.211092 0.405019 0.211092
v 0.216872 0.404720 0.202200
v -0.202200 0.404720 -0.216872
v -0.211092 0.405019 -0.211092
v -0.216872 0.404720 -0.202200
v 0.173209 0.448102 0.201592
v 0.174103 0.442008 0.211092
v 0.173805 0.433115 0.216872
v 0.201593 0.448102 -0.173207
v 0.211092 0.442008 -0.174103
v 0.216872 0.433115 -0.173805
v -0.173247 0.014679 0.204661
v -0.173194 0.026941 0.216454
v -0.202199 0.447788 0.173806
v -0.211092 0.442008 0.174103
v -0.216872 0.433115 0.173805
v -0.173804 0.447788 -0.202200
v -0.174103 0.442008 -0.211092
v -0.173805 0.433115 -0.216872
v 0.204970 0.014918 0.173740
v 0.216454 0.026940 0.173194
vn -0.0000 -0.0056 -1.0000
vn 1.0000 -0.0056 -0.0000
vn -0.0056 -1.0000 -0.0000
vn -1.0000 -0.0056 -0.0000
vn -0.0000 -0.0056 1.0000
vn 0.0056 1.0000 -0.0000
vn 0.0220 -0.0108 -0.9997
vn -0.0220 -0.0108 -0.9997
vn -0.0000 -0.0167 -0.9999
vn -0.0000 0.0236 -0.9997
vn 0.9997 -0.0108 0.0220
vn 0.9997 -0.0108 -0.0220
vn 0.9999 -0.0167 -0.0000
vn 0.9997 0.0236 -0.0000
vn -0.0108 -0.9997 0.0220
vn -0.0108 -0.9997 -0.0220
vn -0.0142 -0.9999 0.0016
vn 0.0236 -0.9997 -0.0000
vn -0.9997 -0.0108 -0.0220
vn -0.9997 -0.0108 0.0220
vn -0.9999 -0.0167 -0.0000
vn -0.9997 0.0236 -0.0000
vn -0.0220 -0.0108 0.9997
vn 0.0220 -0.0108 0.9997
vn -0.0016 -0.0142 0.9999
vn -0.0000 0.0236 0.9997
vn 0.0108 0.9997 0.0220
vn 0.0108 0.9997 -0.0220
vn 0.0167 0.9999 -0.0000
vn -0.0236 0.9997 -0.0000
vn -0.0393 0.9989 -0.0256
vn 0.0207 0.9991 -0.0381
vn 0.0256 0.0393 0.9989
vn 0.0362 -0.0240 0.9991
vn -0.9989 0.0393 0.0256
vn -0.9991 -0.0207 0.0381
vn 0.0393 -0.9989 -0.0256
vn -0.0240 -0.9991 -0.0362
vn 0.9989 0.0393 -0.0256
vn 0.9991 -0.0207 -0.0381
vn -0.0256 0.0393 -0.9989
vn -0.0381 -0.0207 -0.9991
vn 0.0256 0.0393 -0.9989
vn 0.9989 0.0393 0.0256
vn 0.0393 -0.9989 0.0256
vn -0.9989 0.0393 -0.0256
vn -0.0256 0.0393 0.9989
vn -0.0393 0.9989 0.0256
vn 0.0316 0.0071 -0.9995
vn -0.1270 -0.0032 -0.9919
vn -0.0007 -0.0082 -1.0000
vn 0.9995 0.0071 0.0316
vn 0.9919 -0.0032 -0.1270
vn 1.0000 -0.0082 -0.0007
vn 0.0086 -0.9994 0.0333
vn -0.0032 -0.9919 -0.1270
vn -0.0215 -0.9998 -0.0032
vn -0.9995 0.0071 -0.0316
vn -0.9919 -0.0032 0.1270
vn -1.0000 -0.0082 0.0007
vn -0.0333 0.0086 0.9994
vn 0.1270 -0.0032 0.9919
vn 0.0048 -0.0233 0.9997
vn -0.0086 0.9994 0.0333
vn 0.0032 0.9919 -0.1270
vn 0.0082 1.0000 0.0007
vn 0.1270 -0.0032 -0.9919
vn -0.0316 0.0071 -0.9995
vn -0.0000 -0.1237 -0.9923
vn -0.0074 0.0721 -0.9974
vn 0.9919 -0.0032 0.1270
vn 0.9995 0.0071 -0.0316
vn 0.9923 -0.1237 -0.0000
vn 0.9974 0.0721 -0.0074
vn -0.0032 -0.9919 0.1270
vn 0.0071 -0.9995 -0.0316
vn -0.1237 -0.9923 -0.0000
vn 0.0721 -0.9974 0.0074
vn -0.9919 -0.0032 -0.1270
vn -0.9994 0.0086 0.0333
vn -0.9923 -0.1237 -0.0000
vn -0.9974 0.0721 0.0074
vn -0.1270 -0.0032 0.9919
vn 0.0316 0.0071 0.9995
vn -0.0000 -0.1237 0.9923
vn 0.0074 0.0721 0.9974
vn 0.0032 0.9919 0.1270
vn -0.0071 0.9995 -0.0316
vn 0.1237 0.9923 -0.0000
vn -0.0721 0.9974 0.0074
vn -0.0247 0.9828 -0.1831
vn -0.0163 0.9998 0.0102
vn 0.0016 0.9997 -0.0230
vn 0.0252 0.9997 -0.0031
vn -0.0053 0.9997 -0.0240
vn 0.1779 0.9839 -0.0163
vn 0.0240 0.9997 0.0015
vn 0.0207 0.9991 0.0381
vn -0.0050 0.9997 0.0242
vn 0.1779 0.9839 0.0163
vn 0.1831 0.0247 0.9828
vn -0.0102 0.0163 0.9998
vn 0.0217 0.0006 0.9998
vn 0.0014 -0.0244 0.9997
vn 0.0161 0.0141 0.9998
vn 0.0163 -0.1779 0.9839
vn -0.0015 -0.0240 0.9997
vn -0.0379 -0.0208 0.9991
vn -0.0246 0.0036 0.9997
vn -0.0163 -0.1779 0.9839
vn -0.9828 0.0247 0.1831
vn -0.9998 0.0166 -0.0104
vn -0.9998 0.0006 0.0217
vn -0.9997 -0.0240 0.0015
vn -0.9997 0.0050 0.0242
vn -0.9839 -0.1779 0.0163
vn -0.9997 -0.0252 -0.0031
vn -0.9991 -0.0207 -0.0381
vn -0.9997 0.0037 -0.0247
vn -0.9839 -0.1779 -0.0163
vn 0.0247 -0.9828 -0.1831
vn 0.0163 -0.9998 0.0102
vn -0.0016 -0.9997 -0.0230
vn -0.0254 -0.9997 -0.0036
vn 0.0119 -0.9998 -0.0169
vn -0.1779 -0.9839 -0.0163
vn -0.0250 -0.9997 0.0035
vn -0.0208 -0.9991 0.0379
vn 0.0049 -0.9997 0.0241
vn -0.1779 -0.9839 0.0163
vn 0.9828 0.0247 -0.1831
vn 0.9998 0.0163 0.0102
vn 0.9998 0.0006 -0.0217
vn 0.9997 -0.0244 -0.0014
vn 0.9997 0.0050 -0.0242
vn 0.9839 -0.1779 -0.0163
vn 0.9997 -0.0244 0.0014
vn 0.9991 -0.0207 0.0381
vn 0.9997 0.0037 0.0247
vn 0.9839 -0.1779 0.0163
vn -0.1831 0.0247 -0.9828
vn 0.0102 0.0163 -0.9998
vn -0.0217 0.0006 -0.9998
vn -0.0036 -0.0254 -0.9997
vn -0.0251 0.0033 -0.9997
vn -0.0163 -0.1779 -0.9839
vn 0.0014 -0.0244 -0.9997
vn 0.0381 -0.0207 -0.9991
vn 0.0240 0.0053 -0.9997
vn 0.0163 -0.1779 -0.9839
vn -0.0102 0.0163 -0.9998
vn 0.1831 0.0247 -0.9828
vn 0.0239 0.0003 -0.9997
vn 0.9998 0.0163 -0.0102
vn 0.9828 0.0247 0.1831
vn 0.9997 -0.0016 0.0230
vn 0.0166 -0.9998 -0.0104
vn 0.0247 -0.9828 0.1831
vn 0.0023 -0.9997 0.0226
vn -0.9998 0.0163 0.0102
vn -0.9828 0.0247 -0.1831
vn -0.9997 -0.0016 -0.0230
vn 0.0104 0.0166 0.9998
vn -0.1831 0.0247 0.9828
vn -0.0230 -0.0016 0.9997
vn -0.0166 0.9998 -0.0104
vn -0.0247 0.9828 0.1831
vn -0.0006 0.9998 0.0217
vn -0.0211 0.9995 0.0217
vn -0.0215 0.0215 0.9995
vn -0.9995 0.0217 -0.0211
vn 0.0250 -0.9995 0.0211
vn 0.9995 0.0217 0.0211
vn 0.0204 0.0259 -0.9995
vn -0.1521 -0.1478 -0.9773
vn -0.1430 0.0178 -0.9896
vn 0.9773 -0.1478 -0.1521
vn 0.9896 0.0178 -0.1430
vn -0.1478 -0.9773 -0.1521
vn 0.0254 -0.9891 -0.1449
vn -0.9773 -0.1478 0.1521
vn -0.9896 0.0178 0.1430
vn 0.1521 -0.1478 0.9773
vn 0.1430 0.0178 0.9896
vn 0.1478 0.9773 -0.1521
vn -0.0254 0.9891 -0.1449
vn -0.1523 0.9774 -0.1468
vn -0.1521 0.9882 -0.0179
vn -0.0217 0.9995 -0.0211
vn 0.0187 0.9996 -0.0232
vn 0.0196 0.9996 0.0194
vn 0.1478 0.9773 0.1521
vn 0.1468 0.1523 0.9774
vn 0.0179 0.1521 0.9882
vn 0.0213 0.0213 0.9995
vn 0.1518 -0.0061 0.9884
vn 0.0195 -0.0195 0.9996
vn -0.0190 -0.0228 0.9996
vn -0.1521 -0.1478 0.9773
vn -0.9774 0.1523 0.1468
vn -0.9883 0.1513 0.0189
vn -0.9995 0.0211 0.0217
vn -0.9996 -0.0196 0.0194
vn -0.9995 -0.0220 -0.0226
vn -0.9773 -0.1478 -0.1521
vn 0.1523 -0.9774 -0.1468
vn 0.1521 -0.9882 -0.0179
vn 0.0217 -0.9995 -0.0211
vn -0.0060 -0.9883 -0.1526
vn -0.0227 -0.9995 -0.0234
vn -0.0189 -0.9995 0.0236
vn -0.1478 -0.9773 0.1521
vn 0.9774 0.1523 -0.1468
vn 0.9882 0.1521 -0.0179
vn 0.9995 0.0213 -0.0213
vn 0.9996 -0.0195 -0.0195
vn 0.9996 -0.0227 0.0190
vn 0.9773 -0.1478 0.1521
vn -0.1468 0.1523 -0.9774
vn -0.0179 0.1521 -0.9882
vn -0.0213 0.0213 -0.9995
vn -0.0234 -0.0222 -0.9995
vn 0.0196 -0.0194 -0.9996
vn 0.1521 -0.1478 -0.9773
vn 0.0179 0.1521 -0.9882
vn 0.1468 0.1523 -0.9774
vn 0.1449 0.0254 -0.9891
vn 0.9882 0.1521 0.0179
vn 0.9774 0.1523 0.1468
vn 0.9891 0.0254 0.1449
vn 0.1513 -0.9883 0.0189
vn 0.1523 -0.9774 0.1468
vn 0.0178 -0.9896 0.1430
vn -0.9882 0.1521 -0.0179
vn -0.9774 0.1523 -0.1468
vn -0.9891 0.0254 -0.1449
vn -0.0189 0.1513 0.9883
vn -0.1468 0.1523 0.9774
vn -0.1449 0.0254 0.9891
vn -0.1513 0.9883 0.0189
vn -0.1523 0.9774 0.1468
vn -0.0178 0.9896 0.1430
vn 0.6860 0.6734 -0.2755
vn 0.3079 0.9010 -0.3056
vn 0.3519 0.6493 -0.6742
vn 0.6657 0.2886 -0.6882
vn 0.9013 0.3037 -0.3090
vn 0.6164 0.5835 -0.5287
vn 0.3066 0.2992 -0.9036
vn 0.6506 -0.3463 -0.6758
vn 0.3085 -0.3028 -0.9017
vn 0.2878 -0.6647 -0.6895
vn 0.6735 -0.6859 -0.2756
vn 0.9005 -0.3051 -0.3099
vn 0.3038 -0.9015 -0.3082
vn 0.5835 -0.6164 -0.5287
vn 0.2878 0.6672 0.6870
vn 0.3034 0.9017 0.3079
vn 0.5834 0.6165 0.5287
vn 0.6707 0.6887 0.2756
vn 0.6503 0.3476 0.6755
vn 0.3091 0.3040 0.9011
vn 0.8999 0.3062 0.3104
vn 0.6758 -0.3463 0.6506
vn 0.9033 -0.2946 0.3118
vn 0.6889 -0.6623 0.2945
vn 0.2756 -0.6859 0.6735
vn 0.3099 -0.3051 0.9005
vn 0.3001 -0.9032 0.3069
vn 0.5287 -0.6164 0.5835
vn -0.2886 0.6658 -0.6880
vn -0.3038 0.9015 -0.3082
vn -0.5834 0.6165 -0.5287
vn -0.6719 0.6871 -0.2765
vn -0.6503 0.3476 -0.6755
vn -0.3091 0.3040 -0.9011
vn -0.8999 0.3062 -0.3104
vn -0.6888 -0.6628 -0.2936
vn -0.3042 -0.9049 -0.2977
vn -0.5287 -0.6164 -0.5835
vn -0.2814 -0.6862 -0.6708
vn -0.6757 -0.3511 -0.6482
vn -0.9046 -0.2978 -0.3050
vn -0.3058 -0.3029 -0.9027
vn -0.6718 0.2765 0.6872
vn -0.8999 0.3104 0.3062
vn -0.6503 0.6755 0.3475
vn -0.2888 0.6880 0.6657
vn -0.3031 0.3083 0.9017
vn -0.5834 0.5287 0.6165
vn -0.3084 0.9014 0.3040
vn -0.3510 -0.6747 0.6493
vn -0.3077 -0.9033 0.2990
vn -0.6660 -0.6885 0.2870
vn -0.6876 -0.2747 0.6722
vn -0.3088 -0.3054 0.9008
vn -0.9017 -0.3086 0.3028
vn -0.6165 -0.5287 0.5835
vn -0.6985 -0.7156 0.0004
vn 0.0103 -0.9731 -0.2302
vn -0.0009 -0.7071 -0.7071
vn 0.9731 0.0103 -0.2302
vn 0.7071 -0.0009 -0.7071
vn -0.9726 0.0024 0.2326
vn -0.7071 0.0009 0.7071
vn 0.2302 0.0103 0.9731
vn 0.7071 -0.0009 0.7071
vn -0.2302 0.0103 -0.9731
vn -0.7071 -0.0009 -0.7071
vn -0.0021 0.6935 0.7204
vn 0.0036 0.3664 0.9304
vn 0.7204 0.6935 0.0021
vn 0.9304 0.3664 -0.0036
vn 0.0009 -0.7071 0.7071
vn -0.7071 0.7071 -0.0033
vn -0.9304 0.3664 0.0036
vn -0.0103 0.9731 -0.2302
vn 0.0021 0.6935 -0.7204
vn -0.0036 0.3664 -0.9304
vn 0.6935 -0.7204 -0.0021
vn -0.9419 -0.3349 0.0266
vn -0.7139 -0.6998 0.0261
vn -0.3449 -0.9383 0.0262
vn -0.0236 -0.3360 -0.9416
vn -0.0229 -0.7066 -0.7072
vn -0.0226 -0.9415 -0.3361
vn 0.3390 -0.0250 -0.9405
vn 0.7068 -0.0283 -0.7068
vn 0.9405 -0.0250 -0.3390
vn -0.9440 0.0157 0.3296
vn -0.7066 0.0370 0.7066
vn -0.3296 0.0157 0.9440
vn 0.9405 -0.0250 0.3390
vn 0.7068 -0.0283 0.7068
vn 0.3390 -0.0250 0.9405
vn -0.9415 -0.0230 -0.3363
vn -0.7072 -0.0229 -0.7066
vn -0.3361 -0.0226 -0.9415
vn -0.0127 0.3312 0.9435
vn -0.0343 0.7054 0.7080
vn -0.0157 0.9440 0.3296
vn 0.9435 0.3312 0.0127
vn 0.7090 0.7046 0.0299
vn 0.3386 0.9406 0.0257
vn 0.0244 -0.3331 0.9426
vn 0.0326 -0.7076 0.7059
vn 0.0157 -0.9440 0.3296
vn -0.9435 0.3312 -0.0127
vn -0.7068 0.7068 -0.0315
vn -0.3312 0.9435 -0.0127
vn 0.0100 0.3240 -0.9460
vn 0.0250 0.7027 -0.7111
vn 0.0230 0.9415 -0.3363
vn 0.9406 -0.3386 -0.0257
vn 0.7046 -0.7090 -0.0299
vn 0.3312 -0.9435 -0.0127
vn -0.9392 -0.3422 -0.0273
vn -0.7059 -0.7082 -0.0137
vn -0.3341 -0.9422 -0.0258
vn 0.0294 -0.3428 -0.9390
vn 0.0244 -0.7091 -0.7047
vn 0.0184 -0.9433 -0.3315
vn 0.3315 0.0184 -0.9433
vn 0.7068 0.0293 -0.7068
vn 0.9433 0.0184 -0.3315
vn -0.9388 -0.0286 0.3433
vn -0.7070 -0.0196 0.7070
vn -0.3433 -0.0286 0.9388
vn 0.9433 0.0184 0.3315
vn 0.7068 0.0293 0.7068
vn 0.3315 0.0184 0.9433
vn -0.9433 0.0184 -0.3315
vn -0.7068 0.0293 -0.7068
vn -0.3315 0.0184 -0.9433
vn 0.0168 0.3316 0.9433
vn 0.0241 0.7022 0.7116
vn 0.0286 0.9388 0.3433
vn 0.9433 0.3316 -0.0168
vn 0.7116 0.7022 -0.0241
vn 0.3428 0.9390 -0.0294
vn -0.0275 -0.3412 0.9396
vn -0.0137 -0.7066 0.7074
vn -0.0263 -0.9396 0.3412
vn -0.9433 0.3316 0.0168
vn -0.7068 0.7068 0.0286
vn -0.3316 0.9433 0.0168
vn -0.0168 0.3316 -0.9433
vn -0.0289 0.7043 -0.7093
vn -0.0184 0.9433 -0.3315
vn 0.9397 -0.3409 0.0274
vn 0.6996 -0.7143 0.0186
vn 0.3247 -0.9457 0.0140
vn -0.3420 -0.9387 0.0444
vn -0.7058 -0.7052 0.0670
vn -0.9378 -0.3444 0.0441
vn -0.0453 -0.8899 -0.4539
vn -0.0455 -0.4342 -0.8997
vn 0.9366 -0.0455 -0.3475
vn 0.7047 -0.0705 -0.7060
vn 0.3461 -0.0446 -0.9371
vn -0.3462 0.0467 0.9370
vn -0.7050 0.0636 0.7063
vn -0.9360 0.0482 0.3487
vn 0.3475 -0.0455 0.9366
vn 0.7060 -0.0705 0.7047
vn 0.9376 -0.0462 0.3447
vn -0.4562 -0.0491 -0.8885
vn -0.8983 -0.0477 -0.4367
vn -0.0466 0.9369 0.3464
vn -0.0636 0.7062 0.7051
vn -0.0484 0.3486 0.9360
vn 0.3429 0.9384 0.0425
vn 0.7055 0.7057 0.0653
vn 0.9360 0.3487 0.0482
vn 0.0485 -0.9375 0.3446
vn 0.0653 -0.7066 0.7046
vn 0.0441 -0.3450 0.9376
vn -0.3464 0.9369 -0.0466
vn -0.7051 0.7063 -0.0636
vn -0.9360 0.3487 -0.0482
vn 0.0460 0.8988 -0.4360
vn 0.0501 0.4629 -0.8850
vn 0.3464 -0.9369 -0.0466
vn 0.7046 -0.7066 -0.0653
vn 0.9376 -0.3450 -0.0441
vn -0.2226 -0.9749 -0.0064
vn 0.1197 -0.9754 -0.1850
vn 0.9754 0.1197 -0.1850
vn 0.1850 0.1197 -0.9754
vn -0.2326 0.0024 0.9726
vn 0.1850 0.1197 0.9754
vn 0.9754 0.1197 0.1850
vn -0.1850 0.1197 -0.9754
vn -0.9754 0.1197 -0.1850
vn -0.0024 0.9726 0.2326
vn 0.2150 0.9766 -0.0032
vn 0.0024 -0.9726 0.2326
vn -0.3664 0.9304 0.0036
vn -0.1197 0.9754 -0.1850
vn 0.3664 -0.9304 0.0036
vn -0.9766 -0.2150 -0.0032
vn -0.4386 -0.8987 0.0012
vn -0.8939 -0.4482 0.0006
vn 0.0032 -0.2150 -0.9766
vn -0.0011 -0.8954 -0.4453
vn -0.0006 -0.4449 -0.8956
vn 0.2302 0.0103 -0.9731
vn 0.8954 -0.0011 -0.4453
vn 0.4453 -0.0011 -0.8954
vn -0.1815 0.1184 0.9762
vn -0.9762 0.1184 0.1815
vn -0.4469 0.0008 0.8946
vn -0.8946 0.0008 0.4469
vn 0.9731 0.0103 0.2302
vn 0.4453 -0.0011 0.8954
vn 0.8954 -0.0011 0.4453
vn -0.9731 0.0103 -0.2302
vn -0.4453 -0.0011 -0.8954
vn -0.8954 -0.0011 -0.4453
vn -0.1184 0.9762 0.1815
vn -0.0008 0.8946 0.4469
vn -0.1237 0.3354 0.9339
vn 0.4449 0.8956 0.0006
vn 0.9339 0.3354 0.1237
vn 0.1184 -0.9762 0.1815
vn -0.0000 -0.2234 0.9747
vn 0.0008 -0.8946 0.4469
vn 0.0006 -0.4449 0.8956
vn -0.3354 0.9339 -0.1237
vn -0.9339 0.3354 -0.1237
vn 0.0011 0.8954 -0.4452
vn 0.1237 0.3354 -0.9339
vn 0.3354 -0.9339 -0.1237
vn 0.9766 -0.2150 0.0032
vn 0.8956 -0.4449 -0.0006
vn -0.4524 -0.8906 -0.0459
vn -0.9001 -0.4336 -0.0439
vn 0.0484 -0.9366 -0.3470
vn 0.0643 -0.7062 -0.7051
vn 0.0430 -0.3424 -0.9386
vn 0.9366 0.0482 -0.3471
vn 0.7051 0.0626 -0.7063
vn 0.3427 0.0488 -0.9382
vn -0.3433 -0.0460 0.9381
vn -0.7062 -0.0660 0.7049
vn -0.9386 -0.0430 0.3424
vn 0.3482 0.0488 0.9362
vn 0.7049 0.0659 0.7062
vn 0.9355 0.0498 0.3497
vn -0.3482 0.0488 -0.9362
vn -0.7049 0.0659 -0.7062
vn -0.9355 0.0498 -0.3497
vn 0.0445 0.9377 0.3446
vn 0.0643 0.7040 0.7073
vn 0.0466 0.3448 0.9375
vn 0.3431 0.9382 -0.0462
vn 0.7073 0.7040 -0.0643
vn 0.9375 0.3448 -0.0466
vn -0.0469 -0.8886 0.4563
vn -0.0464 -0.4373 0.8981
vn -0.3480 0.9362 0.0490
vn -0.7049 0.7063 0.0659
vn -0.9356 0.3497 0.0498
vn -0.0484 0.9366 -0.3470
vn -0.0626 0.7052 -0.7063
vn -0.0466 0.3448 -0.9375
vn 0.4584 -0.8875 0.0465
vn 0.9003 -0.4332 0.0417
vt 0.835994 0.082440
vt 0.836497 0.035216
vt 0.872486 0.087343
vt 0.501518 0.417586
vt 0.502009 0.370332
vt 0.538057 0.422547
vt 0.744874 0.501528
vt 0.697495 0.501028
vt 0.750963 0.465173
vt 0.251500 0.507421
vt 0.298738 0.508282
vt 0.246659 0.543133
vt 0.251942 0.169117
vt 0.299300 0.169416
vt 0.246762 0.206014
vt 0.502340 0.080092
vt 0.503033 0.032715
vt 0.538669 0.086329
vt 0.415384 0.200648
vt 0.413248 0.163504
vt 0.458818 0.204090
vt 0.412163 0.291655
vt 0.420165 0.244095
vt 0.455587 0.295492
vt 0.624309 0.253797
vt 0.575649 0.247951
vt 0.633240 0.170814
vt 0.493481 0.299209
vt 0.496160 0.252511
vt 0.532780 0.250649
vt 0.581175 0.093756
vt 0.630199 0.089477
vt 0.131948 0.083976
vt 0.168154 0.080922
vt 0.127446 0.126485
vt 0.040488 0.081192
vt 0.089314 0.089628
vt 0.035606 0.123705
vt 0.078009 0.291655
vt 0.085004 0.243989
vt 0.121433 0.295492
vt 0.030842 0.160713
vt 0.078251 0.163486
vt 0.081230 0.200648
vt 0.240337 0.249025
vt 0.243541 0.297021
vt 0.161091 0.299157
vt 0.131630 0.419984
vt 0.167556 0.418435
vt 0.127078 0.463821
vt 0.040301 0.416681
vt 0.089277 0.424213
vt 0.035373 0.460498
vt 0.078365 0.628628
vt 0.085404 0.579543
vt 0.160669 0.638411
vt 0.030543 0.498800
vt 0.077980 0.501286
vt 0.081289 0.537286
vt 0.240585 0.585029
vt 0.243735 0.634475
vt 0.865783 0.587993
vt 0.828648 0.590279
vt 0.869048 0.544545
vt 0.956803 0.590844
vt 0.909210 0.583034
vt 0.960463 0.547404
vt 0.918082 0.378853
vt 0.912434 0.427537
vt 0.874067 0.374431
vt 0.964025 0.509495
vt 0.917317 0.507007
vt 0.915306 0.470394
vt 0.758217 0.422637
vt 0.753739 0.373631
vt 0.833809 0.370192
vt 0.415220 0.537286
vt 0.412751 0.501320
vt 0.458445 0.541927
vt 0.412296 0.628628
vt 0.420336 0.579686
vt 0.455515 0.633645
vt 0.624110 0.591092
vt 0.575669 0.583951
vt 0.632468 0.509633
vt 0.493205 0.638551
vt 0.495822 0.591121
vt 0.532628 0.587931
vt 0.580763 0.428757
vt 0.629538 0.425708
vt 0.749620 0.202072
vt 0.747206 0.166167
vt 0.792905 0.206740
vt 0.746695 0.293378
vt 0.754686 0.244412
vt 0.789974 0.298421
vt 0.958580 0.255809
vt 0.910073 0.248642
vt 0.967046 0.173567
vt 0.421256 0.037968
vt 0.425779 0.087485
vt 0.374641 0.081192
vt 0.373330 0.032976
vt 0.827723 0.303354
vt 0.830317 0.255923
vt 0.867076 0.252678
vt 0.915149 0.093495
vt 0.963990 0.090475
vt 0.759842 0.086835
vt 0.755047 0.038126
vt 0.798534 0.036802
vt 0.751991 0.129592
vt 0.795460 0.128657
vt 0.425510 0.422062
vt 0.420677 0.373298
vt 0.464104 0.371947
vt 0.417600 0.464783
vt 0.461008 0.463820
vt 0.752579 0.578058
vt 0.703081 0.582783
vt 0.700413 0.539142
vt 0.793737 0.585704
vt 0.791433 0.542079
vt 0.246887 0.429785
vt 0.295608 0.425708
vt 0.297048 0.469750
vt 0.204126 0.422547
vt 0.205178 0.466582
vt 0.247079 0.094743
vt 0.296046 0.089477
vt 0.297538 0.132196
vt 0.204516 0.086329
vt 0.205623 0.129020
vt 0.464906 0.035478
vt 0.417966 0.128612
vt 0.461600 0.126485
vt 0.650669 0.327568
vt 0.646130 0.329838
vt 0.644349 0.322144
vt 0.339657 0.653607
vt 0.338322 0.648326
vt 0.343779 0.648562
vt 0.683027 0.010065
vt 0.689256 0.005665
vt 0.688469 0.012813
vt 0.991010 0.016760
vt 0.994919 0.023675
vt 0.989136 0.023819
vt 0.649908 0.663830
vt 0.644459 0.665146
vt 0.644361 0.659598
vt 0.982923 0.665073
vt 0.977673 0.665002
vt 0.977345 0.659422
vt 0.660054 0.018804
vt 0.662548 0.024581
vt 0.655530 0.023498
vt 0.014989 0.011269
vt 0.020672 0.008027
vt 0.020508 0.013239
vt 0.348260 0.342923
vt 0.352753 0.340616
vt 0.354138 0.347974
vt 0.656605 0.352015
vt 0.661836 0.359479
vt 0.654696 0.359047
vt 0.004714 0.318782
vt 0.003767 0.312224
vt 0.009394 0.311912
vt 0.674882 0.654657
vt 0.673410 0.649334
vt 0.678655 0.649456
vt 0.339193 0.317760
vt 0.337920 0.312224
vt 0.343501 0.311918
vt 0.675993 0.318731
vt 0.672671 0.313129
vt 0.678143 0.313310
vt 0.325820 0.352605
vt 0.328226 0.357168
vt 0.320766 0.359048
vt 0.992777 0.353504
vt 0.993741 0.358985
vt 0.986347 0.358535
vt 0.317423 0.661077
vt 0.310529 0.665146
vt 0.310453 0.659632
vt 0.984349 0.328481
vt 0.978985 0.329800
vt 0.978834 0.324279
vt 0.014330 0.342923
vt 0.018823 0.340616
vt 0.020207 0.347974
vt 0.325901 0.018804
vt 0.328395 0.024581
vt 0.321329 0.023500
vt 0.349142 0.011269
vt 0.354826 0.008027
vt 0.354682 0.013272
vt 0.682538 0.345970
vt 0.688712 0.341546
vt 0.687657 0.348569
vt 0.316515 0.327568
vt 0.311976 0.329837
vt 0.310217 0.322182
vt 0.005726 0.653607
vt 0.004391 0.648325
vt 0.009894 0.648558
vt 0.990273 0.376556
vt 0.992600 0.424205
vt 0.986370 0.423144
vt 0.987619 0.258605
vt 0.983970 0.306253
vt 0.983272 0.259431
vt 0.997481 0.376509
vt 0.960800 0.328385
vt 0.913166 0.327937
vt 0.914285 0.323850
vt 0.320841 0.593798
vt 0.315555 0.641558
vt 0.314878 0.594734
vt 0.322944 0.641711
vt 0.626304 0.325472
vt 0.578656 0.328027
vt 0.579741 0.321904
vt 0.679907 0.078461
vt 0.682440 0.030953
vt 0.684394 0.077695
vt 0.626330 0.333205
vt 0.985375 0.509910
vt 0.989733 0.509169
vt 0.981515 0.549708
vt 0.492904 0.659175
vt 0.493684 0.663290
vt 0.453274 0.654282
vt 0.838568 0.009875
vt 0.837527 0.014094
vt 0.797636 0.015731
vt 0.010074 0.160778
vt 0.005915 0.161669
vt 0.014873 0.121705
vt 0.504130 0.345023
vt 0.503077 0.349234
vt 0.463232 0.350888
vt 0.827388 0.323941
vt 0.828157 0.328045
vt 0.787712 0.319034
vt 0.324070 0.509806
vt 0.319852 0.508903
vt 0.318112 0.468618
vt 0.492979 0.320557
vt 0.493703 0.324918
vt 0.453197 0.316535
vt 0.075625 0.657260
vt 0.159704 0.663288
vt 0.159176 0.667181
vt 0.751849 0.348780
vt 0.836092 0.344874
vt 0.836636 0.349262
vt 0.074794 0.653107
vt 0.160618 0.659061
vt 0.996171 0.508789
vt 0.992513 0.174574
vt 0.996656 0.174959
vt 0.988154 0.173654
vt 0.578734 0.663258
vt 0.494218 0.667219
vt 0.923637 0.013271
vt 0.839409 0.003913
vt 0.579838 0.659157
vt 0.924252 0.019243
vt 0.324468 0.171946
vt 0.326798 0.089293
vt 0.330491 0.172254
vt 0.011682 0.413442
vt 0.005834 0.498505
vt 0.001957 0.497838
vt 0.320592 0.087700
vt 0.318539 0.131550
vt 0.016129 0.412877
vt 0.014745 0.457892
vt 0.005683 0.246884
vt 0.001914 0.162397
vt 0.589251 0.348506
vt 0.505005 0.339086
vt 0.009839 0.247830
vt 0.589839 0.354459
vt 0.828672 0.331957
vt 0.330023 0.510249
vt 0.504988 0.008697
vt 0.419970 0.008437
vt 0.504830 0.003392
vt 0.419328 0.013913
vt 0.464002 0.015093
vt 0.255753 0.013772
vt 0.256395 0.019464
vt 0.211726 0.015483
vt 0.658622 0.171946
vt 0.660834 0.089291
vt 0.664648 0.172235
vt 0.655058 0.087688
vt 0.654231 0.172473
vt 0.345594 0.413604
vt 0.350059 0.412877
vt 0.346354 0.457614
vt 0.673470 0.499170
vt 0.674821 0.583782
vt 0.669773 0.499515
vt 0.075148 0.322640
vt 0.159500 0.324916
vt 0.158924 0.331151
vt 0.679034 0.584808
vt 0.680031 0.540130
vt 0.074305 0.316352
vt 0.160466 0.320476
vt 0.344301 0.247801
vt 0.339838 0.246934
vt 0.343768 0.202894
vt 0.255302 0.348528
vt 0.255864 0.354770
vt 0.211112 0.351379
vt 0.494058 0.331183
vt 0.680725 0.122444
vt 0.654771 0.593798
vt 0.658001 0.509806
vt 0.663954 0.510249
vt 0.913225 0.658883
vt 0.912326 0.663351
vt 0.868321 0.659598
vt 0.648809 0.594734
vt 0.653633 0.508877
vt 0.968129 0.353023
vt 0.986329 0.350257
vt 0.292376 0.663180
vt 0.922773 0.348398
vt 0.969092 0.346142
vt 0.682037 0.366768
vt 0.292152 0.325436
vt 0.292176 0.333205
vt 0.245721 0.328037
vt 0.696517 0.655346
vt 0.680461 0.655737
vt 0.658131 0.377131
vt 0.665564 0.376971
vt 0.660325 0.423375
vt 0.170273 0.009517
vt 0.169814 0.032839
vt 0.130753 0.035478
vt 0.340599 0.499119
vt 0.364527 0.499729
vt 0.366740 0.538605
vt 0.365041 0.161661
vt 0.340948 0.161105
vt 0.369760 0.123705
vt 0.169588 0.345872
vt 0.169017 0.370435
vt 0.130174 0.371947
vt 0.674999 0.163959
vt 0.698981 0.164601
vt 0.701156 0.203428
vt 0.827001 0.638493
vt 0.826543 0.662588
vt 0.789026 0.633930
vt 0.252634 0.043334
vt 0.300560 0.041449
vt 0.252115 0.379145
vt 0.299860 0.378142
vt 0.746494 0.629221
vt 0.698283 0.630728
vt 0.374232 0.416681
vt 0.372664 0.368910
vt 0.708591 0.081505
vt 0.707049 0.033775
vt 0.920476 0.043935
vt 0.831604 0.211247
vt 0.871033 0.209484
vt 0.832791 0.169626
vt 0.874840 0.170874
vt 0.919947 0.172230
vt 0.703182 0.246839
vt 0.586046 0.379145
vt 0.497084 0.546407
vt 0.536544 0.544689
vt 0.498246 0.504749
vt 0.540310 0.506031
vt 0.585430 0.507421
vt 0.368803 0.582065
vt 0.707773 0.417230
vt 0.872183 0.505686
vt 0.871264 0.466358
vt 0.830086 0.504462
vt 0.831779 0.462467
vt 0.833558 0.417411
vt 0.910837 0.634442
vt 0.866641 0.636395
vt 0.290180 0.591092
vt 0.122676 0.503072
vt 0.124514 0.541927
vt 0.164315 0.504749
vt 0.163154 0.546407
vt 0.161892 0.591121
vt 0.086746 0.373298
vt 0.290156 0.253797
vt 0.123108 0.164438
vt 0.124665 0.204090
vt 0.164905 0.165291
vt 0.163510 0.207383
vt 0.162006 0.252511
vt 0.087102 0.037968
vt 0.586788 0.043334
vt 0.497663 0.207383
vt 0.536995 0.206624
vt 0.499059 0.165291
vt 0.541047 0.167154
vt 0.586095 0.169117
vt 0.368751 0.245513
vt 0.366978 0.201309
vt 0.364030 0.292445
vt 0.625413 0.300919
vt 0.577695 0.297021
vt 0.634714 0.041449
vt 0.539777 0.129020
vt 0.500645 0.124210
vt 0.039177 0.032976
vt 0.029876 0.292445
vt 0.034598 0.245513
vt 0.291260 0.300919
vt 0.202841 0.206624
vt 0.206894 0.167154
vt 0.038733 0.368910
vt 0.030161 0.630060
vt 0.034873 0.582065
vt 0.291288 0.639292
vt 0.202614 0.544689
vt 0.206379 0.506031
vt 0.957789 0.638973
vt 0.965199 0.377557
vt 0.961495 0.425291
vt 0.705693 0.369312
vt 0.793649 0.463892
vt 0.788999 0.503043
vt 0.364092 0.630060
vt 0.625219 0.639292
vt 0.577665 0.634475
vt 0.633790 0.378142
vt 0.539108 0.466582
vt 0.499832 0.462696
vt 0.698507 0.294846
vt 0.959727 0.304020
vt 0.912124 0.299188
vt 0.968270 0.042949
vt 0.873588 0.131401
vt 0.834343 0.127561
vt 0.703711 0.125345
vt 0.369304 0.460498
vt 0.208274 0.374709
vt 0.208930 0.038012
vt 0.752951 0.342590
vt 0.705221 0.346757
vt 0.705766 0.339488
vt 0.652627 0.322160
vt 0.345421 0.654760
vt 0.684320 0.005237
vt 0.652770 0.658862
vt 0.985999 0.658762
vt 0.985241 0.664346
vt 0.655090 0.015979
vt 0.660805 0.017310
vt 0.347950 0.349302
vt 0.010009 0.320610
vt 0.661204 0.352988
vt 0.344126 0.320575
vt 0.338545 0.319795
vt 0.320451 0.350675
vt 0.992218 0.351282
vt 0.985289 0.322726
vt 0.014019 0.349302
vt 0.320936 0.015979
vt 0.326651 0.017310
vt 0.318473 0.322160
vt 0.011490 0.654760
vt 0.684022 0.341218
vt 0.028044 0.652219
vt 0.027793 0.657556
vt 0.626250 0.661562
vt 0.626439 0.666915
vt 0.970742 0.020416
vt 0.971398 0.013032
vt 0.323705 0.041075
vt 0.330384 0.041643
vt 0.016013 0.366301
vt 0.011258 0.365811
vt 0.007493 0.293740
vt 0.002063 0.294137
vt 0.636291 0.355625
vt 0.636982 0.348266
vt 0.372629 0.010574
vt 0.372778 0.004585
vt 0.303079 0.019152
vt 0.303601 0.013175
vt 0.657271 0.041069
vt 0.664537 0.041643
vt 0.349944 0.366301
vt 0.345188 0.365811
vt 0.675884 0.631521
vt 0.671342 0.631488
vt 0.027589 0.315102
vt 0.027220 0.322757
vt 0.341067 0.293777
vt 0.336217 0.294137
vt 0.302423 0.355036
vt 0.303052 0.348266
vt 0.959214 0.661930
vt 0.959593 0.666779
vt 0.647752 0.641479
vt 0.655125 0.641732
vt 0.836523 0.339281
vt 0.921911 0.354116
vt 0.245913 0.659224
vt 0.246135 0.663201
vt 0.987632 0.594787
vt 0.981154 0.594403
vt 0.988938 0.088349
vt 0.993118 0.088131
vt 0.408453 0.657134
vt 0.408767 0.652758
vt 0.753097 0.013591
vt 0.753181 0.007323
vt 0.320591 0.258613
vt 0.314877 0.257727
vt 0.320185 0.171791
vt 0.010141 0.583965
vt 0.006172 0.583959
vt 0.011849 0.077690
vt 0.016285 0.077839
vt 0.009988 0.498896
vt 0.418745 0.348768
vt 0.418858 0.342521
vt 0.742823 0.321850
vt 0.743153 0.317490
vt 0.320136 0.423631
vt 0.326395 0.423375
vt 0.591132 0.013977
vt 0.590601 0.019102
vt 0.504971 0.012728
vt 0.085177 0.013957
vt 0.085197 0.008409
vt 0.171398 0.003579
vt 0.654744 0.258613
vt 0.649030 0.257727
vt 0.344489 0.583943
vt 0.340103 0.583958
vt 0.335886 0.497812
vt 0.679753 0.413092
vt 0.683525 0.413515
vt 0.677500 0.499171
vt 0.245592 0.321973
vt 0.336067 0.162397
vt 0.346002 0.077690
vt 0.350438 0.077839
vt 0.084815 0.348768
vt 0.084927 0.342521
vt 0.171074 0.339086
vt 0.408094 0.322468
vt 0.408505 0.315991
vt 0.678844 0.248709
vt 0.674439 0.248712
vt 0.670257 0.162529
vt 0.827855 0.667464
vt 0.743109 0.657874
vt 0.743239 0.653437
vt 0.654494 0.423599
vt 0.980973 0.641209
vt 0.988111 0.641505
vt 0.990878 0.041961
vt 0.996507 0.041777
vt 0.361936 0.652715
vt 0.361724 0.657556
vt 0.706365 0.010618
vt 0.706588 0.003732
vt 0.313696 0.303666
vt 0.320956 0.304680
vt 0.007918 0.630663
vt 0.002568 0.630551
vt 0.016405 0.031115
vt 0.011491 0.031100
vt 0.372011 0.345768
vt 0.372266 0.338906
vt 0.696325 0.317472
vt 0.696093 0.322295
vt 0.323008 0.377161
vt 0.329884 0.376993
vt 0.637172 0.019715
vt 0.637755 0.013175
vt 0.038477 0.010649
vt 0.038625 0.004585
vt 0.647850 0.303666
vt 0.655109 0.304680
vt 0.341344 0.630668
vt 0.336499 0.630551
vt 0.350559 0.031115
vt 0.345645 0.031100
vt 0.038081 0.345769
vt 0.038336 0.338906
vt 0.361699 0.315620
vt 0.361374 0.322757
vt 0.675722 0.295436
vt 0.670856 0.295304
s 1
usemtl ottoman
f 7/1/7 49/2/49 150/3/150
f 11/4/11 52/5/52 140/6/140
f 15/7/15 55/8/55 130/9/130
f 19/10/19 58/11/58 120/12/120
f 23/13/23 61/14/61 110/15/110
f 27/16/27 64/17/64 100/18/100
f 91/19/91 30/20/30 187/21/187
f 92/22/92 31/23/31 188/24/188
f 95/25/95 32/26/32 66/27/66
f 88/28/88 28/29/28 96/30/96
f 98/31/98 99/32/99 66/27/66
f 101/33/101 26/34/26 193/35/193
f 102/36/102 33/37/33 194/38/194
f 105/39/105 34/40/34 196/41/196
f 84/42/84 24/43/24 106/44/106
f 108/45/108 109/46/109 63/47/63
f 111/48/111 22/49/22 200/50/200
f 112/51/112 35/52/35 201/53/201
f 115/54/115 36/55/36 60/56/60
f 80/57/80 20/58/20 116/59/116
f 118/60/118 119/61/119 60/56/60
f 121/62/121 18/63/18 206/64/206
f 122/65/122 37/66/37 207/67/207
f 125/68/125 38/69/38 209/70/209
f 76/71/76 16/72/16 126/73/126
f 128/74/128 129/75/129 57/76/57
f 131/77/131 14/78/14 213/79/213
f 132/80/132 39/81/39 214/82/214
f 135/83/135 40/84/40 54/85/54
f 72/86/72 12/87/12 136/88/136
f 138/89/138 139/90/139 54/85/54
f 141/91/141 10/92/10 219/93/219
f 142/94/142 41/95/41 220/96/220
f 145/97/145 42/98/42 51/99/51
f 166/100/166 48/101/48 168/102/168 169/103/169
f 68/104/68 8/105/8 146/106/146
f 148/107/148 149/108/149 51/99/51
f 43/109/43 151/110/151 225/111/225
f 10/92/10 152/112/152 226/113/226
f 44/114/44 154/115/154 228/116/228
f 14/78/14 155/117/155 229/118/229
f 45/119/45 157/120/157 231/121/231
f 18/63/18 158/122/158 232/123/232
f 46/124/46 160/125/160 234/126/234
f 22/49/22 161/127/161 235/128/235
f 47/129/47 163/130/163 237/131/237
f 26/34/26 164/132/164 238/133/238
f 48/101/48 166/100/166 240/134/240
f 30/20/30 167/135/167 241/136/241
f 248/137/248 245/138/245 244/139/244
f 248/140/248 243/141/243 247/142/247
f 245/143/245 246/144/246 249/145/249
f 250/146/250 252/147/252 251/148/251
f 256/149/256 250/150/250 254/151/254
f 256/152/256 253/153/253 255/154/255
f 259/155/259 260/156/260 258/157/258
f 261/158/261 257/159/257 262/160/262
f 259/161/259 261/162/261 263/163/263
f 264/164/264 266/165/266 265/166/265
f 270/167/270 264/168/264 268/169/268
f 270/170/270 267/171/267 269/172/269
f 273/173/273 274/174/274 272/175/272
f 275/176/275 271/177/271 276/178/276
f 273/179/273 275/180/275 277/181/277
f 280/182/280 281/183/281 279/184/279
f 282/185/282 278/186/278 283/187/283
f 280/188/280 282/189/282 284/190/284
f 290/191/290 287/192/287 286/193/286
f 290/194/290 285/195/285 289/196/289
f 287/197/287 288/198/288 291/199/291
f 292/200/292 294/201/294 293/202/293
f 298/203/298 292/204/292 296/205/296
f 298/206/298 295/207/295 297/208/297
f 396/209/396 325/210/325 326/211/326
f 325/212/325 397/213/397 324/214/324
f 396/209/396 281/183/281 397/215/397
f 407/216/407 337/217/337 338/218/338
f 337/219/337 408/220/408 336/221/336
f 407/222/407 282/185/282 408/220/408
f 421/223/421 352/224/352 353/225/353
f 352/226/352 422/227/422 351/228/351
f 245/138/245 422/229/422 421/223/421
f 300/230/300 445/231/445 427/232/427
f 302/233/302 448/234/448 428/235/428
f 449/236/449 447/237/447 429/238/429
f 306/239/306 455/240/455 431/241/431
f 456/242/456 454/243/454 432/244/432
f 308/245/308 458/246/458 433/247/433
f 459/248/459 457/249/457 434/250/434
f 317/251/317 471/252/471 439/253/439
f 322/254/322 443/255/443 299/256/299
f 323/257/323 442/258/442 426/259/426
f 322/254/322 321/260/321 443/255/443
f 443/255/443 321/260/321 441/261/441
f 445/231/445 325/210/325 301/262/301
f 325/212/325 446/263/446 301/264/301
f 326/211/326 445/231/445 300/230/300
f 326/211/326 325/210/325 445/231/445
f 325/212/325 324/214/324 446/263/446
f 446/263/446 324/214/324 444/265/444
f 448/234/448 328/266/328 303/267/303
f 328/268/328 449/236/449 303/269/303
f 329/270/329 448/234/448 302/233/302
f 329/270/329 328/266/328 448/234/448
f 328/268/328 327/271/327 449/236/449
f 449/236/449 327/271/327 447/237/447
f 452/272/452 331/273/331 305/274/305
f 331/275/331 453/276/453 305/277/305
f 332/278/332 452/272/452 450/279/450
f 332/278/332 331/273/331 452/272/452
f 331/275/331 330/280/330 453/276/453
f 453/276/453 330/280/330 451/281/451
f 455/240/455 334/282/334 307/283/307
f 334/284/334 456/242/456 307/285/307
f 335/286/335 455/240/455 306/239/306
f 335/286/335 334/282/334 455/240/455
f 334/284/334 333/287/333 456/242/456
f 456/242/456 333/287/333 454/243/454
f 458/246/458 337/217/337 309/288/309
f 337/219/337 459/248/459 309/289/309
f 338/218/338 458/246/458 308/245/308
f 338/218/338 337/217/337 458/246/458
f 337/219/337 336/221/336 459/248/459
f 459/248/459 336/221/336 457/249/457
f 461/290/461 340/291/340 310/292/310
f 341/293/341 461/290/461 460/294/460
f 341/293/341 340/291/340 461/290/461
f 340/295/340 339/296/339 462/297/462
f 463/298/463 343/299/343 312/300/312
f 344/301/344 463/298/463 436/302/436
f 344/301/344 343/299/343 463/298/463
f 343/303/343 342/304/342 464/305/464
f 467/306/467 346/307/346 314/308/314
f 346/309/346 468/310/468 314/311/314
f 347/312/347 467/306/467 465/313/465
f 347/312/347 346/307/346 467/306/467
f 346/309/346 345/314/345 468/310/468
f 468/310/468 345/314/345 466/315/466
f 350/316/350 349/317/349 469/318/469
f 349/319/349 348/320/348 470/321/470
f 471/252/471 352/224/352 318/322/318
f 353/225/353 471/252/471 317/251/317
f 353/225/353 352/224/352 471/252/471
f 352/226/352 351/228/351 472/323/472
f 355/324/355 475/325/475 320/326/320
f 356/327/356 355/328/355 473/329/473
f 355/324/355 354/330/354 475/325/475
f 475/325/475 354/330/354 474/331/474
f 476/332/476 278/333/278 279/184/279
f 278/186/278 477/334/477 283/187/283
f 476/332/476 358/335/358 477/336/477
f 499/337/499 292/200/292 293/202/293
f 292/204/292 500/338/500 296/205/296
f 499/339/499 382/340/382 500/338/500
f 507/341/507 266/342/266 269/172/269
f 266/165/266 508/343/508 265/166/265
f 507/344/507 391/345/391 508/343/508
f 311/346/311 86/347/86 184/348/184
f 313/349/313 74/350/74 178/351/178
f 90/352/90 438/353/438 242/354/242
f 316/355/316 82/356/82 182/357/182
f 319/358/319 70/359/70 176/360/176
f 78/361/78 440/362/440 233/363/233
f 163/130/163 47/129/47 165/364/165 170/365/170
f 160/125/160 46/124/46 162/366/162 171/367/171
f 157/120/157 45/119/45 159/368/159 172/369/172
f 154/115/154 44/114/44 156/370/156 173/371/173
f 151/110/151 43/109/43 153/372/153 174/373/174
f 147/374/147 148/107/148 150/3/150 49/2/49
f 50/375/50 175/376/175 146/106/146 8/105/8
f 42/98/42 146/106/146 175/376/175
f 1/377/1 69/378/69 175/376/175 50/375/50
f 69/378/69 9/379/9 42/98/42 175/376/175
f 141/91/141 41/95/41 143/380/143 176/360/176
f 10/92/10 141/91/141 176/360/176 70/359/70
f 137/381/137 138/89/138 140/6/140 52/5/52
f 53/382/53 177/383/177 136/88/136 12/87/12
f 40/84/40 136/88/136 177/383/177
f 2/384/2 73/385/73 177/383/177 53/382/53
f 73/385/73 13/386/13 40/84/40 177/383/177
f 131/77/131 39/81/39 133/387/133 178/351/178
f 14/78/14 131/77/131 178/351/178 74/350/74
f 127/388/127 128/74/128 130/9/130 55/8/55
f 56/389/56 179/390/179 126/73/126 16/72/16
f 38/69/38 126/73/126 179/390/179
f 3/391/3 77/392/77 179/390/179 56/389/56
f 77/392/77 17/393/17 38/69/38 179/390/179
f 121/62/121 37/66/37 123/394/123 180/395/180
f 18/63/18 121/62/121 180/395/180 78/361/78
f 117/396/117 118/60/118 120/12/120 58/11/58
f 59/397/59 181/398/181 116/59/116 20/58/20
f 36/55/36 116/59/116 181/398/181
f 4/399/4 81/400/81 181/398/181 59/397/59
f 81/400/81 21/401/21 36/55/36 181/398/181
f 111/48/111 35/52/35 113/402/113 182/357/182
f 22/49/22 111/48/111 182/357/182 82/356/82
f 107/403/107 108/45/108 110/15/110 61/14/61
f 62/404/62 183/405/183 106/44/106 24/43/24
f 34/40/34 106/44/106 183/405/183
f 5/406/5 85/407/85 183/405/183 62/404/62
f 85/407/85 25/408/25 34/40/34 183/405/183
f 101/33/101 33/37/33 103/409/103 184/348/184
f 26/34/26 101/33/101 184/348/184 86/347/86
f 97/410/97 98/31/98 100/18/100 64/17/64
f 65/411/65 185/412/185 96/30/96 28/29/28
f 32/26/32 96/30/96 185/412/185
f 6/413/6 89/414/89 185/412/185 65/411/65
f 89/414/89 29/415/29 32/26/32 185/412/185
f 91/19/91 31/23/31 93/416/93 186/417/186
f 30/20/30 91/19/91 186/417/186 90/352/90
f 65/411/65 28/29/28 31/23/31 187/21/187
f 6/413/6 65/411/65 187/21/187 30/20/30
f 31/23/31 91/19/91 187/21/187
f 28/29/28 88/28/88 188/24/188 31/23/31
f 93/416/93 31/23/31 92/22/92 189/418/189
f 95/25/95 190/419/190 94/420/94 32/26/32
f 66/27/66 32/26/32 29/415/29
f 96/30/96 32/26/32 94/420/94 88/28/88
f 97/410/97 191/421/191 99/32/99 98/31/98
f 98/31/98 29/415/29 89/414/89 192/422/192
f 29/415/29 98/31/98 66/27/66
f 192/422/192 89/414/89 6/413/6 87/423/87
f 100/18/100 192/422/192 87/423/87 27/16/27
f 62/404/62 24/43/24 33/37/33 193/35/193
f 192/422/192 100/18/100 98/31/98
f 5/406/5 62/404/62 193/35/193 26/34/26
f 33/37/33 101/33/101 193/35/193
f 24/43/24 84/42/84 194/38/194 33/37/33
f 103/409/103 33/37/33 102/36/102 195/424/195
f 25/408/25 63/47/63 196/41/196 34/40/34
f 105/39/105 197/425/197 104/426/104 34/40/34
f 106/44/106 34/40/34 104/426/104 84/42/84
f 107/403/107 198/427/198 109/46/109 108/45/108
f 108/45/108 25/408/25 85/407/85 199/428/199
f 25/408/25 108/45/108 63/47/63
f 199/428/199 85/407/85 5/406/5 83/429/83
f 110/15/110 199/428/199 83/429/83 23/13/23
f 59/397/59 20/58/20 35/52/35 200/50/200
f 199/428/199 110/15/110 108/45/108
f 4/399/4 59/397/59 200/50/200 22/49/22
f 35/52/35 111/48/111 200/50/200
f 20/58/20 80/57/80 201/53/201 35/52/35
f 113/402/113 35/52/35 112/51/112 202/430/202
f 115/54/115 203/431/203 114/432/114 36/55/36
f 60/56/60 36/55/36 21/401/21
f 116/59/116 36/55/36 114/432/114 80/57/80
f 117/396/117 204/433/204 119/61/119 118/60/118
f 118/60/118 21/401/21 81/400/81 205/434/205
f 21/401/21 118/60/118 60/56/60
f 205/434/205 81/400/81 4/399/4 79/435/79
f 120/12/120 205/434/205 79/435/79 19/10/19
f 56/389/56 16/72/16 37/66/37 206/64/206
f 205/434/205 120/12/120 118/60/118
f 3/391/3 56/389/56 206/64/206 18/63/18
f 37/66/37 121/62/121 206/64/206
f 16/72/16 76/71/76 207/67/207 37/66/37
f 123/394/123 37/66/37 122/65/122 208/436/208
f 17/393/17 57/76/57 209/70/209 38/69/38
f 125/68/125 210/437/210 124/438/124 38/69/38
f 126/73/126 38/69/38 124/438/124 76/71/76
f 127/388/127 211/439/211 129/75/129 128/74/128
f 128/74/128 17/393/17 77/392/77 212/440/212
f 17/393/17 128/74/128 57/76/57
f 212/440/212 77/392/77 3/391/3 75/441/75
f 130/9/130 212/440/212 75/441/75 15/7/15
f 53/382/53 12/87/12 39/81/39 213/79/213
f 212/440/212 130/9/130 128/74/128
f 2/384/2 53/382/53 213/79/213 14/78/14
f 39/81/39 131/77/131 213/79/213
f 12/87/12 72/86/72 214/82/214 39/81/39
f 133/387/133 39/81/39 132/80/132 215/442/215
f 135/83/135 216/443/216 134/444/134 40/84/40
f 54/85/54 40/84/40 13/386/13
f 136/88/136 40/84/40 134/444/134 72/86/72
f 137/381/137 217/445/217 139/90/139 138/89/138
f 138/89/138 13/386/13 73/385/73 218/446/218
f 13/386/13 138/89/138 54/85/54
f 218/446/218 73/385/73 2/384/2 71/447/71
f 140/6/140 218/446/218 71/447/71 11/4/11
f 50/375/50 8/105/8 41/95/41 219/93/219
f 218/446/218 140/6/140 138/89/138
f 1/377/1 50/375/50 219/93/219 10/92/10
f 41/95/41 141/91/141 219/93/219
f 8/105/8 68/104/68 220/96/220 41/95/41
f 143/380/143 41/95/41 142/94/142 221/448/221
f 145/97/145 222/449/222 144/450/144 42/98/42
f 51/99/51 42/98/42 9/379/9
f 146/106/146 42/98/42 144/450/144 68/104/68
f 147/374/147 223/451/223 149/108/149 148/107/148
f 148/107/148 9/379/9 69/378/69 224/452/224
f 9/379/9 148/107/148 51/99/51
f 224/452/224 69/378/69 1/377/1 67/453/67
f 150/3/150 224/452/224 67/453/67 7/1/7
f 225/111/225 49/2/49 7/1/7 43/109/43
f 224/452/224 150/3/150 148/107/148
f 226/113/226 67/453/67 1/377/1 10/92/10
f 43/109/43 7/1/7 67/453/67 226/113/226
f 226/113/226 152/112/152 43/109/43
f 227/454/227 152/112/152 10/92/10 70/359/70
f 153/372/153 43/109/43 152/112/152 227/454/227
f 228/116/228 52/5/52 11/4/11 44/114/44
f 229/118/229 71/447/71 2/384/2 14/78/14
f 44/114/44 11/4/11 71/447/71 229/118/229
f 229/118/229 155/117/155 44/114/44
f 230/455/230 155/117/155 14/78/14 74/350/74
f 156/370/156 44/114/44 155/117/155 230/455/230
f 231/121/231 55/8/55 15/7/15 45/119/45
f 232/123/232 75/441/75 3/391/3 18/63/18
f 45/119/45 15/7/15 75/441/75 232/123/232
f 232/123/232 158/122/158 45/119/45
f 233/363/233 158/122/158 18/63/18 78/361/78
f 159/368/159 45/119/45 158/122/158 233/363/233
f 234/126/234 58/11/58 19/10/19 46/124/46
f 235/128/235 79/435/79 4/399/4 22/49/22
f 46/124/46 19/10/19 79/435/79 235/128/235
f 235/128/235 161/127/161 46/124/46
f 236/456/236 161/127/161 22/49/22 82/356/82
f 162/366/162 46/124/46 161/127/161 236/456/236
f 237/131/237 61/14/61 23/13/23 47/129/47
f 238/133/238 83/429/83 5/406/5 26/34/26
f 47/129/47 23/13/23 83/429/83 238/133/238
f 238/133/238 164/132/164 47/129/47
f 239/457/239 164/132/164 26/34/26 86/347/86
f 165/364/165 47/129/47 164/132/164 239/457/239
f 240/134/240 64/17/64 27/16/27 48/101/48
f 241/136/241 87/423/87 6/413/6 30/20/30
f 48/101/48 27/16/27 87/423/87 241/136/241
f 241/136/241 167/135/167 48/101/48
f 242/354/242 167/135/167 30/20/30 90/352/90
f 168/102/168 48/101/48 167/135/167 242/354/242
f 322/458/322 323/257/323 393/459/393 394/460/394
f 243/461/243 248/137/248 244/139/244
f 246/462/246 248/140/248 247/142/247
f 246/144/246 245/143/245 248/463/248
f 253/464/253 256/149/256 254/151/254
f 252/465/252 256/152/256 255/154/255
f 252/465/252 250/466/250 256/152/256
f 257/467/257 259/155/259 258/157/258
f 257/467/257 261/468/261 259/155/259
f 260/469/260 259/161/259 263/163/263
f 267/470/267 270/167/270 268/169/268
f 266/342/266 270/170/270 269/172/269
f 266/165/266 264/164/264 270/471/270
f 271/472/271 273/173/273 272/175/272
f 271/472/271 275/473/275 273/173/273
f 274/474/274 273/179/273 277/181/277
f 278/333/278 280/182/280 279/184/279
f 278/333/278 282/475/282 280/182/280
f 281/476/281 280/188/280 284/190/284
f 285/477/285 290/191/290 286/193/286
f 288/478/288 290/194/290 289/196/289
f 288/478/288 287/479/287 290/194/290
f 295/480/295 298/203/298 296/205/296
f 294/481/294 298/206/298 297/208/297
f 294/201/294 292/200/292 298/482/298
f 395/483/395 321/260/321 322/254/322 394/484/394
f 294/201/294 394/460/394 393/459/393 293/202/293
f 395/483/395 394/484/394 294/481/294 297/208/297
f 328/266/328 329/270/329 398/485/398 399/486/399
f 396/209/396 397/215/397 325/210/325
f 396/209/396 279/184/279 281/183/281
f 281/476/281 284/190/284 397/213/397
f 400/487/400 327/271/327 328/268/328 399/488/399
f 250/150/250 399/486/399 398/485/398 254/151/254
f 400/487/400 399/488/399 250/146/250 251/148/251
f 331/273/331 332/278/332 401/489/401 402/490/402
f 403/491/403 330/280/330 331/275/331 402/492/402
f 285/195/285 402/490/402 401/489/401 289/196/289
f 403/491/403 402/492/402 285/477/285 286/193/286
f 334/282/334 335/286/335 404/493/404 405/494/405
f 406/495/406 333/287/333 334/284/334 405/496/405
f 264/168/264 405/494/405 404/493/404 268/169/268
f 406/495/406 405/496/405 264/164/264 265/166/265
f 340/291/340 341/293/341 409/497/409 410/498/410
f 407/222/407 408/220/408 337/219/337
f 407/216/407 284/190/284 282/189/282
f 282/185/282 283/187/283 408/220/408
f 411/499/411 339/296/339 340/295/340 410/500/410
f 288/198/288 410/498/410 409/497/409 291/199/291
f 411/499/411 410/500/410 288/478/288 289/196/289
f 343/299/343 344/301/344 412/501/412 413/502/413
f 414/503/414 342/304/342 343/303/343 413/504/413
f 260/156/260 413/502/413 412/501/412 258/157/258
f 414/503/414 413/504/413 260/469/260 263/163/263
f 346/307/346 347/312/347 415/505/415 416/506/416
f 417/507/417 345/314/345 346/309/346 416/508/416
f 267/171/267 416/506/416 415/505/415 269/172/269
f 417/507/417 416/508/416 267/470/267 268/169/268
f 349/317/349 350/316/350 418/509/418 419/510/419
f 420/511/420 348/320/348 349/319/349 419/512/419
f 274/174/274 419/510/419 418/509/418 272/175/272
f 420/511/420 419/512/419 274/474/274 277/181/277
f 355/328/355 356/327/356 423/513/423 424/514/424
f 352/224/352 421/223/421 422/229/422
f 421/223/421 244/139/244 245/138/245
f 245/143/245 249/145/249 422/227/422
f 425/515/425 354/330/354 355/324/355 424/516/424
f 253/153/253 424/514/424 423/513/423 255/154/255
f 425/515/425 424/516/424 253/464/253 254/151/254
f 299/517/299 358/335/358 359/518/359 442/258/442
f 359/518/359 426/259/426 442/258/442
f 357/519/357 358/520/358 299/256/299 443/255/443
f 301/262/301 361/521/361 362/522/362 445/231/445
f 443/255/443 441/261/441 357/519/357
f 362/522/362 427/232/427 445/231/445
f 360/523/360 361/524/361 301/264/301 446/263/446
f 303/267/303 364/525/364 365/526/365 448/234/448
f 446/263/446 444/265/444 360/523/360
f 365/526/365 428/235/428 448/234/448
f 363/527/363 364/528/364 303/269/303 449/236/449
f 305/274/305 367/529/367 368/530/368 452/272/452
f 449/236/449 429/238/429 363/527/363
f 368/530/368 430/531/430 452/272/452
f 366/532/366 367/533/367 305/277/305 453/276/453
f 307/283/307 370/534/370 371/535/371 455/240/455
f 453/276/453 304/536/304 366/532/366
f 371/535/371 431/241/431 455/240/455
f 369/537/369 370/538/370 307/285/307 456/242/456
f 309/288/309 373/539/373 374/540/374 458/246/458
f 456/242/456 432/244/432 369/537/369
f 374/540/374 433/247/433 458/246/458
f 372/541/372 373/542/373 309/289/309 459/248/459
f 310/292/310 376/543/376 377/544/377 461/290/461
f 459/248/459 434/250/434 372/541/372
f 377/544/377 435/545/435 461/290/461
f 375/546/375 376/547/376 310/548/310 311/346/311
f 312/300/312 379/549/379 380/550/380 463/298/463
f 380/550/380 436/302/436 463/298/463
f 378/551/378 379/552/379 312/553/312 313/349/313
f 314/308/314 382/554/382 383/555/383 467/306/467
f 383/555/383 437/556/437 467/306/467
f 381/557/381 382/340/382 314/311/314 468/310/468
f 315/558/315 385/559/385 386/560/386 438/353/438
f 468/310/468 466/315/466 381/557/381
f 384/561/384 385/562/385 315/563/315 316/355/316
f 318/322/318 388/564/388 389/565/389 471/252/471
f 389/565/389 439/253/439 471/252/471
f 387/566/387 388/567/388 318/568/318 319/358/319
f 320/569/320 391/570/391 392/571/392 440/362/440
f 390/572/390 391/345/391 320/326/320 475/325/475
f 299/517/299 442/258/442 323/257/323 322/458/322
f 475/325/475 474/331/474 390/572/390
f 311/346/311 310/548/310 340/295/340 462/297/462
f 430/531/430 450/279/450 452/272/452
f 453/276/453 451/281/451 304/536/304
f 435/545/435 460/294/460 461/290/461
f 313/349/313 312/553/312 343/303/343 464/305/464
f 349/317/349 315/558/315 438/353/438 469/318/469
f 437/556/437 465/313/465 467/306/467
f 316/355/316 315/563/315 349/319/349 470/321/470
f 319/358/319 318/568/318 352/226/352 472/323/472
f 355/328/355 320/569/320 440/362/440 473/329/473
f 252/465/252 255/154/255 478/573/478 479/574/479
f 476/332/476 477/336/477 278/333/278
f 476/332/476 359/518/359 358/335/358
f 358/520/358 357/519/357 477/334/477
f 480/575/480 251/148/251 252/147/252 479/576/479
f 361/521/361 479/574/479 478/573/478 362/522/362
f 480/575/480 479/576/479 361/524/361 360/523/360
f 246/462/246 247/142/247 481/577/481 482/578/482
f 483/579/483 249/145/249 246/144/246 482/580/482
f 364/525/364 482/578/482 481/577/481 365/526/365
f 483/579/483 482/580/482 364/528/364 363/527/363
f 295/480/295 296/205/296 484/581/484 485/582/485
f 486/583/486 297/208/297 295/207/295 485/584/485
f 367/529/367 485/582/485 484/581/484 368/530/368
f 486/583/486 485/584/485 367/533/367 366/532/366
f 261/158/261 262/160/262 487/585/487 488/586/488
f 489/587/489 263/163/263 261/162/261 488/588/488
f 370/534/370 488/586/488 487/585/487 371/535/371
f 489/587/489 488/588/488 370/538/370 369/537/369
f 275/176/275 276/178/276 490/589/490 491/590/491
f 492/591/492 277/181/277 275/180/275 491/592/491
f 373/539/373 491/590/491 490/589/490 374/540/374
f 492/591/492 491/592/491 373/542/373 372/541/372
f 257/467/257 258/157/258 493/593/493 494/594/494
f 495/595/495 262/160/262 257/159/257 494/596/494
f 376/543/376 494/594/494 493/593/493 377/544/377
f 495/595/495 494/596/494 376/547/376 375/546/375
f 243/461/243 244/139/244 496/597/496 497/598/497
f 498/599/498 247/142/247 243/141/243 497/600/497
f 379/549/379 497/598/497 496/597/496 380/550/380
f 498/599/498 497/600/497 379/552/379 378/551/378
f 287/197/287 291/199/291 501/601/501 502/602/502
f 499/339/499 500/338/500 292/204/292
f 499/337/499 383/555/383 382/554/382
f 382/340/382 381/557/381 500/338/500
f 503/603/503 286/193/286 287/192/287 502/604/502
f 385/559/385 502/602/502 501/601/501 386/560/386
f 503/603/503 502/604/502 385/562/385 384/561/384
f 271/472/271 272/175/272 504/605/504 505/606/505
f 506/607/506 276/178/276 271/177/271 505/608/505
f 388/564/388 505/606/505 504/605/504 389/565/389
f 506/607/506 505/608/505 388/567/388 387/566/387
f 190/419/190 496/597/496 244/139/244 421/223/421
f 507/344/507 508/343/508 266/165/266
f 507/341/507 392/571/392 391/570/391
f 391/345/391 390/572/390 508/343/508
f 249/145/249 483/579/483 174/373/174 422/227/422
f 215/442/215 481/577/481 247/142/247 498/599/498
f 251/148/251 480/575/480 223/451/223 400/487/400
f 216/443/216 425/515/425 254/151/254 398/485/398
f 208/436/208 478/573/478 255/154/255 423/513/423
f 258/157/258 412/501/412 191/421/191 493/593/493
f 263/163/263 489/587/489 173/371/173 414/503/414
f 195/424/195 487/585/487 262/160/262 495/595/495
f 265/166/265 508/343/508 217/445/217 406/495/406
f 197/425/197 417/507/417 268/169/268 404/493/404
f 269/172/269 415/505/415 172/369/172 507/341/507
f 189/418/189 504/605/504 272/175/272 418/509/418
f 277/181/277 492/591/492 171/367/171 420/511/420
f 221/448/221 490/589/490 276/178/276 506/607/506
f 222/449/222 397/213/397 284/190/284 407/216/407
f 283/187/283 477/334/477 204/433/204 408/220/408
f 210/437/210 476/332/476 279/184/279 396/209/396
f 202/430/202 403/491/403 286/193/286 503/603/503
f 289/196/289 401/489/401 170/365/170 411/499/411
f 291/199/291 409/497/409 169/103/169 501/601/501
f 293/202/293 393/459/393 211/439/211 499/337/499
f 203/431/203 395/483/395 297/208/297 486/583/486
f 296/205/296 500/338/500 198/427/198 484/581/484
f 76/71/76 300/230/300 427/232/427 207/67/207
f 426/259/426 209/70/209 57/76/57
f 429/238/429 447/237/447 49/2/49 225/111/225
f 72/86/72 302/233/302 428/235/428 214/82/214
f 450/279/450 430/531/430 61/14/61 237/131/237
f 80/57/80 304/536/304 451/281/451 201/53/201
f 432/244/432 454/243/454 52/5/52 228/116/228
f 84/42/84 306/239/306 431/241/431 194/38/194
f 434/250/434 457/249/457 58/11/58 234/126/234
f 68/104/68 308/245/308 433/247/433 220/96/220
f 460/294/460 435/545/435 64/17/64 240/134/240
f 462/297/462 239/457/239 86/347/86 311/346/311
f 464/305/464 230/455/230 74/350/74 313/349/313
f 465/313/465 437/556/437 55/8/55 231/121/231
f 466/315/466 196/41/196 63/47/63
f 470/321/470 236/456/236 82/356/82 316/355/316
f 90/352/90 186/417/186 469/318/469 438/353/438
f 88/28/88 317/251/317 439/253/439 188/24/188
f 472/323/472 227/454/227 70/359/70 319/358/319
f 78/361/78 180/395/180 473/329/473 440/362/440
f 211/439/211 393/459/393 323/257/323 129/75/129
f 321/260/321 395/483/395 203/431/203 115/54/115
f 129/75/129 323/257/323 426/259/426 57/76/57
f 441/261/441 321/260/321 115/54/115 60/56/60
f 324/214/324 397/213/397 222/449/222 145/97/145
f 124/438/124 326/211/326 300/230/300 76/71/76
f 210/437/210 396/209/396 326/211/326 124/438/124
f 444/265/444 324/214/324 145/97/145 51/99/51
f 327/271/327 400/487/400 223/451/223 147/374/147
f 134/444/134 329/270/329 302/233/302 72/86/72
f 216/443/216 398/485/398 329/270/329 134/444/134
f 447/237/447 327/271/327 147/374/147 49/2/49
f 202/430/202 112/51/112 330/280/330 403/491/403
f 450/279/450 237/131/237 163/130/163 332/278/332
f 112/51/112 201/53/201 451/281/451 330/280/330
f 332/278/332 163/130/163 170/365/170 401/489/401
f 333/287/333 406/495/406 217/445/217 137/381/137
f 104/426/104 335/286/335 306/239/306 84/42/84
f 197/425/197 404/493/404 335/286/335 104/426/104
f 454/243/454 333/287/333 137/381/137 52/5/52
f 222/449/222 407/216/407 338/218/338 144/450/144
f 336/221/336 408/220/408 204/433/204 117/396/117
f 144/450/144 338/218/338 308/245/308 68/104/68
f 457/249/457 336/221/336 117/396/117 58/11/58
f 170/365/170 165/364/165 339/296/339 411/499/411
f 460/294/460 240/134/240 166/100/166 341/293/341
f 165/364/165 239/457/239 462/297/462 339/296/339
f 341/293/341 166/100/166 169/103/169 409/497/409
f 191/421/191 412/501/412 344/301/344 99/32/99
f 156/370/156 230/455/230 464/305/464 342/304/342
f 173/371/173 156/370/156 342/304/342 414/503/414
f 99/32/99 344/301/344 436/302/436 66/27/66
f 345/314/345 417/507/417 197/425/197 105/39/105
f 465/313/465 231/121/231 157/120/157 347/312/347
f 466/315/466 345/314/345 105/39/105 196/41/196
f 347/312/347 157/120/157 172/369/172 415/505/415
f 350/316/350 93/416/93 189/418/189 418/509/418
f 162/366/162 236/456/236 470/321/470 348/320/348
f 171/367/171 162/366/162 348/320/348 420/511/420
f 469/318/469 186/417/186 93/416/93 350/316/350
f 190/419/190 421/223/421 353/225/353 94/420/94
f 153/372/153 227/454/227 472/323/472 351/228/351
f 174/373/174 153/372/153 351/228/351 422/227/422
f 94/420/94 353/225/353 317/251/317 88/28/88
f 354/330/354 425/515/425 216/443/216 135/83/135
f 473/329/473 180/395/180 123/394/123 356/327/356
f 356/327/356 123/394/123 208/436/208 423/513/423
f 474/331/474 354/330/354 135/83/135 54/85/54
f 426/259/426 359/518/359 125/68/125 209/70/209
f 119/61/119 357/519/357 441/261/441 60/56/60
f 359/518/359 476/332/476 210/437/210 125/68/125
f 204/433/204 477/334/477 357/519/357 119/61/119
f 149/108/149 360/523/360 444/265/444 51/99/51
f 208/436/208 122/65/122 362/522/362 478/573/478
f 122/65/122 207/67/207 427/232/427 362/522/362
f 223/451/223 480/575/480 360/523/360 149/108/149
f 429/238/429 225/111/225 151/110/151 363/527/363
f 215/442/215 132/80/132 365/526/365 481/577/481
f 132/80/132 214/82/214 428/235/428 365/526/365
f 363/527/363 151/110/151 174/373/174 483/579/483
f 114/432/114 366/532/366 304/536/304 80/57/80
f 368/530/368 484/581/484 198/427/198 107/403/107
f 430/531/430 368/530/368 107/403/107 61/14/61
f 203/431/203 486/583/486 366/532/366 114/432/114
f 432/244/432 228/116/228 154/115/154 369/537/369
f 195/424/195 102/36/102 371/535/371 487/585/487
f 102/36/102 194/38/194 431/241/431 371/535/371
f 369/537/369 154/115/154 173/371/173 489/587/489
f 434/250/434 234/126/234 160/125/160 372/541/372
f 221/448/221 142/94/142 374/540/374 490/589/490
f 142/94/142 220/96/220 433/247/433 374/540/374
f 372/541/372 160/125/160 171/367/171 492/591/492
f 435/545/435 377/544/377 97/410/97 64/17/64
f 375/546/375 103/409/103 195/424/195 495/595/495
f 311/346/311 184/348/184 103/409/103 375/546/375
f 377/544/377 493/593/493 191/421/191 97/410/97
f 436/302/436 380/550/380 95/25/95 66/27/66
f 378/551/378 133/387/133 215/442/215 498/599/498
f 313/349/313 178/351/178 133/387/133 378/551/378
f 380/550/380 496/597/496 190/419/190 95/25/95
f 109/46/109 381/557/381 466/315/466 63/47/63
f 383/555/383 499/337/499 211/439/211 127/388/127
f 198/427/198 500/338/500 381/557/381 109/46/109
f 437/556/437 383/555/383 127/388/127 55/8/55
f 168/102/168 242/354/242 438/353/438 386/560/386
f 316/355/316 182/357/182 113/402/113 384/561/384
f 169/103/169 168/102/168 386/560/386 501/601/501
f 384/561/384 113/402/113 202/430/202 503/603/503
f 92/22/92 188/24/188 439/253/439 389/565/389
f 387/566/387 143/380/143 221/448/221 506/607/506
f 319/358/319 176/360/176 143/380/143 387/566/387
f 189/418/189 92/22/92 389/565/389 504/605/504
f 159/368/159 233/363/233 440/362/440 392/571/392
f 139/90/139 390/572/390 474/331/474 54/85/54
f 172/369/172 159/368/159 392/571/392 507/341/507
f 217/445/217 508/343/508 390/572/390 139/90/139
