{
  "accessors": [
    {
      "bufferView": 2,
      "componentType": 5126,
      "count": 21154,
      "max": [
        0.0,
        381.3909912109375,
        16.43000030517578
      ],
      "min": [
        -504.379638671875,
        0.0,
        -16.43000030517578
      ],
      "type": "VEC3"
    },
    {
      "bufferView": 2,
      "byteOffset": 253848,
      "componentType": 5126,
      "count": 21154,
      "max": [
        1.0,
        1.0,
        1.0
      ],
      "min": [
        -1.0,
        -1.0,
        -1.0
      ],
      "type": "VEC3"
    },
    {
      "bufferView": 3,
      "componentType": 5126,
      "count": 21154,
      "max": [
        1.0,
        0.8439033031463623,
        1.0,
        1.0
      ],
      "min": [
        -1.0,
        -0.8439972996711731,
        -1.0,
        1.0
      ],
      "type": "VEC4"
    },
    {
      "bufferView": 1,
      "componentType": 5126,
      "count": 21154,
      "max": [
        0.9990822672843933,
        0.9994551539421082
      ],
      "min": [
        0.0005448709125630558,
        0.0005449056625366211
      ],
      "type": "VEC2"
    },
    {
      "bufferView": 0,
      "componentType": 5125,
      "count": 78030,
      "type": "SCALAR"
    },
    {
      "bufferView": 2,
      "byteOffset": 507696,
      "componentType": 5126,
      "count": 21724,
      "max": [
        0.0,
        398.91241455078125,
        38.0
      ],
      "min": [
        -566.4630126953125,
        0.0,
        -38.0
      ],
      "type": "VEC3"
    },
    {
      "bufferView": 2,
      "byteOffset": 768384,
      "componentType": 5126,
      "count": 21724,
      "max": [
        1.0,
        1.0,
        1.0
      ],
      "min": [
        -1.0,
        -1.0,
        -1.0
      ],
      "type": "VEC3"
    },
    {
      "bufferView": 3,
      "byteOffset": 338464,
      "componentType": 5126,
      "count": 21724,
      "max": [
        1.0,
        1.0,
        1.0,
        1.0
      ],
      "min": [
        -1.0,
        -1.0,
        -1.0,
        1.0
      ],
      "type": "VEC4"
    },
    {
      "bufferView": 1,
      "byteOffset": 169232,
      "componentType": 5126,
      "count": 21724,
      "max": [
        0.9990822672843933,
        0.9994551539421082
      ],
      "min": [
        0.0005448709125630558,
        0.0005449056625366211
      ],
      "type": "VEC2"
    },
    {
      "bufferView": 0,
      "byteOffset": 312120,
      "componentType": 5125,
      "count": 79800,
      "type": "SCALAR"
    },
    {
      "bufferView": 2,
      "byteOffset": 1029072,
      "componentType": 5126,
      "count": 22285,
      "max": [
        0.0,
        398.91241455078125,
        38.0
      ],
      "min": [
        -626.2157592773438,
        0.0,
        -38.0
      ],
      "type": "VEC3"
    },
    {
      "bufferView": 2,
      "byteOffset": 1296492,
      "componentType": 5126,
      "count": 22285,
      "max": [
        1.0,
        1.0,
        1.0
      ],
      "min": [
        -1.0,
        -1.0,
        -1.0
      ],
      "type": "VEC3"
    },
    {
      "bufferView": 3,
      "byteOffset": 686048,
      "componentType": 5126,
      "count": 22285,
      "max": [
        1.0,
        1.0,
        1.0,
        1.0
      ],
      "min": [
        -1.0,
        -1.0,
        -1.0,
        1.0
      ],
      "type": "VEC4"
    },
    {
      "bufferView": 1,
      "byteOffset": 343024,
      "componentType": 5126,
      "count": 22285,
      "max": [
        0.9990822672843933,
        0.9994551539421082
      ],
      "min": [
        0.0005448709125630558,
        0.0005449056625366211
      ],
      "type": "VEC2"
    },
    {
      "bufferView": 0,
      "byteOffset": 631320,
      "componentType": 5125,
      "count": 81570,
      "type": "SCALAR"
    }
  ],
  "asset": {
    "extras": {
      "author": "adventurer (https://sketchfab.com/ahmagh2e)",
      "license": "CC-BY-4.0 (http://creativecommons.org/licenses/by/4.0/)",
      "source": "https://sketchfab.com/3d-models/fence-yard-protection-cadc9d927472491d8c8c1ab76d4e2718",
      "title": "Fence yard protection"
    },
    "generator": "Sketchfab-16.10.0",
    "version": "2.0"
  },
  "bufferViews": [
    {
      "buffer": 0,
      "byteLength": 957600,
      "name": "floatBufferViews",
      "target": 34963
    },
    {
      "buffer": 0,
      "byteLength": 521304,
      "byteOffset": 957600,
      "byteStride": 8,
      "name": "floatBufferViews",
      "target": 34962
    },
    {
      "buffer": 0,
      "byteLength": 1563912,
      "byteOffset": 1478904,
      "byteStride": 12,
      "name": "floatBufferViews",
      "target": 34962
    },
    {
      "buffer": 0,
      "byteLength": 1042608,
      "byteOffset": 3042816,
      "byteStride": 16,
      "name": "floatBufferViews",
      "target": 34962
    }
  ],
  "buffers": [
    {
      "byteLength": 4085424,
      "uri": "scene.bin"
    }
  ],
  "images": [
    {
      "uri": "textures/Scene_-_Root_baseColor.png"
    },
    {
      "uri": "textures/Scene_-_Root_metallicRoughness.png"
    },
    {
      "uri": "textures/Scene_-_Root_normal.png"
    }
  ],
  "materials": [
    {
      "doubleSided": true,
      "name": "Scene_-_Root",
      "normalTexture": {
        "index": 2
      },
      "pbrMetallicRoughness": {
        "baseColorTexture": {
          "index": 0
        },
        "metallicRoughnessTexture": {
          "index": 1
        }
      }
    }
  ],
  "meshes": [
    {
      "name": "01_2__0",
      "primitives": [
        {
          "attributes": {
            "NORMAL": 1,
            "POSITION": 0,
            "TANGENT": 2,
            "TEXCOORD_0": 3
          },
          "indices": 4,
          "material": 0,
          "mode": 4
        }
      ]
    },
    {
      "name": "01_1__0",
      "primitives": [
        {
          "attributes": {
            "NORMAL": 6,
            "POSITION": 5,
            "TANGENT": 7,
            "TEXCOORD_0": 8
          },
          "indices": 9,
          "material": 0,
          "mode": 4
        }
      ]
    },
    {
      "name": "01__0",
      "primitives": [
        {
          "attributes": {
            "NORMAL": 11,
            "POSITION": 10,
            "TANGENT": 12,
            "TEXCOORD_0": 13
          },
          "indices": 14,
          "material": 0,
          "mode": 4
        }
      ]
    }
  ],
  "nodes": [
    {
      "children": [
        1
      ],
      "matrix": [
        1.0,
        0.0,
        0.0,
        0.0,
        0.0,
        2.220446049250313e-16,
        -1.0,
        0.0,
        0.0,
        1.0,
        2.220446049250313e-16,
        0.0,
        0.0,
        0.0,
        0.0,
        1.0
      ],
      "name": "Sketchfab_model"
    },
    {
      "children": [
        2
      ],
      "matrix": [
        0.009999999776482582,
        0.0,
        0.0,
        0.0,
        0.0,
        0.0,
        0.009999999776482582,
        0.0,
        0.0,
        -0.009999999776482582,
        0.0,
        0.0,
        0.0,
        0.0,
        0.0,
        1.0
      ],
      "name": "ffdcf664f7934fc3b73a6b01ed0cbd42.fbx"
    },
    {
      "children": [
        3,
        5,
        7
      ],
      "name": "RootNode"
    },
    {
      "children": [
        4
      ],
      "matrix": [
        1.0,
        0.0,
        0.0,
        0.0,
        0.0,
        1.0,
        0.0,
        0.0,
        0.0,
        0.0,
        1.0,
        0.0,
        584.606689453125,
        0.0,
        -38.0,
        1.0
      ],
      "name": "01_2"
    },
    {
      "mesh": 0,
      "name": "01_2__0"
    },
    {
      "children": [
        6
      ],
      "matrix": [
        1.0,
        0.0,
        0.0,
        0.0,
        0.0,
        1.0,
        0.0,
        0.0,
        0.0,
        0.0,
        1.0,
        0.0,
        -730.8744506835938,
        0.0,
        -38.0,
        1.0
      ],
      "name": "01_1"
    },
    {
      "mesh": 1,
      "name": "01_1__0"
    },
    {
      "children": [
        8
      ],
      "matrix": [
        -1.0,
        1.2246467991473535e-16,
        -1.224646799147353e-16,
        0.0,
        1.2246467991473535e-16,
        1.0,
        -1.2246467991473535e-16,
        0.0,
        1.224646799147353e-16,
        -1.2246467991473535e-16,
        -1.0,
        0.0,
        -627.273681640625,
        0.0,
        -38.0,
        1.0
      ],
      "name": "01"
    },
    {
      "mesh": 2,
      "name": "01__0"
    }
  ],
  "samplers": [
    {
      "magFilter": 9729,
      "minFilter": 9987,
      "wrapS": 10497,
      "wrapT": 10497
    }
  ],
  "scene": 0,
  "scenes": [
    {
      "name": "Sketchfab_Scene",
      "nodes": [
        0
      ]
    }
  ],
  "textures": [
    {
      "sampler": 0,
      "source": 0
    },
    {
      "sampler": 0,
      "source": 1
    },
    {
      "sampler": 0,
      "source": 2
    }
  ]
}
