# Blender 4.5.3 LTS
# www.blender.org
mtllib aroma_vase.mtl
o aroma_vase
v 0.000000 0.140000 -0.025073
v 0.009595 0.140000 -0.023164
v 0.017729 0.140000 -0.017729
v 0.023164 0.140000 -0.009595
v 0.025073 0.140000 0.000000
v 0.023164 0.140000 0.009595
v 0.017729 0.140000 0.017729
v 0.009595 0.140000 0.023164
v 0.000000 0.140000 0.025073
v -0.009595 0.140000 0.023164
v -0.017729 0.140000 0.017729
v -0.023164 0.140000 0.009595
v -0.025073 0.140000 0.000000
v -0.023164 0.140000 -0.009595
v -0.017729 0.140000 -0.017729
v -0.009595 0.140000 -0.023164
v 0.000000 0.155000 -0.020812
v 0.007964 0.155000 -0.019228
v 0.014716 0.155000 -0.014716
v 0.019228 0.155000 -0.007964
v 0.020812 0.155000 0.000000
v 0.019228 0.155000 0.007964
v 0.014716 0.155000 0.014716
v 0.007964 0.155000 0.019228
v 0.000000 0.155000 0.020812
v -0.007964 0.155000 0.019228
v -0.014716 0.155000 0.014716
v -0.019228 0.155000 0.007964
v -0.020812 0.155000 0.000000
v -0.019228 0.155000 -0.007964
v -0.014716 0.155000 -0.014716
v -0.007964 0.155000 -0.019228
v -0.000000 0.084819 -0.061967
v -0.000000 0.021787 -0.059130
v -0.000000 0.073329 -0.067448
v -0.000000 0.059957 -0.070000
v -0.000000 0.046012 -0.069372
v -0.000000 0.032860 -0.065627
v 0.022628 0.021787 -0.054629
v 0.023714 0.084819 -0.057250
v 0.025114 0.032860 -0.060631
v 0.026548 0.046012 -0.064092
v 0.026788 0.059957 -0.064672
v 0.025811 0.073329 -0.062314
v 0.041811 0.021787 -0.041811
v 0.043818 0.084819 -0.043818
v 0.046405 0.032860 -0.046405
v 0.049054 0.046012 -0.049054
v 0.049497 0.059957 -0.049497
v 0.047693 0.073329 -0.047693
v 0.054629 0.021787 -0.022628
v 0.057250 0.084819 -0.023714
v 0.060631 0.032860 -0.025114
v 0.064092 0.046012 -0.026548
v 0.064672 0.059957 -0.026788
v 0.062314 0.073329 -0.025811
v 0.059130 0.021787 0.000000
v 0.061967 0.084819 0.000000
v 0.065627 0.032860 0.000000
v 0.069372 0.046012 0.000000
v 0.070000 0.059957 0.000000
v 0.067448 0.073329 0.000000
v 0.054629 0.021787 0.022628
v 0.057250 0.084819 0.023714
v 0.060631 0.032860 0.025114
v 0.064092 0.046012 0.026548
v 0.064672 0.059957 0.026788
v 0.062314 0.073329 0.025811
v 0.041811 0.021787 0.041811
v 0.043818 0.084819 0.043818
v 0.046405 0.032860 0.046405
v 0.049054 0.046012 0.049054
v 0.049497 0.059957 0.049497
v 0.047693 0.073329 0.047693
v 0.022628 0.021787 0.054629
v 0.023714 0.084819 0.057250
v 0.025114 0.032860 0.060631
v 0.026548 0.046012 0.064092
v 0.026788 0.059957 0.064672
v 0.025811 0.073329 0.062314
v -0.000000 0.021787 0.059130
v -0.000000 0.084819 0.061967
v -0.000000 0.032860 0.065627
v -0.000000 0.046012 0.069372
v -0.000000 0.059957 0.070000
v -0.000000 0.073329 0.067448
v -0.022628 0.021787 0.054629
v -0.023714 0.084819 0.057250
v -0.025114 0.032860 0.060631
v -0.026548 0.046012 0.064092
v -0.026788 0.059957 0.064672
v -0.025811 0.073329 0.062314
v -0.041811 0.021787 0.041811
v -0.043818 0.084819 0.043818
v -0.046405 0.032860 0.046405
v -0.049054 0.046012 0.049054
v -0.049497 0.059957 0.049497
v -0.047693 0.073329 0.047693
v -0.054629 0.021787 0.022628
v -0.057250 0.084819 0.023714
v -0.060631 0.032860 0.025114
v -0.064092 0.046012 0.026548
v -0.064672 0.059957 0.026788
v -0.062314 0.073329 0.025811
v -0.059130 0.021787 0.000000
v -0.061967 0.084819 0.000000
v -0.065627 0.032860 0.000000
v -0.069372 0.046012 0.000000
v -0.070000 0.059957 0.000000
v -0.067448 0.073329 0.000000
v -0.054629 0.021787 -0.022628
v -0.057250 0.084819 -0.023714
v -0.060631 0.032860 -0.025114
v -0.064092 0.046012 -0.026548
v -0.064672 0.059957 -0.026788
v -0.062314 0.073329 -0.025811
v -0.041811 0.021787 -0.041811
v -0.043818 0.084819 -0.043818
v -0.046405 0.032860 -0.046405
v -0.049054 0.046012 -0.049054
v -0.049497 0.059957 -0.049497
v -0.047693 0.073329 -0.047693
v -0.022628 0.021787 -0.054629
v -0.023714 0.084819 -0.057250
v -0.025114 0.032860 -0.060631
v -0.026548 0.046012 -0.064092
v -0.026788 0.059957 -0.064672
v -0.025811 0.073329 -0.062314
v 0.000000 0.000000 -0.024745
v -0.000000 0.012285 -0.051567
v 0.000000 0.000601 -0.030491
v 0.000000 0.002346 -0.036630
v -0.000000 0.005064 -0.042564
v -0.000000 0.008489 -0.047711
v 0.019734 0.012285 -0.047642
v 0.009470 0.000000 -0.022862
v 0.018258 0.008489 -0.044079
v 0.016289 0.005064 -0.039324
v 0.014018 0.002346 -0.033842
v 0.011668 0.000601 -0.028170
v 0.036463 0.012285 -0.036463
v 0.017498 0.000000 -0.017498
v 0.033737 0.008489 -0.033737
v 0.030097 0.005064 -0.030097
v 0.025902 0.002346 -0.025902
v 0.021560 0.000601 -0.021560
v 0.047642 0.012285 -0.019734
v 0.022862 0.000000 -0.009470
v 0.044079 0.008489 -0.018258
v 0.039324 0.005064 -0.016289
v 0.033842 0.002346 -0.014018
v 0.028170 0.000601 -0.011668
v 0.051567 0.012285 0.000000
v 0.024745 0.000000 0.000000
v 0.047711 0.008489 0.000000
v 0.042564 0.005064 0.000000
v 0.036630 0.002346 0.000000
v 0.030491 0.000601 0.000000
v 0.047642 0.012285 0.019734
v 0.022862 0.000000 0.009470
v 0.044079 0.008489 0.018258
v 0.039324 0.005064 0.016289
v 0.033842 0.002346 0.014018
v 0.028170 0.000601 0.011668
v 0.036463 0.012285 0.036463
v 0.017498 0.000000 0.017498
v 0.033737 0.008489 0.033737
v 0.030097 0.005064 0.030097
v 0.025902 0.002346 0.025902
v 0.021560 0.000601 0.021560
v 0.019734 0.012285 0.047642
v 0.009470 0.000000 0.022862
v 0.018258 0.008489 0.044079
v 0.016289 0.005064 0.039324
v 0.014018 0.002346 0.033842
v 0.011668 0.000601 0.028170
v -0.000000 0.012285 0.051567
v 0.000000 0.000000 0.024745
v -0.000000 0.008489 0.047711
v -0.000000 0.005064 0.042564
v 0.000000 0.002346 0.036630
v 0.000000 0.000601 0.030491
v -0.019734 0.012285 0.047642
v -0.009470 0.000000 0.022862
v -0.018258 0.008489 0.044079
v -0.016289 0.005064 0.039324
v -0.014018 0.002346 0.033842
v -0.011668 0.000601 0.028170
v -0.036463 0.012285 0.036463
v -0.017498 0.000000 0.017498
v -0.033737 0.008489 0.033737
v -0.030097 0.005064 0.030097
v -0.025902 0.002346 0.025902
v -0.021560 0.000601 0.021560
v -0.047642 0.012285 0.019734
v -0.022862 0.000000 0.009470
v -0.044079 0.008489 0.018258
v -0.039324 0.005064 0.016289
v -0.033842 0.002346 0.014018
v -0.028170 0.000601 0.011668
v -0.051567 0.012285 0.000000
v -0.024745 0.000000 0.000000
v -0.047711 0.008489 0.000000
v -0.042564 0.005064 0.000000
v -0.036630 0.002346 0.000000
v -0.030491 0.000601 0.000000
v -0.047642 0.012285 -0.019734
v -0.022862 0.000000 -0.009470
v -0.044079 0.008489 -0.018258
v -0.039324 0.005064 -0.016289
v -0.033842 0.002346 -0.014018
v -0.028170 0.000601 -0.011668
v -0.036463 0.012285 -0.036463
v -0.017498 0.000000 -0.017498
v -0.033737 0.008489 -0.033737
v -0.030097 0.005064 -0.030097
v -0.025902 0.002346 -0.025902
v -0.021560 0.000601 -0.021560
v -0.019734 0.012285 -0.047642
v -0.009470 0.000000 -0.022862
v -0.018258 0.008489 -0.044079
v -0.016289 0.005064 -0.039324
v -0.014018 0.002346 -0.033842
v -0.011668 0.000601 -0.028170
v 0.009595 0.155000 -0.023164
v 0.000000 0.155000 -0.025073
v 0.017729 0.155000 -0.017729
v 0.023164 0.155000 -0.009595
v 0.025073 0.155000 0.000000
v 0.023164 0.155000 0.009595
v 0.017729 0.155000 0.017729
v 0.009595 0.155000 0.023164
v 0.000000 0.155000 0.025073
v -0.009595 0.155000 0.023164
v -0.017729 0.155000 0.017729
v -0.023164 0.155000 0.009595
v -0.025073 0.155000 0.000000
v -0.023164 0.155000 -0.009595
v -0.017729 0.155000 -0.017729
v -0.009595 0.155000 -0.023164
v 0.007964 0.006407 -0.019228
v 0.000000 0.006407 -0.020812
v 0.014716 0.006407 -0.014716
v 0.019228 0.006407 -0.007964
v 0.020812 0.006407 0.000000
v 0.019228 0.006407 0.007964
v 0.014716 0.006407 0.014716
v 0.007964 0.006407 0.019228
v 0.000000 0.006407 0.020812
v -0.007964 0.006407 0.019228
v -0.014716 0.006407 0.014716
v -0.019228 0.006407 0.007964
v -0.020812 0.006407 0.000000
v -0.019228 0.006407 -0.007964
v -0.014716 0.006407 -0.014716
v -0.007964 0.006407 -0.019228
v -0.038820 0.080704 -0.038820
v -0.021009 0.080704 -0.050720
v 0.021009 0.080704 0.050720
v 0.000000 0.080704 0.054899
v 0.000000 0.080704 -0.054899
v 0.021009 0.080704 -0.050720
v -0.021009 0.080704 0.050720
v 0.038820 0.080704 -0.038820
v -0.038820 0.080704 0.038820
v 0.050720 0.080704 -0.021009
v -0.050720 0.080704 0.021009
v 0.054899 0.080704 -0.000000
v -0.054899 0.080704 -0.000000
v 0.050720 0.080704 0.021009
v -0.050720 0.080704 -0.021009
v 0.038820 0.080704 0.038820
v -0.007964 0.134952 -0.019228
v 0.000000 0.134952 0.020812
v 0.007964 0.134952 -0.019228
v -0.007964 0.134952 0.019228
v 0.014716 0.134952 -0.014716
v -0.014716 0.134952 0.014716
v 0.019228 0.134952 -0.007964
v -0.019228 0.134952 0.007964
v 0.020812 0.134952 0.000000
v -0.020812 0.134952 0.000000
v 0.019228 0.134952 0.007964
v -0.019228 0.134952 -0.007964
v 0.014716 0.134952 0.014716
v -0.014716 0.134952 -0.014716
v 0.007964 0.134952 0.019228
v 0.000000 0.134952 -0.020812
v -0.039027 0.030531 -0.039027
v 0.021121 0.030531 0.050991
v 0.000000 0.030531 -0.055193
v -0.021121 0.030531 -0.050991
v 0.000000 0.030531 0.055193
v 0.021121 0.030531 -0.050991
v -0.021121 0.030531 0.050991
v 0.039027 0.030531 -0.039027
v -0.039027 0.030531 0.039027
v 0.050991 0.030531 -0.021121
v -0.050991 0.030531 0.021121
v 0.055193 0.030531 -0.000000
v -0.055193 0.030531 -0.000000
v 0.050991 0.030531 0.021121
v -0.050991 0.030531 -0.021121
v 0.039027 0.030531 0.039027
vn 0.9211 0.0084 0.3892
vn 0.9999 0.0115 -0.0000
vn 0.9988 -0.0349 -0.0358
vn 0.9226 -0.0530 0.3821
vn 0.2198 0.8186 0.5307
vn 0.4062 0.8186 0.4062
vn -0.7121 0.0084 0.7020
vn -0.3827 0.0115 0.9238
vn -0.3492 -0.0349 0.9364
vn -0.7061 -0.0530 0.7061
vn -0.3761 0.0084 -0.9265
vn -0.7071 0.0115 -0.7071
vn -0.7315 -0.0349 -0.6809
vn -0.3821 -0.0530 -0.9226
vn 0.9265 0.0084 -0.3761
vn 0.7071 0.0115 -0.7071
vn 0.6809 -0.0349 -0.7315
vn 0.9226 -0.0530 -0.3821
vn -0.0071 0.0084 0.9999
vn 0.3827 0.0115 0.9238
vn 0.4152 -0.0349 0.9090
vn -0.0000 -0.0530 0.9986
vn -0.9211 0.0084 -0.3892
vn -0.9999 0.0115 -0.0000
vn -0.9988 -0.0349 0.0358
vn -0.9226 -0.0530 -0.3821
vn 0.3892 0.0084 -0.9211
vn -0.0000 0.0115 -0.9999
vn -0.0358 -0.0349 -0.9988
vn 0.3821 -0.0530 -0.9226
vn 0.7020 0.0084 0.7121
vn 0.7061 -0.0530 0.7061
vn -0.9265 0.0084 0.3761
vn -0.9226 -0.0530 0.3821
vn -0.3333 0.4914 -0.8047
vn -0.0000 0.4914 -0.8710
vn -0.0000 0.3083 -0.9513
vn -0.3640 0.3083 -0.8789
vn -0.0000 0.0710 -0.9975
vn -0.3817 0.0710 -0.9215
vn -0.0000 -0.1589 -0.9873
vn -0.3778 -0.1589 -0.9121
vn -0.0000 -0.3891 -0.9212
vn -0.3525 -0.3891 -0.8511
vn -0.0000 -0.5625 -0.8268
vn -0.3164 -0.5625 -0.7639
vn -0.6159 0.4914 -0.6159
vn -0.6727 0.3083 -0.6727
vn -0.7053 0.0710 -0.7053
vn -0.6981 -0.1589 -0.6981
vn -0.6514 -0.3891 -0.6514
vn -0.5847 -0.5625 -0.5847
vn -0.8047 0.4914 -0.3333
vn -0.8789 0.3083 -0.3640
vn -0.9215 0.0710 -0.3817
vn -0.9121 -0.1589 -0.3778
vn -0.8511 -0.3891 -0.3525
vn -0.7639 -0.5625 -0.3164
vn -0.8710 0.4914 -0.0000
vn -0.9513 0.3083 -0.0000
vn -0.9975 0.0710 -0.0000
vn -0.9873 -0.1589 -0.0000
vn -0.9212 -0.3891 -0.0000
vn -0.8268 -0.5625 -0.0000
vn -0.8047 0.4914 0.3333
vn -0.8789 0.3083 0.3640
vn -0.9215 0.0710 0.3817
vn -0.9121 -0.1589 0.3778
vn -0.8511 -0.3891 0.3525
vn -0.7639 -0.5625 0.3164
vn -0.6159 0.4914 0.6159
vn -0.6727 0.3083 0.6727
vn -0.7053 0.0710 0.7053
vn -0.6981 -0.1589 0.6981
vn -0.6514 -0.3891 0.6514
vn -0.5847 -0.5625 0.5847
vn -0.3333 0.4914 0.8047
vn -0.3640 0.3083 0.8789
vn -0.3817 0.0710 0.9215
vn -0.3778 -0.1589 0.9121
vn -0.3525 -0.3891 0.8511
vn -0.3164 -0.5625 0.7639
vn -0.0000 0.4914 0.8710
vn -0.0000 0.3083 0.9513
vn -0.0000 0.0710 0.9975
vn -0.0000 -0.1589 0.9873
vn -0.0000 -0.3891 0.9212
vn -0.0000 -0.5625 0.8268
vn 0.3333 0.4914 0.8047
vn 0.3640 0.3083 0.8789
vn 0.3817 0.0710 0.9215
vn 0.3778 -0.1589 0.9121
vn 0.3525 -0.3891 0.8511
vn 0.3164 -0.5625 0.7639
vn 0.6159 0.4914 0.6159
vn 0.6727 0.3083 0.6727
vn 0.7053 0.0710 0.7053
vn 0.6981 -0.1589 0.6981
vn 0.6514 -0.3891 0.6514
vn 0.5847 -0.5625 0.5847
vn 0.8047 0.4914 0.3333
vn 0.8789 0.3083 0.3640
vn 0.9215 0.0710 0.3817
vn 0.9121 -0.1589 0.3778
vn 0.8511 -0.3891 0.3525
vn 0.7639 -0.5625 0.3164
vn 0.8710 0.4914 -0.0000
vn 0.9513 0.3083 -0.0000
vn 0.9975 0.0710 -0.0000
vn 0.9873 -0.1589 -0.0000
vn 0.9212 -0.3891 -0.0000
vn 0.8268 -0.5625 -0.0000
vn 0.8047 0.4914 -0.3333
vn 0.8789 0.3083 -0.3640
vn 0.9215 0.0710 -0.3817
vn 0.9121 -0.1589 -0.3778
vn 0.8511 -0.3891 -0.3525
vn 0.7639 -0.5625 -0.3164
vn 0.6159 0.4914 -0.6159
vn 0.6727 0.3083 -0.6727
vn 0.7053 0.0710 -0.7053
vn 0.6981 -0.1589 -0.6981
vn 0.6514 -0.3891 -0.6514
vn 0.5847 -0.5625 -0.5847
vn 0.3333 0.4914 -0.8047
vn 0.3640 0.3083 -0.8789
vn 0.3817 0.0710 -0.9215
vn 0.3778 -0.1589 -0.9121
vn 0.3525 -0.3891 -0.8511
vn 0.3164 -0.5625 -0.7639
vn -0.3263 0.5496 -0.7690
vn -0.0000 0.5469 -0.8372
vn 0.3131 0.5496 -0.7745
vn 0.5920 0.5469 -0.5920
vn 0.7690 0.5496 -0.3263
vn 0.8372 0.5469 -0.0000
vn 0.7745 0.5496 0.3131
vn 0.5958 0.5496 0.5856
vn 0.3204 0.5469 0.7735
vn 0.0072 0.5496 0.8354
vn -0.3204 0.5469 0.7735
vn -0.5856 0.5496 0.5958
vn -0.7690 0.5496 0.3263
vn -0.8372 0.5469 -0.0000
vn -0.7745 0.5496 -0.3131
vn -0.5920 0.5469 -0.5920
vn -0.0000 -0.6692 -0.7431
vn 0.2844 -0.6692 -0.6865
vn 0.2436 -0.7712 -0.5882
vn -0.0000 -0.7712 -0.6366
vn 0.1888 -0.8698 -0.4559
vn -0.0000 -0.8698 -0.4934
vn 0.1354 -0.9354 -0.3268
vn -0.0000 -0.9354 -0.3537
vn 0.0763 -0.9799 -0.1842
vn -0.0000 -0.9799 -0.1994
vn 0.0266 -0.9976 -0.0642
vn -0.0000 -0.9976 -0.0694
vn 0.5254 -0.6692 -0.5254
vn 0.4502 -0.7712 -0.4502
vn 0.3489 -0.8698 -0.3489
vn 0.2501 -0.9354 -0.2501
vn 0.1410 -0.9799 -0.1410
vn 0.0491 -0.9976 -0.0491
vn 0.6865 -0.6692 -0.2844
vn 0.5882 -0.7712 -0.2436
vn 0.4559 -0.8698 -0.1888
vn 0.3268 -0.9354 -0.1354
vn 0.1842 -0.9799 -0.0763
vn 0.0642 -0.9976 -0.0266
vn 0.7431 -0.6692 -0.0000
vn 0.6366 -0.7712 -0.0000
vn 0.4934 -0.8698 -0.0000
vn 0.3537 -0.9354 -0.0000
vn 0.1994 -0.9799 -0.0000
vn 0.0694 -0.9976 -0.0000
vn 0.6865 -0.6692 0.2844
vn 0.5882 -0.7712 0.2436
vn 0.4559 -0.8698 0.1888
vn 0.3268 -0.9354 0.1354
vn 0.1842 -0.9799 0.0763
vn 0.0642 -0.9976 0.0266
vn 0.5254 -0.6692 0.5254
vn 0.4502 -0.7712 0.4502
vn 0.3489 -0.8698 0.3489
vn 0.2501 -0.9354 0.2501
vn 0.1410 -0.9799 0.1410
vn 0.0491 -0.9976 0.0491
vn 0.2844 -0.6691 0.6866
vn 0.2436 -0.7712 0.5882
vn 0.1888 -0.8698 0.4559
vn 0.1354 -0.9354 0.3268
vn 0.0763 -0.9799 0.1842
vn 0.0266 -0.9976 0.0642
vn -0.0000 -0.6692 0.7431
vn -0.0000 -0.7712 0.6366
vn -0.0000 -0.8698 0.4934
vn -0.0000 -0.9354 0.3537
vn -0.0000 -0.9799 0.1994
vn -0.0000 -0.9976 0.0694
vn -0.2844 -0.6691 0.6866
vn -0.2436 -0.7712 0.5882
vn -0.1888 -0.8698 0.4559
vn -0.1354 -0.9354 0.3268
vn -0.0763 -0.9799 0.1842
vn -0.0266 -0.9976 0.0642
vn -0.5254 -0.6692 0.5254
vn -0.4502 -0.7712 0.4502
vn -0.3489 -0.8698 0.3489
vn -0.2501 -0.9354 0.2501
vn -0.1410 -0.9799 0.1410
vn -0.0491 -0.9976 0.0491
vn -0.6866 -0.6691 0.2844
vn -0.5882 -0.7712 0.2436
vn -0.4559 -0.8698 0.1888
vn -0.3268 -0.9354 0.1354
vn -0.1842 -0.9799 0.0763
vn -0.0642 -0.9976 0.0266
vn -0.7431 -0.6692 -0.0000
vn -0.6366 -0.7712 -0.0000
vn -0.4934 -0.8698 -0.0000
vn -0.3537 -0.9354 -0.0000
vn -0.1994 -0.9799 -0.0000
vn -0.0694 -0.9976 -0.0000
vn -0.6865 -0.6692 -0.2844
vn -0.5882 -0.7712 -0.2436
vn -0.4559 -0.8698 -0.1888
vn -0.3268 -0.9354 -0.1354
vn -0.1842 -0.9799 -0.0763
vn -0.0642 -0.9976 -0.0266
vn -0.5254 -0.6692 -0.5254
vn -0.4502 -0.7712 -0.4502
vn -0.3489 -0.8698 -0.3489
vn -0.2501 -0.9354 -0.2501
vn -0.1410 -0.9799 -0.1410
vn -0.0491 -0.9976 -0.0491
vn -0.2844 -0.6692 -0.6865
vn -0.2436 -0.7712 -0.5882
vn -0.1888 -0.8698 -0.4559
vn -0.1354 -0.9354 -0.3268
vn -0.0763 -0.9799 -0.1842
vn -0.0266 -0.9976 -0.0642
vn -0.0417 0.9987 -0.0288
vn 0.0194 0.9987 -0.0468
vn -0.0151 0.9992 0.0364
vn 0.0267 0.9992 0.0290
vn 0.0359 0.9987 -0.0359
vn -0.0016 0.9992 0.0394
vn 0.0468 0.9987 -0.0194
vn -0.0364 0.9992 0.0151
vn 0.0507 0.9987 -0.0000
vn -0.0290 0.9992 0.0267
vn 0.0469 0.9987 0.0194
vn -0.0364 0.9992 -0.0151
vn 0.0359 0.9987 0.0359
vn -0.0279 0.9992 -0.0279
vn 0.0194 0.9987 0.0468
vn -0.0358 0.9992 -0.0165
vn -0.0000 0.9987 0.0507
vn -0.0000 0.9992 -0.0394
vn -0.0194 0.9987 0.0468
vn -0.0136 0.9992 -0.0370
vn -0.0359 0.9987 0.0359
vn 0.0279 0.9992 -0.0279
vn -0.0468 0.9987 0.0194
vn 0.0364 0.9992 -0.0151
vn -0.0507 0.9987 -0.0000
vn 0.0290 0.9992 -0.0267
vn -0.0469 0.9987 -0.0194
vn 0.0364 0.9992 0.0151
vn -0.0359 0.9987 -0.0359
vn 0.0394 0.9992 0.0016
vn -0.0194 0.9987 -0.0468
vn 0.0151 0.9992 0.0364
vn -0.0000 1.0000 -0.0000
vn -0.0000 0.8186 -0.5744
vn -0.2198 0.8186 -0.5307
vn -0.2198 0.8186 0.5307
vn -0.0000 0.8186 0.5744
vn 0.2198 0.8186 -0.5307
vn -0.4062 0.8186 0.4062
vn 0.4062 0.8186 -0.4062
vn -0.5307 0.8186 0.2198
vn 0.5307 0.8186 -0.2198
vn -0.5744 0.8186 -0.0000
vn 0.5744 0.8186 -0.0000
vn -0.5307 0.8186 -0.2198
vn 0.5307 0.8186 0.2198
vn -0.4062 0.8186 -0.4062
vn -0.3663 -0.2896 -0.8843
vn -0.6768 -0.2896 -0.6768
vn -0.6798 -0.2754 -0.6798
vn -0.3679 -0.2754 -0.8881
vn 0.6768 -0.2896 0.6768
vn 0.8843 -0.2896 0.3663
vn 0.8881 -0.2754 0.3679
vn 0.6798 -0.2754 0.6798
vn -0.8843 -0.2896 -0.3663
vn -0.8881 -0.2754 -0.3679
vn 0.9572 -0.2896 -0.0000
vn 0.9613 -0.2754 -0.0000
vn -0.9572 -0.2896 -0.0000
vn -0.9613 -0.2754 -0.0000
vn 0.8843 -0.2896 -0.3663
vn 0.8881 -0.2754 -0.3679
vn -0.8843 -0.2896 0.3663
vn -0.8881 -0.2754 0.3679
vn 0.6768 -0.2896 -0.6768
vn 0.6798 -0.2754 -0.6798
vn -0.6768 -0.2896 0.6768
vn -0.6798 -0.2754 0.6798
vn 0.3663 -0.2896 -0.8843
vn 0.3679 -0.2754 -0.8881
vn -0.3663 -0.2896 0.8843
vn -0.3679 -0.2754 0.8881
vn -0.0000 -0.2896 -0.9572
vn -0.0000 -0.2754 -0.9613
vn -0.0000 -0.2896 0.9572
vn 0.3663 -0.2896 0.8843
vn 0.3679 -0.2754 0.8881
vn -0.0000 -0.2754 0.9613
vn 0.3820 -0.0577 0.9223
vn 0.7059 -0.0577 0.7059
vn -0.0000 -0.0577 -0.9983
vn -0.3820 -0.0577 -0.9223
vn -0.3820 -0.0577 0.9223
vn 0.0392 -0.0377 0.9985
vn 0.3820 -0.0577 -0.9223
vn -0.7059 -0.0577 0.7059
vn 0.7059 -0.0577 -0.7059
vn -0.9223 -0.0577 0.3820
vn 0.9223 -0.0577 -0.3820
vn -0.9983 -0.0577 -0.0000
vn 0.9983 -0.0577 -0.0000
vn -0.9223 -0.0577 -0.3820
vn 0.9223 -0.0577 0.3820
vn -0.7059 -0.0577 -0.7059
vn -0.7071 -0.0058 -0.7071
vn -0.3827 -0.0058 -0.9239
vn 0.9239 -0.0058 0.3827
vn 0.7071 -0.0058 0.7071
vn -0.9239 -0.0058 -0.3827
vn 1.0000 -0.0058 -0.0000
vn -1.0000 -0.0058 -0.0000
vn 0.9239 -0.0058 -0.3827
vn -0.9239 -0.0058 0.3827
vn 0.7071 -0.0058 -0.7071
vn -0.7071 -0.0058 0.7071
vn 0.3827 -0.0058 -0.9239
vn -0.3827 -0.0058 0.9239
vn -0.0000 -0.0058 -1.0000
vn 0.3827 -0.0058 0.9239
vn -0.0000 -0.0058 1.0000
vt 0.816045 0.025301
vt 0.809698 0.025219
vt 0.809648 0.009884
vt 0.815996 0.009967
vt 0.494267 0.888409
vt 0.494267 0.868650
vt 0.525205 0.874804
vt 0.525205 0.882255
vt 0.824338 0.195331
vt 0.816045 0.195302
vt 0.815995 0.179967
vt 0.824288 0.179996
vt 0.833314 0.365303
vt 0.824338 0.365331
vt 0.824288 0.349997
vt 0.833264 0.349968
vt 0.833314 0.535303
vt 0.824338 0.535332
vt 0.824288 0.519998
vt 0.833264 0.519969
vt 0.841606 0.025219
vt 0.833314 0.025301
vt 0.833265 0.009967
vt 0.841557 0.009884
vt 0.816045 0.365303
vt 0.809697 0.365220
vt 0.809648 0.349886
vt 0.815995 0.349968
vt 0.816045 0.535303
vt 0.809697 0.535221
vt 0.809648 0.519887
vt 0.815996 0.519969
vt 0.824338 0.025330
vt 0.824288 0.009995
vt 0.833314 0.195302
vt 0.833264 0.179967
vt 0.841606 0.365220
vt 0.841557 0.349886
vt 0.841606 0.535221
vt 0.841557 0.519887
vt 0.809697 0.195220
vt 0.809648 0.179885
vt 0.841606 0.195220
vt 0.841557 0.179885
vt 0.840101 0.422229
vt 0.860596 0.422026
vt 0.863428 0.433831
vt 0.841120 0.434052
vt 0.864772 0.447529
vt 0.841621 0.447758
vt 0.864498 0.461778
vt 0.841554 0.462005
vt 0.862632 0.475184
vt 0.840927 0.475399
vt 0.859356 0.486434
vt 0.839800 0.486628
vt 0.817917 0.422301
vt 0.816974 0.434130
vt 0.816561 0.447839
vt 0.816719 0.462085
vt 0.817433 0.475474
vt 0.818632 0.486696
vt 0.797421 0.422229
vt 0.794665 0.434052
vt 0.793408 0.447758
vt 0.793774 0.462005
vt 0.795726 0.475399
vt 0.799074 0.486628
vt 0.781733 0.422026
vt 0.777590 0.433831
vt 0.775687 0.447529
vt 0.776212 0.461778
vt 0.779113 0.475184
vt 0.784105 0.486434
vt 0.840101 0.252229
vt 0.860596 0.252025
vt 0.863428 0.263831
vt 0.841120 0.264052
vt 0.864772 0.277528
vt 0.841621 0.277758
vt 0.864498 0.291777
vt 0.841554 0.292005
vt 0.862632 0.305183
vt 0.840927 0.305398
vt 0.859356 0.316433
vt 0.839800 0.316627
vt 0.817917 0.252300
vt 0.816974 0.264129
vt 0.816561 0.277838
vt 0.816719 0.292084
vt 0.817433 0.305474
vt 0.818632 0.316695
vt 0.797421 0.252229
vt 0.794665 0.264052
vt 0.793408 0.277758
vt 0.793774 0.292005
vt 0.795726 0.305398
vt 0.799074 0.316627
vt 0.781733 0.252026
vt 0.777590 0.263831
vt 0.775687 0.277528
vt 0.776212 0.291777
vt 0.779113 0.305183
vt 0.784105 0.316433
vt 0.840101 0.082228
vt 0.860596 0.082025
vt 0.863428 0.093830
vt 0.841120 0.094051
vt 0.864773 0.107528
vt 0.841621 0.107757
vt 0.864498 0.121777
vt 0.841554 0.122004
vt 0.862632 0.135182
vt 0.840927 0.135397
vt 0.859357 0.146433
vt 0.839800 0.146626
vt 0.817917 0.082299
vt 0.816974 0.094129
vt 0.816561 0.107837
vt 0.816719 0.122084
vt 0.817433 0.135473
vt 0.818632 0.146694
vt 0.797421 0.082228
vt 0.794665 0.094051
vt 0.793408 0.107757
vt 0.793774 0.122004
vt 0.795726 0.135397
vt 0.799074 0.146626
vt 0.781733 0.082025
vt 0.777590 0.093830
vt 0.775687 0.107528
vt 0.776212 0.121777
vt 0.779113 0.135182
vt 0.784105 0.146433
vt 0.840101 0.592230
vt 0.860596 0.592027
vt 0.863428 0.603832
vt 0.841120 0.604053
vt 0.864772 0.617530
vt 0.841621 0.617759
vt 0.864498 0.631779
vt 0.841554 0.632006
vt 0.862632 0.645184
vt 0.840927 0.645400
vt 0.859357 0.656435
vt 0.839800 0.656628
vt 0.817917 0.592301
vt 0.816974 0.604131
vt 0.816561 0.617840
vt 0.816719 0.632086
vt 0.817433 0.645475
vt 0.818632 0.656696
vt 0.797421 0.592230
vt 0.794665 0.604053
vt 0.793408 0.617759
vt 0.793774 0.632006
vt 0.795726 0.645400
vt 0.799074 0.656628
vt 0.781733 0.592027
vt 0.777590 0.603832
vt 0.775687 0.617530
vt 0.776212 0.631779
vt 0.779113 0.645185
vt 0.784105 0.656435
vt 0.028708 0.936660
vt 0.015654 0.923607
vt 0.018596 0.921641
vt 0.030674 0.933719
vt 0.022522 0.919017
vt 0.033297 0.929792
vt 0.027049 0.915993
vt 0.036322 0.925266
vt 0.031733 0.912863
vt 0.039452 0.920581
vt 0.036116 0.909934
vt 0.042380 0.916199
vt 0.802960 0.666236
vt 0.820016 0.666296
vt 0.820719 0.670118
vt 0.804938 0.670064
vt 0.012059 0.905861
vt 0.016691 0.904939
vt 0.022031 0.903877
vt 0.027556 0.902778
vt 0.032726 0.901750
vt 0.838477 0.666236
vt 0.837799 0.670064
vt 0.012059 0.888780
vt 0.016691 0.889702
vt 0.022031 0.890764
vt 0.027556 0.891863
vt 0.032726 0.892891
vt 0.855532 0.666067
vt 0.853579 0.669907
vt 0.018596 0.873000
vt 0.022522 0.875624
vt 0.027049 0.878648
vt 0.031733 0.881778
vt 0.036116 0.884707
vt 0.015654 0.871034
vt 0.028708 0.857981
vt 0.030674 0.860922
vt 0.033297 0.864849
vt 0.036322 0.869375
vt 0.039452 0.874060
vt 0.042380 0.878442
vt 0.802960 0.156234
vt 0.820016 0.156294
vt 0.820719 0.160116
vt 0.804938 0.160061
vt 0.046454 0.854386
vt 0.047375 0.859017
vt 0.048437 0.864357
vt 0.049536 0.869882
vt 0.050565 0.875052
vt 0.838477 0.156234
vt 0.837799 0.160061
vt 0.063534 0.854386
vt 0.062613 0.859017
vt 0.061551 0.864357
vt 0.060452 0.869882
vt 0.059423 0.875052
vt 0.855532 0.156065
vt 0.853579 0.159905
vt 0.079315 0.860922
vt 0.076691 0.864849
vt 0.073666 0.869375
vt 0.070537 0.874060
vt 0.067608 0.878442
vt 0.081280 0.857981
vt 0.094334 0.871034
vt 0.091392 0.873000
vt 0.087466 0.875624
vt 0.082939 0.878648
vt 0.078255 0.881778
vt 0.073872 0.884707
vt 0.802960 0.326235
vt 0.820016 0.326294
vt 0.820719 0.330117
vt 0.804938 0.330062
vt 0.097929 0.888780
vt 0.093297 0.889702
vt 0.087957 0.890764
vt 0.082432 0.891863
vt 0.077262 0.892891
vt 0.838477 0.326235
vt 0.837799 0.330062
vt 0.097929 0.905861
vt 0.093297 0.904939
vt 0.087957 0.903877
vt 0.082432 0.902778
vt 0.077262 0.901750
vt 0.855532 0.326066
vt 0.853579 0.329906
vt 0.091392 0.921641
vt 0.087466 0.919017
vt 0.082939 0.915993
vt 0.078255 0.912863
vt 0.073872 0.909934
vt 0.094334 0.923607
vt 0.081280 0.936660
vt 0.079315 0.933719
vt 0.076691 0.929792
vt 0.073666 0.925266
vt 0.070537 0.920581
vt 0.067608 0.916199
vt 0.802960 0.496236
vt 0.820016 0.496295
vt 0.820719 0.500118
vt 0.804938 0.500063
vt 0.063534 0.940255
vt 0.062613 0.935624
vt 0.061551 0.930284
vt 0.060452 0.924759
vt 0.059423 0.919589
vt 0.838477 0.496236
vt 0.837799 0.500063
vt 0.046454 0.940255
vt 0.047375 0.935624
vt 0.048437 0.930284
vt 0.049536 0.924759
vt 0.050565 0.919589
vt 0.855532 0.496067
vt 0.853579 0.499907
vt 0.024853 0.942430
vt 0.009884 0.927462
vt 0.009884 0.867179
vt 0.024853 0.852211
vt 0.085135 0.852211
vt 0.100104 0.867179
vt 0.100104 0.927462
vt 0.085135 0.942430
vt 0.426649 0.866825
vt 0.429501 0.873709
vt 0.426250 0.875880
vt 0.422815 0.867588
vt 0.434769 0.878977
vt 0.432597 0.882228
vt 0.441653 0.881828
vt 0.440890 0.885662
vt 0.449104 0.881828
vt 0.449866 0.885662
vt 0.455987 0.878977
vt 0.458159 0.882228
vt 0.461256 0.873709
vt 0.464506 0.875880
vt 0.464107 0.866825
vt 0.467941 0.867588
vt 0.464107 0.859374
vt 0.467941 0.858612
vt 0.461256 0.852491
vt 0.464506 0.850319
vt 0.455987 0.847222
vt 0.458159 0.843972
vt 0.449104 0.844371
vt 0.449866 0.840537
vt 0.441653 0.844371
vt 0.440890 0.840537
vt 0.434769 0.847222
vt 0.432597 0.843972
vt 0.429501 0.852491
vt 0.426250 0.850319
vt 0.426649 0.859374
vt 0.422815 0.858612
vt 0.533325 0.894407
vt 0.528056 0.889139
vt 0.528056 0.867921
vt 0.533325 0.862652
vt 0.540208 0.859801
vt 0.547659 0.859801
vt 0.554543 0.862652
vt 0.559811 0.867921
vt 0.562663 0.874804
vt 0.562663 0.882255
vt 0.559811 0.889139
vt 0.554543 0.894407
vt 0.547659 0.897258
vt 0.540208 0.897258
vt 0.586040 0.850395
vt 0.593601 0.868650
vt 0.515800 0.920636
vt 0.501828 0.906664
vt 0.572068 0.836424
vt 0.534054 0.928197
vt 0.553813 0.828862
vt 0.553813 0.928197
vt 0.534054 0.828862
vt 0.572068 0.920636
vt 0.515800 0.836424
vt 0.586040 0.906664
vt 0.501828 0.850395
vt 0.593601 0.888409
vt 0.904077 0.883518
vt 0.911528 0.883518
vt 0.917629 0.938480
vt 0.897975 0.938480
vt 0.916091 0.549785
vt 0.922974 0.549811
vt 0.940511 0.604798
vt 0.922353 0.604730
vt 0.918411 0.883564
vt 0.935787 0.938602
vt 0.928243 0.549881
vt 0.954409 0.604982
vt 0.801916 0.710514
vt 0.807184 0.710429
vt 0.789809 0.765467
vt 0.775911 0.765692
vt 0.350021 0.861120
vt 0.356904 0.861054
vt 0.350963 0.916034
vt 0.332806 0.916208
vt 0.814068 0.710383
vt 0.807966 0.765345
vt 0.364355 0.861032
vt 0.370617 0.915977
vt 0.821519 0.710383
vt 0.827620 0.765345
vt 0.371239 0.861058
vt 0.388775 0.916045
vt 0.828402 0.710429
vt 0.845778 0.765467
vt 0.376508 0.861128
vt 0.402673 0.916229
vt 0.901757 0.549873
vt 0.908640 0.549807
vt 0.902699 0.604787
vt 0.884541 0.604961
vt 0.833671 0.710514
vt 0.859675 0.765692
vt 0.897193 0.883564
vt 0.879818 0.938602
vt 0.908580 0.529311
vt 0.916031 0.529290
vt 0.897193 0.863068
vt 0.904077 0.863022
vt 0.828402 0.689933
vt 0.833671 0.690019
vt 0.901697 0.529377
vt 0.371179 0.840563
vt 0.376448 0.840632
vt 0.821519 0.689887
vt 0.364295 0.840537
vt 0.814068 0.689887
vt 0.356845 0.840558
vt 0.807184 0.689933
vt 0.349961 0.840625
vt 0.918411 0.863068
vt 0.923680 0.863154
vt 0.923680 0.883649
vt 0.922915 0.529316
vt 0.928183 0.529385
vt 0.911528 0.863022
vt 0.917682 0.989768
vt 0.897923 0.989768
vt 0.940810 0.656085
vt 0.922555 0.656016
vt 0.935937 0.989890
vt 0.954782 0.656270
vt 0.789659 0.816755
vt 0.775687 0.816981
vt 0.351060 0.967321
vt 0.332806 0.967497
vt 0.807914 0.816633
vt 0.370819 0.967264
vt 0.827673 0.816633
vt 0.389074 0.967332
vt 0.845928 0.816755
vt 0.403046 0.967518
vt 0.902796 0.656074
vt 0.884541 0.656249
vt 0.859899 0.816981
vt 0.879668 0.989890
s 1
usemtl aroma_vase
f 6/1/1 5/2/2 229/3/3 230/4/4
f 292/5/5 289/6/6 255/7/6 256/8/5
f 11/9/7 10/10/8 234/11/9 235/12/10
f 16/13/11 15/14/12 239/15/13 240/16/14
f 4/17/15 3/18/16 227/19/17 228/20/18
f 9/21/19 8/22/20 232/23/21 233/24/22
f 14/25/23 13/26/24 237/27/25 238/28/26
f 2/29/27 1/30/28 226/31/29 225/32/30
f 7/33/31 6/1/1 230/4/4 231/34/32
f 12/35/33 11/9/7 235/12/10 236/36/34
f 1/37/28 16/13/11 240/16/14 226/38/29
f 5/39/2 4/17/15 228/20/18 229/40/3
f 10/10/8 9/41/19 233/42/22 234/11/9
f 15/14/12 14/25/23 238/28/26 239/15/13
f 3/18/16 2/29/27 225/32/30 227/19/17
f 8/22/20 7/33/31 231/34/32 232/23/21
f 13/43/24 12/35/33 236/36/34 237/44/25
f 124/45/35 33/46/36 35/47/37 128/48/38
f 128/48/38 35/47/37 36/49/39 127/50/40
f 127/50/40 36/49/39 37/51/41 126/52/42
f 126/52/42 37/51/41 38/53/43 125/54/44
f 125/54/44 38/53/43 34/55/45 123/56/46
f 118/57/47 124/45/35 128/48/38 122/58/48
f 122/58/48 128/48/38 127/50/40 121/59/49
f 121/59/49 127/50/40 126/52/42 120/60/50
f 120/60/50 126/52/42 125/54/44 119/61/51
f 119/61/51 125/54/44 123/56/46 117/62/52
f 112/63/53 118/57/47 122/58/48 116/64/54
f 116/64/54 122/58/48 121/59/49 115/65/55
f 115/65/55 121/59/49 120/60/50 114/66/56
f 114/66/56 120/60/50 119/61/51 113/67/57
f 113/67/57 119/61/51 117/62/52 111/68/58
f 106/69/59 112/63/53 116/64/54 110/70/60
f 110/70/60 116/64/54 115/65/55 109/71/61
f 109/71/61 115/65/55 114/66/56 108/72/62
f 108/72/62 114/66/56 113/67/57 107/73/63
f 107/73/63 113/67/57 111/68/58 105/74/64
f 100/75/65 106/76/59 110/77/60 104/78/66
f 104/78/66 110/77/60 109/79/61 103/80/67
f 103/80/67 109/79/61 108/81/62 102/82/68
f 102/82/68 108/81/62 107/83/63 101/84/69
f 101/84/69 107/83/63 105/85/64 99/86/70
f 94/87/71 100/75/65 104/78/66 98/88/72
f 98/88/72 104/78/66 103/80/67 97/89/73
f 97/89/73 103/80/67 102/82/68 96/90/74
f 96/90/74 102/82/68 101/84/69 95/91/75
f 95/91/75 101/84/69 99/86/70 93/92/76
f 88/93/77 94/87/71 98/88/72 92/94/78
f 92/94/78 98/88/72 97/89/73 91/95/79
f 91/95/79 97/89/73 96/90/74 90/96/80
f 90/96/80 96/90/74 95/91/75 89/97/81
f 89/97/81 95/91/75 93/92/76 87/98/82
f 82/99/83 88/93/77 92/94/78 86/100/84
f 86/100/84 92/94/78 91/95/79 85/101/85
f 85/101/85 91/95/79 90/96/80 84/102/86
f 84/102/86 90/96/80 89/97/81 83/103/87
f 83/103/87 89/97/81 87/98/82 81/104/88
f 76/105/89 82/106/83 86/107/84 80/108/90
f 80/108/90 86/107/84 85/109/85 79/110/91
f 79/110/91 85/109/85 84/111/86 78/112/92
f 78/112/92 84/111/86 83/113/87 77/114/93
f 77/114/93 83/113/87 81/115/88 75/116/94
f 70/117/95 76/105/89 80/108/90 74/118/96
f 74/118/96 80/108/90 79/110/91 73/119/97
f 73/119/97 79/110/91 78/112/92 72/120/98
f 72/120/98 78/112/92 77/114/93 71/121/99
f 71/121/99 77/114/93 75/116/94 69/122/100
f 64/123/101 70/117/95 74/118/96 68/124/102
f 68/124/102 74/118/96 73/119/97 67/125/103
f 67/125/103 73/119/97 72/120/98 66/126/104
f 66/126/104 72/120/98 71/121/99 65/127/105
f 65/127/105 71/121/99 69/122/100 63/128/106
f 58/129/107 64/123/101 68/124/102 62/130/108
f 62/130/108 68/124/102 67/125/103 61/131/109
f 61/131/109 67/125/103 66/126/104 60/132/110
f 60/132/110 66/126/104 65/127/105 59/133/111
f 59/133/111 65/127/105 63/128/106 57/134/112
f 52/135/113 58/136/107 62/137/108 56/138/114
f 56/138/114 62/137/108 61/139/109 55/140/115
f 55/140/115 61/139/109 60/141/110 54/142/116
f 54/142/116 60/141/110 59/143/111 53/144/117
f 53/144/117 59/143/111 57/145/112 51/146/118
f 46/147/119 52/135/113 56/138/114 50/148/120
f 50/148/120 56/138/114 55/140/115 49/149/121
f 49/149/121 55/140/115 54/142/116 48/150/122
f 48/150/122 54/142/116 53/144/117 47/151/123
f 47/151/123 53/144/117 51/146/118 45/152/124
f 40/153/125 46/147/119 50/148/120 44/154/126
f 44/154/126 50/148/120 49/149/121 43/155/127
f 43/155/127 49/149/121 48/150/122 42/156/128
f 42/156/128 48/150/122 47/151/123 41/157/129
f 41/157/129 47/151/123 45/152/124 39/158/130
f 33/159/36 40/153/125 44/154/126 35/160/37
f 35/160/37 44/154/126 43/155/127 36/161/39
f 36/161/39 43/155/127 42/156/128 37/162/41
f 37/162/41 42/156/128 41/157/129 38/163/43
f 38/163/43 41/157/129 39/158/130 34/164/45
f 124/45/35 16/13/131 1/37/132 33/46/36
f 33/159/36 1/30/132 2/29/133 40/153/125
f 40/153/125 2/29/133 3/18/134 46/147/119
f 46/147/119 3/18/134 4/17/135 52/135/113
f 52/135/113 4/17/135 5/39/136 58/136/107
f 58/129/107 5/2/136 6/1/137 64/123/101
f 64/123/101 6/1/137 7/33/138 70/117/95
f 70/117/95 7/33/138 8/22/139 76/105/89
f 76/105/89 8/22/139 9/21/140 82/106/83
f 82/99/83 9/41/140 10/10/141 88/93/77
f 88/93/77 10/10/141 11/9/142 94/87/71
f 94/87/71 11/9/142 12/35/143 100/75/65
f 100/75/65 12/35/143 13/43/144 106/76/59
f 106/69/59 13/26/144 14/25/145 112/63/53
f 112/63/53 14/25/145 15/14/146 118/57/47
f 118/57/47 15/14/146 16/13/131 124/45/35
f 130/165/147 135/166/148 137/167/149 134/168/150
f 134/168/150 137/167/149 138/169/151 133/170/152
f 133/170/152 138/169/151 139/171/153 132/172/154
f 132/172/154 139/171/153 140/173/155 131/174/156
f 131/174/156 140/173/155 136/175/157 129/176/158
f 135/177/148 141/178/159 143/179/160 137/180/149
f 137/167/149 143/181/160 144/182/161 138/169/151
f 138/169/151 144/182/161 145/183/162 139/171/153
f 139/171/153 145/183/162 146/184/163 140/173/155
f 140/173/155 146/184/163 142/185/164 136/175/157
f 141/178/159 147/186/165 149/187/166 143/179/160
f 143/181/160 149/188/166 150/189/167 144/182/161
f 144/182/161 150/189/167 151/190/168 145/183/162
f 145/183/162 151/190/168 152/191/169 146/184/163
f 146/184/163 152/191/169 148/192/170 142/185/164
f 147/186/165 153/193/171 155/194/172 149/187/166
f 149/188/166 155/195/172 156/196/173 150/189/167
f 150/189/167 156/196/173 157/197/174 151/190/168
f 151/190/168 157/197/174 158/198/175 152/191/169
f 152/191/169 158/198/175 154/199/176 148/192/170
f 153/200/171 159/201/177 161/202/178 155/195/172
f 155/195/172 161/202/178 162/203/179 156/196/173
f 156/196/173 162/203/179 163/204/180 157/197/174
f 157/197/174 163/204/180 164/205/181 158/198/175
f 158/198/175 164/205/181 160/206/182 154/199/176
f 159/207/177 165/208/183 167/209/184 161/210/178
f 161/202/178 167/211/184 168/212/185 162/203/179
f 162/203/179 168/212/185 169/213/186 163/204/180
f 163/204/180 169/213/186 170/214/187 164/205/181
f 164/205/181 170/214/187 166/215/188 160/206/182
f 165/208/183 171/216/189 173/217/190 167/209/184
f 167/211/184 173/218/190 174/219/191 168/212/185
f 168/212/185 174/219/191 175/220/192 169/213/186
f 169/213/186 175/220/192 176/221/193 170/214/187
f 170/214/187 176/221/193 172/222/194 166/215/188
f 171/216/189 177/223/195 179/224/196 173/217/190
f 173/218/190 179/225/196 180/226/197 174/219/191
f 174/219/191 180/226/197 181/227/198 175/220/192
f 175/220/192 181/227/198 182/228/199 176/221/193
f 176/221/193 182/228/199 178/229/200 172/222/194
f 177/230/195 183/231/201 185/232/202 179/225/196
f 179/225/196 185/232/202 186/233/203 180/226/197
f 180/226/197 186/233/203 187/234/204 181/227/198
f 181/227/198 187/234/204 188/235/205 182/228/199
f 182/228/199 188/235/205 184/236/206 178/229/200
f 183/237/201 189/238/207 191/239/208 185/240/202
f 185/232/202 191/241/208 192/242/209 186/233/203
f 186/233/203 192/242/209 193/243/210 187/234/204
f 187/234/204 193/243/210 194/244/211 188/235/205
f 188/235/205 194/244/211 190/245/212 184/236/206
f 189/238/207 195/246/213 197/247/214 191/239/208
f 191/241/208 197/248/214 198/249/215 192/242/209
f 192/242/209 198/249/215 199/250/216 193/243/210
f 193/243/210 199/250/216 200/251/217 194/244/211
f 194/244/211 200/251/217 196/252/218 190/245/212
f 195/246/213 201/253/219 203/254/220 197/247/214
f 197/248/214 203/255/220 204/256/221 198/249/215
f 198/249/215 204/256/221 205/257/222 199/250/216
f 199/250/216 205/257/222 206/258/223 200/251/217
f 200/251/217 206/258/223 202/259/224 196/252/218
f 201/260/219 207/261/225 209/262/226 203/255/220
f 203/255/220 209/262/226 210/263/227 204/256/221
f 204/256/221 210/263/227 211/264/228 205/257/222
f 205/257/222 211/264/228 212/265/229 206/258/223
f 206/258/223 212/265/229 208/266/230 202/259/224
f 207/267/225 213/268/231 215/269/232 209/270/226
f 209/262/226 215/271/232 216/272/233 210/263/227
f 210/263/227 216/272/233 217/273/234 211/264/228
f 211/264/228 217/273/234 218/274/235 212/265/229
f 212/265/229 218/274/235 214/275/236 208/266/230
f 213/268/231 219/276/237 221/277/238 215/269/232
f 215/271/232 221/278/238 222/279/239 216/272/233
f 216/272/233 222/279/239 223/280/240 217/273/234
f 217/273/234 223/280/240 224/281/241 218/274/235
f 218/274/235 224/281/241 220/282/242 214/275/236
f 219/276/237 130/283/147 134/284/150 221/277/238
f 221/278/238 134/168/150 133/170/152 222/279/239
f 222/279/239 133/170/152 132/172/154 223/280/240
f 223/280/240 132/172/154 131/174/156 224/281/241
f 224/281/241 131/174/156 129/176/158 220/282/242
f 130/165/147 34/285/45 39/286/130 135/166/148
f 129/176/158 136/175/157 142/185/164 148/192/170 154/199/176 160/206/182 166/215/188 172/222/194 178/229/200 184/236/206 190/245/212 196/252/218 202/259/224 208/266/230 214/275/236 220/282/242
f 219/276/237 123/56/46 34/55/45 130/283/147
f 135/177/148 39/158/130 45/152/124 141/178/159
f 141/178/159 45/152/124 51/146/118 147/186/165
f 147/186/165 51/146/118 57/145/112 153/193/171
f 153/200/171 57/287/112 63/288/106 159/201/177
f 159/207/177 63/128/106 69/122/100 165/208/183
f 165/208/183 69/122/100 75/116/94 171/216/189
f 171/216/189 75/116/94 81/115/88 177/223/195
f 177/230/195 81/289/88 87/290/82 183/231/201
f 183/237/201 87/98/82 93/92/76 189/238/207
f 189/238/207 93/92/76 99/86/70 195/246/213
f 195/246/213 99/86/70 105/85/64 201/253/219
f 201/260/219 105/291/64 111/292/58 207/261/225
f 207/267/225 111/68/58 117/62/52 213/268/231
f 213/268/231 117/62/52 123/56/46 219/276/237
f 17/293/243 18/294/244 225/295/245 226/296/246
f 18/294/244 19/297/247 227/298/248 225/295/245
f 19/297/247 20/299/249 228/300/250 227/298/248
f 20/299/249 21/301/251 229/302/252 228/300/250
f 21/301/251 22/303/253 230/304/254 229/302/252
f 22/303/253 23/305/255 231/306/256 230/304/254
f 23/305/255 24/307/257 232/308/258 231/306/256
f 24/307/257 25/309/259 233/310/260 232/308/258
f 25/309/259 26/311/261 234/312/262 233/310/260
f 26/311/261 27/313/263 235/314/264 234/312/262
f 27/313/263 28/315/265 236/316/266 235/314/264
f 28/315/265 29/317/267 237/318/268 236/316/266
f 29/317/267 30/319/269 238/320/270 237/318/268
f 30/319/269 31/321/271 239/322/272 238/320/270
f 31/321/271 32/323/273 240/324/274 239/322/272
f 32/323/273 17/293/243 226/296/246 240/324/274
f 241/325/275 242/326/275 256/8/275 255/7/275 254/327/275 253/328/275 252/329/275 251/330/275 250/331/275 249/332/275 248/333/275 247/334/275 246/335/275 245/336/275 244/337/275 243/338/275
f 293/339/276 290/340/277 248/333/277 249/332/276
f 294/341/278 291/342/279 242/326/279 241/325/278
f 291/342/279 292/5/5 256/8/5 242/326/279
f 295/343/280 293/339/276 249/332/276 250/331/280
f 296/344/281 294/341/278 241/325/278 243/338/281
f 297/345/282 295/343/280 250/331/280 251/330/282
f 298/346/283 296/344/281 243/338/281 244/337/283
f 299/347/284 297/345/282 251/330/282 252/329/284
f 300/348/285 298/346/283 244/337/283 245/336/285
f 301/349/286 299/347/284 252/329/284 253/328/286
f 302/350/287 300/348/285 245/336/285 246/335/287
f 303/351/288 301/349/286 253/328/286 254/327/288
f 304/352/289 302/350/287 246/335/287 247/334/289
f 289/6/6 303/351/288 254/327/288 255/7/6
f 290/340/277 304/352/289 247/334/289 248/333/277
f 287/353/290 285/354/291 272/355/292 259/356/293
f 286/357/294 284/358/295 271/359/296 257/360/297
f 285/354/291 283/361/298 270/362/299 272/355/292
f 284/358/295 282/363/300 269/364/301 271/359/296
f 283/365/298 281/366/302 268/367/303 270/368/299
f 282/369/300 280/370/304 267/371/305 269/372/301
f 281/366/302 279/373/306 266/374/307 268/367/303
f 280/370/304 278/375/308 265/376/309 267/371/305
f 279/373/306 277/377/310 264/378/311 266/374/307
f 278/375/308 276/379/312 263/380/313 265/376/309
f 277/377/310 275/381/314 262/382/315 264/378/311
f 276/379/312 274/383/316 260/384/317 263/380/313
f 288/385/318 273/386/319 258/387/320 261/388/321
f 275/381/314 288/389/318 261/390/321 262/382/315
f 274/391/316 287/353/290 259/356/293 260/392/317
f 273/386/319 286/357/294 257/360/297 258/387/320
f 32/393/322 31/394/323 286/357/294 273/386/319
f 25/395/324 24/396/325 287/353/290 274/391/316
f 18/397/326 17/398/327 288/389/318 275/381/314
f 17/399/327 32/393/322 273/386/319 288/385/318
f 26/400/328 25/401/324 274/383/316 276/379/312
f 19/402/329 18/397/326 275/381/314 277/377/310
f 27/403/330 26/400/328 276/379/312 278/375/308
f 20/404/331 19/402/329 277/377/310 279/373/306
f 28/405/332 27/403/330 278/375/308 280/370/304
f 21/406/333 20/404/331 279/373/306 281/366/302
f 29/407/334 28/405/332 280/370/304 282/369/300
f 22/408/335 21/409/333 281/410/302 283/361/298
f 30/411/336 29/412/334 282/363/300 284/358/295
f 23/413/337 22/408/335 283/361/298 285/354/291
f 31/394/323 30/411/336 284/358/295 286/357/294
f 24/396/325 23/413/337 285/354/291 287/353/290
f 259/356/293 272/355/292 304/414/338 290/415/339
f 257/360/297 271/359/296 303/416/340 289/417/341
f 272/355/292 270/362/299 302/418/342 304/414/338
f 271/359/296 269/364/301 301/419/343 303/416/340
f 270/368/299 268/367/303 300/420/344 302/421/342
f 269/372/301 267/371/305 299/422/345 301/423/343
f 268/367/303 266/374/307 298/424/346 300/420/344
f 267/371/305 265/376/309 297/425/347 299/422/345
f 266/374/307 264/378/311 296/426/348 298/424/346
f 265/376/309 263/380/313 295/427/349 297/425/347
f 264/378/311 262/382/315 294/428/350 296/426/348
f 263/380/313 260/384/317 293/429/351 295/427/349
f 261/388/321 258/387/320 292/430/352 291/431/353
f 262/382/315 261/390/321 291/432/353 294/428/350
f 260/392/317 259/356/293 290/415/339 293/433/351
f 258/387/320 257/360/297 289/417/341 292/430/352
o aromastick_1
v -0.000177 0.006372 -0.018019
v -0.001682 0.256331 -0.022308
v 0.001284 0.006389 -0.017561
v -0.000222 0.256347 -0.021850
v 0.001992 0.006416 -0.016205
v 0.000487 0.256375 -0.020493
v 0.001534 0.006439 -0.014744
v 0.000029 0.256397 -0.019033
v 0.000177 0.006442 -0.014036
v -0.001328 0.256401 -0.018324
v -0.001284 0.006426 -0.014494
v -0.002789 0.256385 -0.018783
v -0.001992 0.006398 -0.015850
v -0.003497 0.256357 -0.020139
v -0.001534 0.006376 -0.017311
v -0.003039 0.256335 -0.021600
vn -0.0269 -0.0173 -0.9995
vn -0.1241 -0.0178 -0.9921
vn 0.5249 -0.0114 -0.8511
vn 0.7811 -0.0060 -0.6244
vn 0.9560 0.0007 -0.2935
vn 0.9960 0.0075 0.0889
vn 0.8416 0.0143 0.5399
vn 0.7153 0.0163 0.6986
vn 0.0269 0.0173 0.9995
vn 0.1241 0.0178 0.9921
vn -0.7811 0.0060 0.6244
vn -0.5249 0.0114 0.8511
vn -0.9960 -0.0075 -0.0889
vn -0.9560 -0.0007 0.2935
vn -0.0060 0.9998 -0.0172
vn -0.7153 -0.0163 -0.6986
vn -0.8416 -0.0143 -0.5399
vn 0.0060 -0.9998 0.0172
vt 0.212846 0.163251
vt 0.212846 0.009884
vt 0.271536 0.009884
vt 0.271536 0.163251
vt 0.313037 0.009884
vt 0.313037 0.163251
vt 0.655727 0.336386
vt 0.655727 0.183019
vt 0.714418 0.183019
vt 0.714418 0.336386
vt 0.755919 0.183019
vt 0.755919 0.336386
vt 0.884541 0.163251
vt 0.884541 0.009884
vt 0.943232 0.009884
vt 0.943232 0.163251
vt 0.655727 0.509521
vt 0.655727 0.356155
vt 0.697228 0.356155
vt 0.697228 0.509521
vt 0.051385 0.497846
vt 0.009884 0.456346
vt 0.009884 0.397655
vt 0.051385 0.356155
vt 0.110076 0.356155
vt 0.151576 0.397655
vt 0.151576 0.456346
vt 0.110076 0.497846
vt 0.755919 0.356155
vt 0.755919 0.509521
vt 0.171345 0.163251
vt 0.171345 0.009884
vt 0.171345 0.456346
vt 0.171345 0.397655
vt 0.212846 0.356155
vt 0.271536 0.356155
vt 0.313037 0.397655
vt 0.313037 0.456346
vt 0.271536 0.497846
vt 0.212846 0.497846
s 1
usemtl aroma_vase
f 305/434/354 306/435/355 308/436/356 307/437/357
f 307/437/357 308/436/356 310/438/358 309/439/359
f 309/440/359 310/441/358 312/442/360 311/443/361
f 311/443/361 312/442/360 314/444/362 313/445/363
f 313/446/363 314/447/362 316/448/364 315/449/365
f 315/450/365 316/451/364 318/452/366 317/453/367
f 308/454/368 306/455/368 320/456/368 318/457/368 316/458/368 314/459/368 312/460/368 310/461/368
f 317/453/367 318/452/366 320/462/369 319/463/370
f 319/464/370 320/465/369 306/435/355 305/434/354
f 305/466/371 307/467/371 309/468/371 311/469/371 313/470/371 315/471/371 317/472/371 319/473/371
o aromastick_3
v -0.013419 0.006391 -0.004368
v -0.019954 0.256299 -0.006152
v -0.011985 0.006432 -0.003834
v -0.018520 0.256341 -0.005618
v -0.011349 0.006459 -0.002442
v -0.017883 0.256367 -0.004226
v -0.011882 0.006455 -0.001007
v -0.018417 0.256363 -0.002792
v -0.013274 0.006423 -0.000370
v -0.019809 0.256332 -0.002155
v -0.014708 0.006382 -0.000904
v -0.021243 0.256290 -0.002688
v -0.015345 0.006356 -0.002296
v -0.021879 0.256264 -0.004080
v -0.014811 0.006359 -0.003731
v -0.021345 0.256267 -0.005515
vn 0.2187 -0.0012 -0.9758
vn -0.2336 -0.0131 -0.9722
vn 0.4769 0.0062 -0.8789
vn 0.7966 0.0165 -0.6043
vn 0.9916 0.0250 -0.1270
vn 0.9996 0.0262 0.0121
vn 0.6294 0.0220 0.7768
vn 0.7825 0.0249 0.6221
vn -0.2187 0.0012 0.9758
vn 0.2336 0.0131 0.9722
vn -0.7966 -0.0165 0.6043
vn -0.4769 -0.0062 0.8789
vn -0.9996 -0.0262 -0.0121
vn -0.9916 -0.0250 0.1270
vn -0.0261 0.9996 -0.0071
vn -0.7825 -0.0249 -0.6221
vn -0.6294 -0.0220 -0.7768
vn 0.0261 -0.9996 0.0071
vt 0.051385 0.336386
vt 0.051385 0.183019
vt 0.110076 0.183019
vt 0.110076 0.336386
vt 0.151576 0.183019
vt 0.151576 0.336386
vt 0.655727 0.682656
vt 0.655727 0.529290
vt 0.714418 0.529290
vt 0.714418 0.682656
vt 0.755919 0.529290
vt 0.755919 0.682656
vt 0.884541 0.336386
vt 0.884541 0.183019
vt 0.943232 0.183019
vt 0.943232 0.336386
vt 0.494267 0.809093
vt 0.494267 0.655727
vt 0.535767 0.655727
vt 0.535767 0.809093
vt 0.535767 0.151576
vt 0.494267 0.110076
vt 0.494267 0.051385
vt 0.535767 0.009884
vt 0.594458 0.009884
vt 0.635958 0.051385
vt 0.635958 0.110076
vt 0.594458 0.151576
vt 0.594458 0.655727
vt 0.594458 0.809093
vt 0.009884 0.336386
vt 0.009884 0.183019
vt 0.494267 0.271536
vt 0.494267 0.212846
vt 0.535767 0.171345
vt 0.594458 0.171345
vt 0.635958 0.212846
vt 0.635958 0.271536
vt 0.594458 0.313037
vt 0.535767 0.313037
s 1
usemtl aroma_vase
f 321/474/372 322/475/373 324/476/374 323/477/375
f 323/477/375 324/476/374 326/478/376 325/479/377
f 325/480/377 326/481/376 328/482/378 327/483/379
f 327/483/379 328/482/378 330/484/380 329/485/381
f 329/486/381 330/487/380 332/488/382 331/489/383
f 331/490/383 332/491/382 334/492/384 333/493/385
f 324/494/386 322/495/386 336/496/386 334/497/386 332/498/386 330/499/386 328/500/386 326/501/386
f 333/493/385 334/492/384 336/502/387 335/503/388
f 335/504/388 336/505/387 322/475/373 321/474/372
f 321/506/389 323/507/389 325/508/389 327/509/389 329/510/389 331/511/389 333/512/389 335/513/389
o aromastick_2
v -0.010185 0.006401 -0.012434
v -0.012988 0.256367 -0.015423
v -0.010419 0.006380 -0.013947
v -0.013222 0.256346 -0.016936
v -0.009515 0.006375 -0.015182
v -0.012318 0.256342 -0.018171
v -0.008002 0.006389 -0.015416
v -0.010805 0.256356 -0.018405
v -0.006767 0.006414 -0.014512
v -0.009570 0.256380 -0.017500
v -0.006533 0.006435 -0.012999
v -0.009336 0.256401 -0.015988
v -0.007438 0.006439 -0.011764
v -0.010241 0.256406 -0.014753
v -0.008950 0.006425 -0.011530
v -0.011753 0.256392 -0.014519
vn -0.7371 -0.0002 0.6758
vn -0.9310 -0.0061 0.3649
vn -0.9495 -0.0144 -0.3134
vn -0.9935 -0.0125 -0.1131
vn -0.5436 -0.0161 -0.8392
vn -0.4774 -0.0159 -0.8786
vn 0.1064 -0.0107 -0.9943
vn 0.4101 -0.0063 -0.9120
vn 0.7371 0.0002 -0.6758
vn 0.9310 0.0061 -0.3649
vn 0.9935 0.0125 0.1131
vn 0.9495 0.0144 0.3134
vn 0.4774 0.0159 0.8786
vn 0.5436 0.0161 0.8392
vn -0.0112 0.9999 -0.0120
vn -0.4101 0.0063 0.9120
vn -0.1064 0.0107 0.9943
vn 0.0112 -0.9999 0.0120
vt 0.212846 0.336386
vt 0.212846 0.183019
vt 0.271536 0.183019
vt 0.271536 0.336386
vt 0.313037 0.183019
vt 0.313037 0.336386
vt 0.332806 0.820768
vt 0.332806 0.667402
vt 0.391497 0.667402
vt 0.391497 0.820768
vt 0.432997 0.667402
vt 0.432997 0.820768
vt 0.884541 0.509521
vt 0.884541 0.356155
vt 0.943232 0.356155
vt 0.943232 0.509521
vt 0.009884 0.832442
vt 0.009884 0.679076
vt 0.051385 0.679076
vt 0.051385 0.832442
vt 0.535767 0.474498
vt 0.494267 0.432997
vt 0.494267 0.374306
vt 0.535767 0.332806
vt 0.594458 0.332806
vt 0.635958 0.374306
vt 0.635958 0.432997
vt 0.594458 0.474498
vt 0.110076 0.679076
vt 0.110076 0.832442
vt 0.171345 0.336386
vt 0.171345 0.183019
vt 0.494267 0.594458
vt 0.494267 0.535767
vt 0.535767 0.494267
vt 0.594458 0.494267
vt 0.635958 0.535767
vt 0.635958 0.594458
vt 0.594458 0.635958
vt 0.535767 0.635958
s 1
usemtl aroma_vase
f 337/514/390 338/515/391 340/516/392 339/517/393
f 339/517/393 340/516/392 342/518/394 341/519/395
f 341/520/395 342/521/394 344/522/396 343/523/397
f 343/523/397 344/522/396 346/524/398 345/525/399
f 345/526/399 346/527/398 348/528/400 347/529/401
f 347/530/401 348/531/400 350/532/402 349/533/403
f 340/534/404 338/535/404 352/536/404 350/537/404 348/538/404 346/539/404 344/540/404 342/541/404
f 349/533/403 350/532/402 352/542/405 351/543/406
f 351/544/406 352/545/405 338/515/391 337/514/390
f 337/546/407 339/547/407 341/548/407 343/549/407 345/550/407 347/551/407 349/552/407 351/553/407
o aromastick_4
v -0.014134 0.006361 0.007667
v -0.018549 0.256293 0.011498
v -0.014875 0.006369 0.006327
v -0.019290 0.256300 0.010159
v -0.014452 0.006399 0.004856
v -0.018867 0.256330 0.008688
v -0.013113 0.006434 0.004116
v -0.017528 0.256365 0.007947
v -0.011642 0.006453 0.004539
v -0.016057 0.256385 0.008371
v -0.010901 0.006446 0.005879
v -0.015316 0.256377 0.009710
v -0.011324 0.006416 0.007349
v -0.015739 0.256347 0.011181
v -0.012663 0.006381 0.008090
v -0.017078 0.256312 0.011921
vn -0.5814 -0.0227 0.8133
vn -0.6450 -0.0231 0.7638
vn -0.9787 -0.0204 0.2042
vn -0.9987 -0.0169 -0.0477
vn -0.8926 -0.0089 -0.4507
vn -0.6137 0.0013 -0.7895
vn -0.3301 0.0086 -0.9439
vn 0.0358 0.0160 -0.9992
vn 0.5814 0.0227 -0.8133
vn 0.6450 0.0231 -0.7638
vn 0.9987 0.0169 0.0477
vn 0.9787 0.0204 -0.2042
vn 0.6137 -0.0013 0.7895
vn 0.8926 0.0089 0.4507
vn -0.0177 0.9997 0.0153
vn -0.0358 -0.0160 0.9992
vn 0.3301 -0.0086 0.9439
vn 0.0177 -0.9997 -0.0153
vt 0.432997 0.163251
vt 0.432997 0.009884
vt 0.474498 0.009884
vt 0.474498 0.163251
vt 0.775688 0.990116
vt 0.775688 0.836749
vt 0.834378 0.836749
vt 0.834378 0.990116
vt 0.171345 0.844116
vt 0.171345 0.690750
vt 0.212846 0.690750
vt 0.212846 0.844116
vt 0.271536 0.690750
vt 0.271536 0.844116
vt 0.655727 0.855791
vt 0.655727 0.702425
vt 0.697228 0.702425
vt 0.697228 0.855791
vt 0.755919 0.702425
vt 0.755919 0.855791
vt 0.374306 0.647633
vt 0.332806 0.606132
vt 0.332806 0.547442
vt 0.374306 0.505941
vt 0.432997 0.505941
vt 0.474498 0.547442
vt 0.474498 0.606132
vt 0.432997 0.647633
vt 0.332806 0.163251
vt 0.332806 0.009884
vt 0.374306 0.009884
vt 0.374306 0.163251
vt 0.009884 0.617806
vt 0.009884 0.559116
vt 0.051385 0.517615
vt 0.110076 0.517615
vt 0.151576 0.559116
vt 0.151576 0.617806
vt 0.110076 0.659307
vt 0.051385 0.659307
s 1
usemtl aroma_vase
f 353/554/408 354/555/409 356/556/410 355/557/411
f 355/558/411 356/559/410 358/560/412 357/561/413
f 357/562/413 358/563/412 360/564/414 359/565/415
f 359/565/415 360/564/414 362/566/416 361/567/417
f 361/568/417 362/569/416 364/570/418 363/571/419
f 363/571/419 364/570/418 366/572/420 365/573/421
f 356/574/422 354/575/422 368/576/422 366/577/422 364/578/422 362/579/422 360/580/422 358/581/422
f 365/582/421 366/583/420 368/584/423 367/585/424
f 367/585/424 368/584/423 354/555/409 353/554/408
f 353/586/425 355/587/425 357/588/425 359/589/425 361/590/425 363/591/425 365/592/425 367/593/425
o aromastick_5
v -0.006907 0.006407 0.013160
v -0.010642 0.256339 0.017677
v -0.008260 0.006374 0.013876
v -0.011994 0.256305 0.018393
v -0.009723 0.006360 0.013427
v -0.013458 0.256292 0.017943
v -0.010440 0.006374 0.012074
v -0.014174 0.256305 0.016591
v -0.009990 0.006407 0.010611
v -0.013725 0.256339 0.015128
v -0.008638 0.006440 0.009895
v -0.012372 0.256372 0.014412
v -0.007175 0.006454 0.010345
v -0.010909 0.256385 0.014862
v -0.006458 0.006440 0.011697
v -0.010193 0.256372 0.016214
vn 0.8934 0.0052 0.4493
vn 0.6092 -0.0052 0.7930
vn -0.0266 -0.0185 0.9995
vn 0.2878 -0.0130 0.9576
vn -0.6370 -0.0234 0.7705
vn -0.9767 -0.0185 0.2140
vn -0.9946 -0.0130 -0.1027
vn -0.8934 -0.0052 -0.4493
vn -0.6092 0.0052 -0.7930
vn -0.2878 0.0130 -0.9576
vn 0.0266 0.0185 -0.9995
vn 0.6370 0.0234 -0.7705
vn -0.0149 0.9997 0.0181
vn 0.9946 0.0130 0.1027
vn 0.9767 0.0185 -0.2140
vn 0.0149 -0.9997 -0.0181
vt 0.051385 0.163251
vt 0.051385 0.009884
vt 0.110076 0.009884
vt 0.110076 0.163251
vt 0.151576 0.009884
vt 0.151576 0.163251
vt 0.171345 0.670981
vt 0.171345 0.517615
vt 0.230036 0.517615
vt 0.230036 0.670981
vt 0.271536 0.517615
vt 0.271536 0.670981
vt 0.879668 0.843253
vt 0.879668 0.689887
vt 0.938359 0.689887
vt 0.938359 0.843253
vt 0.655727 0.163251
vt 0.655727 0.009884
vt 0.697228 0.009884
vt 0.697228 0.163251
vt 0.374306 0.324711
vt 0.332806 0.283211
vt 0.332806 0.224520
vt 0.374306 0.183019
vt 0.432997 0.183019
vt 0.474498 0.224520
vt 0.474498 0.283211
vt 0.432997 0.324711
vt 0.755919 0.009884
vt 0.755919 0.163251
vt 0.009884 0.163251
vt 0.009884 0.009884
vt 0.332806 0.444671
vt 0.332806 0.385981
vt 0.374306 0.344480
vt 0.432997 0.344480
vt 0.474498 0.385981
vt 0.474498 0.444671
vt 0.432997 0.486172
vt 0.374306 0.486172
s 1
usemtl aroma_vase
f 369/594/426 370/595/427 372/596/428 371/597/429
f 371/597/429 372/596/428 374/598/430 373/599/430
f 373/600/430 374/601/430 376/602/431 375/603/432
f 375/603/432 376/602/431 378/604/433 377/605/434
f 377/606/434 378/607/433 380/608/435 379/609/436
f 379/610/436 380/611/435 382/612/437 381/613/437
f 372/614/438 370/615/438 384/616/438 382/617/438 380/618/438 378/619/438 376/620/438 374/621/438
f 381/613/437 382/612/437 384/622/439 383/623/440
f 383/624/440 384/625/439 370/595/427 369/594/426
f 369/626/441 371/627/441 373/628/441 375/629/441 377/630/441 379/631/441 381/632/441 383/633/441
