# Blender 4.5.3 LTS
# www.blender.org
mtllib photo_frame.mtl
o photo_frame
v 0.031270 0.242230 -0.067500
v 0.056791 0.007362 -0.067500
v 0.031270 0.242230 0.067500
v 0.056791 0.007362 0.067500
v 0.026418 0.148029 -0.015000
v 0.031819 0.098322 -0.015000
v 0.026418 0.148029 0.015000
v 0.031819 0.098322 0.015000
v 0.030528 0.249064 -0.075000
v 0.057534 0.000527 -0.075000
v 0.030528 0.249064 0.075000
v 0.057534 0.000527 0.075000
v 0.026299 0.241689 -0.067500
v 0.051820 0.006822 -0.067500
v 0.026299 0.241689 0.067500
v 0.051820 0.006822 0.067500
v 0.042622 -0.001093 -0.075000
v 0.042622 -0.001093 0.075000
v 0.015615 0.247444 0.075000
v 0.015615 0.247444 -0.075000
v 0.007567 0.000028 -0.015000
v 0.007567 0.000028 0.015000
v -0.007567 -0.000028 0.015000
v -0.007567 -0.000028 -0.015000
vn -0.1080 0.9941 -0.0000
vn -0.0000 -0.0000 1.0000
vn -0.0000 -0.0000 -1.0000
vn 0.1080 -0.9941 -0.0000
vn 0.9941 0.1080 -0.0000
vn -0.9941 -0.1080 -0.0000
vn 0.0037 -1.0000 -0.0000
vn 0.9709 -0.2395 -0.0000
vn -0.9747 0.2237 -0.0000
vt 0.923533 0.002333
vt 0.962415 0.002333
vt 0.962415 0.391151
vt 0.923533 0.391151
vt 0.789301 0.650363
vt 0.789300 0.002333
vt 0.828182 0.002333
vt 0.828182 0.650363
vt 0.876395 0.002333
vt 0.918867 0.124782
vt 0.914599 0.387178
vt 0.876395 0.396095
vt 0.962391 0.789579
vt 0.923533 0.789579
vt 0.923533 0.400761
vt 0.962391 0.400761
vt 0.984707 0.969324
vt 0.984707 0.619387
vt 0.997659 0.619387
vt 0.997659 0.969324
vt 0.832848 0.650363
vt 0.832848 0.002333
vt 0.871730 0.002333
vt 0.871730 0.650363
vt 0.415258 0.020111
vt 0.415258 0.631028
vt 0.395817 0.648806
vt 0.395817 0.002333
vt 0.765194 0.631028
vt 0.765194 0.020111
vt 0.784635 0.002333
vt 0.784635 0.648806
vt 0.997291 0.004074
vt 0.997291 0.995413
vt 0.002709 0.995414
vt 0.002709 0.004074
vt 0.967081 0.614722
vt 0.967081 0.002333
vt 0.980041 0.002333
vt 0.980041 0.614722
vt 0.967080 0.969324
vt 0.967081 0.619387
vt 0.980041 0.619387
vt 0.980041 0.969324
vt 0.997667 0.002333
vt 0.997667 0.614722
vt 0.984707 0.614722
vt 0.984707 0.002333
vt 0.157860 0.390300
vt 0.235624 0.390300
vt 0.391151 0.648945
vt 0.002333 0.648945
vt 0.157860 0.260978
vt 0.002333 0.002333
vt 0.235624 0.260978
vt 0.391151 0.002333
vt 0.478246 0.653472
vt 0.517381 0.653472
vt 0.517381 0.731235
vt 0.478246 0.731235
vt 0.395817 0.653472
vt 0.473580 0.653472
vt 0.473580 0.905624
vt 0.395817 0.905624
vt 0.235624 0.640716
vt 0.157860 0.640716
vt 0.876396 0.523211
vt 0.918867 0.400761
vt 0.918867 0.794524
vt 0.880664 0.785606
s 0
usemtl wood
f 9/1/1 20/2/1 19/3/1 11/4/1
f 12/5/2 11/6/2 19/7/2 18/8/2
f 5/9/3 6/10/3 21/11/3 24/12/3
f 17/13/4 10/14/4 12/15/4 18/16/4
f 1/17/4 3/18/4 15/19/4 13/20/4
f 17/21/3 20/22/3 9/23/3 10/24/3
f 1/25/5 2/26/5 10/27/5 9/28/5
f 4/29/5 3/30/5 11/31/5 12/32/5
f 3/30/5 1/25/5 9/28/5 11/31/5
f 2/26/5 4/29/5 12/32/5 10/27/5
f 2/37/2 1/38/2 13/39/2 14/40/2
f 4/41/1 2/42/1 14/43/1 16/44/1
f 3/45/3 4/46/3 16/47/3 15/48/3
f 8/49/6 6/50/6 17/51/6 18/52/6
f 7/53/6 8/49/6 18/52/6 19/54/6
f 6/50/6 5/55/6 20/56/6 17/51/6
f 5/55/6 7/53/6 19/54/6 20/56/6
f 22/57/7 23/58/7 24/59/7 21/60/7
f 6/61/8 8/62/8 22/63/8 21/64/8
f 7/53/9 5/55/9 24/65/9 23/66/9
f 8/67/2 7/68/2 23/69/2 22/70/2
usemtl photo
f 14/33/5 13/34/5 15/35/5 16/36/5
