# Blender 4.5.3 LTS
# www.blender.org
mtllib nightstand.mtl
o nightstand
v 0.350000 0.800000 -0.350000
v 0.350000 0.000000 -0.350000
v 0.350000 0.800000 0.350000
v 0.350000 0.000000 0.350000
v -0.350000 0.800000 -0.350000
v -0.350000 0.000000 -0.350000
v -0.350000 0.800000 0.350000
v -0.350000 0.000000 0.350000
v -0.350000 0.266667 0.350000
v -0.350000 0.533333 0.350000
v -0.350000 0.533333 -0.350000
v -0.350000 0.266667 -0.350000
v -0.350000 0.553333 0.332500
v -0.350000 0.780000 0.332500
v -0.350000 0.780000 -0.332500
v -0.350000 0.553333 -0.332500
v -0.350000 0.020000 0.332500
v -0.350000 0.246667 0.332500
v -0.350000 0.246667 -0.332500
v -0.350000 0.020000 -0.332500
v -0.350000 0.286667 0.332500
v -0.350000 0.513333 0.332500
v -0.350000 0.513333 -0.332500
v -0.350000 0.286667 -0.332500
v 0.250000 0.553333 0.332500
v 0.250000 0.780000 0.332500
v 0.250000 0.553333 -0.332500
v 0.250000 0.780000 -0.332500
v 0.250000 0.020000 0.332500
v 0.250000 0.246667 0.332500
v 0.250000 0.020000 -0.332500
v 0.250000 0.246667 -0.332500
v 0.250000 0.286667 0.332500
v 0.250000 0.513333 0.332500
v 0.250000 0.286667 -0.332500
v 0.250000 0.513333 -0.332500
vn -0.0000 1.0000 -0.0000
vn -0.0000 -1.0000 -0.0000
vn -0.0000 -0.0000 -1.0000
vn 1.0000 -0.0000 -0.0000
vn -0.0000 -0.0000 1.0000
vn -1.0000 -0.0000 -0.0000
vt 0.509881 0.006021
vt 0.509881 0.165946
vt 0.349956 0.165946
vt 0.349956 0.006021
vt 0.349956 0.524732
vt 0.349956 0.372803
vt 0.487035 0.372803
vt 0.487035 0.524732
vt 0.509881 0.200835
vt 0.509881 0.360760
vt 0.349956 0.360760
vt 0.349956 0.200835
vt 0.006021 0.127869
vt 0.006021 0.066945
vt 0.006021 0.006021
vt 0.165946 0.006021
vt 0.165946 0.188793
vt 0.006021 0.188793
vt 0.177989 0.188793
vt 0.177989 0.006021
vt 0.337914 0.006021
vt 0.337914 0.188793
vt 0.143100 0.395649
vt 0.143100 0.547578
vt 0.006021 0.547578
vt 0.006021 0.395649
vt 0.197505 0.722792
vt 0.249290 0.722792
vt 0.249290 0.859871
vt 0.197505 0.859871
vt 0.006021 0.383607
vt 0.006021 0.200835
vt 0.165946 0.200835
vt 0.165946 0.261759
vt 0.165946 0.322683
vt 0.165946 0.383607
vt 0.177989 0.261759
vt 0.177989 0.200835
vt 0.181987 0.205405
vt 0.181987 0.257190
vt 0.337914 0.200835
vt 0.333916 0.205405
vt 0.337914 0.261759
vt 0.333916 0.257190
vt 0.177989 0.383607
vt 0.177989 0.322683
vt 0.181987 0.327252
vt 0.181987 0.379037
vt 0.337914 0.322683
vt 0.333916 0.327252
vt 0.337914 0.383607
vt 0.333916 0.379037
vt 0.181987 0.266328
vt 0.181987 0.318114
vt 0.333916 0.266328
vt 0.333916 0.318114
vt 0.795857 0.536774
vt 0.847643 0.536774
vt 0.847643 0.688703
vt 0.795858 0.688703
vt 0.796504 0.372803
vt 0.848289 0.372803
vt 0.848289 0.524732
vt 0.796504 0.524732
vt 0.865246 0.306272
vt 0.813461 0.306272
vt 0.813461 0.169193
vt 0.865246 0.169193
vt 0.006021 0.722792
vt 0.057807 0.722792
vt 0.057807 0.859871
vt 0.006021 0.859871
vt 0.292221 0.395649
vt 0.292221 0.547578
vt 0.155142 0.547578
vt 0.155142 0.395649
vt 0.499078 0.524732
vt 0.499078 0.372803
vt 0.636156 0.372803
vt 0.636156 0.524732
vt 0.121634 0.859871
vt 0.069849 0.859871
vt 0.069849 0.722792
vt 0.121634 0.722792
vt 0.261333 0.722792
vt 0.313118 0.722792
vt 0.313118 0.859871
vt 0.261333 0.859871
vt 0.659003 0.006021
vt 0.659003 0.157950
vt 0.521924 0.157950
vt 0.521924 0.006021
vt 0.521924 0.321921
vt 0.521924 0.169993
vt 0.659003 0.169993
vt 0.659003 0.321921
vt 0.185462 0.859871
vt 0.133677 0.859871
vt 0.133677 0.722792
vt 0.185462 0.722792
s 0
usemtl nightstand
f 1/1/1 5/2/1 7/3/1 3/4/1
f 20/5/1 17/6/1 29/7/1 31/8/1
f 6/9/2 2/10/2 4/11/2 8/12/2
f 12/13/3 11/14/3 5/15/3 1/16/3 2/17/3 6/18/3
f 2/19/4 1/20/4 3/21/4 4/22/4
f 14/23/2 15/24/2 28/25/2 26/26/2
f 23/27/5 24/28/5 35/29/5 36/30/5
f 4/31/5 3/32/5 7/33/5 10/34/5 9/35/5 8/36/5
f 10/37/6 7/38/6 14/39/6 13/40/6
f 7/38/6 5/41/6 15/42/6 14/39/6
f 5/41/6 11/43/6 16/44/6 15/42/6
f 11/43/6 10/37/6 13/40/6 16/44/6
f 8/45/6 9/46/6 18/47/6 17/48/6
f 9/46/6 12/49/6 19/50/6 18/47/6
f 12/49/6 6/51/6 20/52/6 19/50/6
f 6/51/6 8/45/6 17/48/6 20/52/6
f 9/46/6 10/37/6 22/53/6 21/54/6
f 10/37/6 11/43/6 23/55/6 22/53/6
f 11/43/6 12/49/6 24/56/6 23/55/6
f 12/49/6 9/46/6 21/54/6 24/56/6
f 29/57/6 30/58/6 32/59/6 31/60/6
f 33/61/6 34/62/6 36/63/6 35/64/6
f 21/65/3 22/66/3 34/67/3 33/68/3
f 15/69/5 16/70/5 27/71/5 28/72/5
f 18/73/2 19/74/2 32/75/2 30/76/2
f 24/77/1 21/78/1 33/79/1 35/80/1
f 13/81/3 14/82/3 26/83/3 25/84/3
f 19/85/5 20/86/5 31/87/5 32/88/5
f 22/89/2 23/90/2 36/91/2 34/92/2
f 16/93/1 13/94/1 25/95/1 27/96/1
f 17/97/3 18/98/3 30/99/3 29/100/3
o latch_1
v 0.250000 0.555333 0.330750
v 0.250000 0.778000 0.330750
v 0.250000 0.778000 -0.330750
v 0.250000 0.555333 -0.330750
v -0.350000 0.555333 0.330750
v -0.350000 0.778000 0.330750
v -0.350000 0.555333 -0.330750
v -0.350000 0.778000 -0.330750
v 0.250000 0.778000 0.330750
v 0.250000 0.778000 -0.330750
v -0.350000 0.778000 -0.330750
v -0.350000 0.778000 0.330750
v 0.236000 0.778000 0.316750
v 0.236000 0.778000 -0.316750
v -0.336000 0.778000 -0.316750
v -0.336000 0.778000 0.316750
v 0.236000 0.578000 0.316750
v 0.236000 0.578000 -0.316750
v -0.336000 0.578000 0.316750
v -0.336000 0.578000 -0.316750
v -0.371060 0.666667 -0.021060
v -0.350000 0.666667 -0.021060
v -0.371060 0.658607 -0.019457
v -0.350000 0.658607 -0.019457
v -0.371060 0.651775 -0.014892
v -0.350000 0.651775 -0.014892
v -0.371060 0.647210 -0.008059
v -0.350000 0.647210 -0.008059
v -0.371060 0.645607 -0.000000
v -0.350000 0.645607 -0.000000
v -0.371060 0.647210 0.008059
v -0.350000 0.647210 0.008059
v -0.371060 0.651775 0.014892
v -0.350000 0.651775 0.014892
v -0.371060 0.658607 0.019457
v -0.350000 0.658607 0.019457
v -0.371060 0.666667 0.021060
v -0.350000 0.666667 0.021060
v -0.371060 0.674726 0.019457
v -0.350000 0.674726 0.019457
v -0.371060 0.681558 0.014892
v -0.350000 0.681558 0.014892
v -0.371060 0.686124 0.008059
v -0.350000 0.686124 0.008059
v -0.371060 0.687727 -0.000000
v -0.350000 0.687727 -0.000000
v -0.371060 0.686124 -0.008059
v -0.350000 0.686124 -0.008059
v -0.371060 0.681558 -0.014892
v -0.350000 0.681558 -0.014892
v -0.371060 0.674726 -0.019457
v -0.350000 0.674726 -0.019457
v -0.371060 0.666667 -0.025272
v -0.371060 0.656995 -0.023348
v -0.371060 0.648797 -0.017870
v -0.371060 0.643318 -0.009671
v -0.371060 0.641395 -0.000000
v -0.371060 0.643318 0.009671
v -0.371060 0.648797 0.017870
v -0.371060 0.656995 0.023348
v -0.371060 0.666667 0.025272
v -0.371060 0.676338 0.023348
v -0.371060 0.684537 0.017870
v -0.371060 0.690015 0.009671
v -0.371060 0.691939 -0.000000
v -0.371060 0.690015 -0.009671
v -0.371060 0.684537 -0.017870
v -0.371060 0.676338 -0.023348
v -0.385100 0.666667 -0.012388
v -0.378782 0.666667 -0.025272
v -0.384619 0.666667 -0.017319
v -0.383249 0.666667 -0.021498
v -0.381200 0.666667 -0.024291
v -0.378782 0.656995 -0.023348
v -0.385100 0.661926 -0.011445
v -0.381200 0.657371 -0.022442
v -0.383249 0.658440 -0.019862
v -0.384619 0.660039 -0.016000
v -0.378782 0.648797 -0.017870
v -0.385100 0.657907 -0.008760
v -0.381200 0.649490 -0.017177
v -0.383249 0.651465 -0.015202
v -0.384619 0.654420 -0.012246
v -0.378782 0.643318 -0.009671
v -0.385100 0.655221 -0.004741
v -0.381200 0.644224 -0.009296
v -0.383249 0.646805 -0.008227
v -0.384619 0.650666 -0.006628
v -0.378782 0.641395 -0.000000
v -0.385100 0.654278 -0.000000
v -0.381200 0.642375 -0.000000
v -0.383249 0.645168 -0.000000
v -0.384619 0.649348 -0.000000
v -0.378782 0.643318 0.009671
v -0.385100 0.655221 0.004741
v -0.381200 0.644224 0.009296
v -0.383249 0.646805 0.008227
v -0.384619 0.650666 0.006628
v -0.378782 0.648797 0.017870
v -0.385100 0.657907 0.008760
v -0.381200 0.649490 0.017177
v -0.383249 0.651465 0.015202
v -0.384619 0.654420 0.012246
v -0.378782 0.656995 0.023348
v -0.385100 0.661926 0.011445
v -0.381200 0.657371 0.022442
v -0.383249 0.658440 0.019862
v -0.384619 0.660039 0.016000
v -0.378782 0.666667 0.025272
v -0.385100 0.666667 0.012388
v -0.381200 0.666667 0.024291
v -0.383249 0.666667 0.021498
v -0.384619 0.666667 0.017319
v -0.378782 0.676338 0.023348
v -0.385100 0.671407 0.011445
v -0.381200 0.675963 0.022442
v -0.383249 0.674894 0.019862
v -0.384619 0.673294 0.016000
v -0.378782 0.684537 0.017870
v -0.385100 0.675427 0.008760
v -0.381200 0.683843 0.017177
v -0.383249 0.681868 0.015202
v -0.384619 0.678913 0.012246
v -0.378782 0.690015 0.009671
v -0.385100 0.678112 0.004741
v -0.381200 0.689109 0.009296
v -0.383249 0.686529 0.008227
v -0.384619 0.682667 0.006628
v -0.378782 0.691939 -0.000000
v -0.385100 0.679055 -0.000000
v -0.381200 0.690958 -0.000000
v -0.383249 0.688165 -0.000000
v -0.384619 0.683985 -0.000000
v -0.378782 0.690015 -0.009671
v -0.385100 0.678112 -0.004741
v -0.381200 0.689109 -0.009296
v -0.383249 0.686529 -0.008227
v -0.384619 0.682667 -0.006628
v -0.378782 0.684537 -0.017870
v -0.385100 0.675427 -0.008760
v -0.381200 0.683843 -0.017177
v -0.383249 0.681868 -0.015202
v -0.384619 0.678913 -0.012246
v -0.378782 0.676338 -0.023348
v -0.385100 0.671407 -0.011445
v -0.381200 0.675963 -0.022442
v -0.383249 0.674894 -0.019862
v -0.384619 0.673294 -0.016000
vn -0.0000 -0.0000 -1.0000
vn 1.0000 -0.0000 -0.0000
vn -1.0000 -0.0000 -0.0000
vn -0.0000 -1.0000 -0.0000
vn -0.0000 -0.0000 1.0000
vn -0.0000 1.0000 -0.0000
vn -0.0000 -0.3827 -0.9239
vn -0.0000 -0.7071 -0.7071
vn -0.0000 -0.9239 -0.3827
vn -0.0000 -0.9239 0.3827
vn -0.0000 -0.7071 0.7071
vn -0.0000 -0.3827 0.9239
vn -0.0000 0.3827 0.9239
vn -0.0000 0.7071 0.7071
vn -0.0000 0.9239 0.3827
vn -0.0000 0.9239 -0.3827
vn -0.0000 0.7071 -0.7071
vn -0.0000 0.3827 -0.9239
vn -0.1872 -0.0000 -0.9823
vn -0.1872 -0.3759 -0.9076
vn -0.5984 -0.3066 -0.7402
vn -0.5984 -0.0000 -0.8012
vn -0.8813 -0.1808 -0.4366
vn -0.8813 -0.0000 -0.4725
vn -0.9758 -0.0836 -0.2019
vn -0.9758 -0.0000 -0.2185
vn -0.9985 -0.0209 -0.0505
vn -0.9985 -0.0000 -0.0547
vn -0.1872 -0.6946 -0.6946
vn -0.5984 -0.5666 -0.5666
vn -0.8813 -0.3341 -0.3341
vn -0.9758 -0.1545 -0.1545
vn -0.9985 -0.0386 -0.0386
vn -0.1872 -0.9076 -0.3759
vn -0.5984 -0.7402 -0.3066
vn -0.8813 -0.4366 -0.1808
vn -0.9758 -0.2019 -0.0836
vn -0.9985 -0.0505 -0.0209
vn -0.1872 -0.9823 -0.0000
vn -0.5984 -0.8012 -0.0000
vn -0.8813 -0.4725 -0.0000
vn -0.9758 -0.2185 -0.0000
vn -0.9985 -0.0547 -0.0000
vn -0.1872 -0.9076 0.3759
vn -0.5984 -0.7402 0.3066
vn -0.8813 -0.4366 0.1808
vn -0.9758 -0.2019 0.0836
vn -0.9985 -0.0505 0.0209
vn -0.1872 -0.6946 0.6946
vn -0.5984 -0.5666 0.5666
vn -0.8813 -0.3341 0.3341
vn -0.9758 -0.1545 0.1545
vn -0.9985 -0.0386 0.0386
vn -0.1872 -0.3759 0.9076
vn -0.5984 -0.3066 0.7402
vn -0.8813 -0.1808 0.4366
vn -0.9758 -0.0836 0.2019
vn -0.9985 -0.0209 0.0505
vn -0.1872 -0.0000 0.9823
vn -0.5984 -0.0000 0.8012
vn -0.8813 -0.0000 0.4725
vn -0.9758 -0.0000 0.2185
vn -0.9985 -0.0000 0.0547
vn -0.1872 0.3759 0.9076
vn -0.5984 0.3066 0.7402
vn -0.8813 0.1808 0.4366
vn -0.9758 0.0836 0.2019
vn -0.9985 0.0209 0.0505
vn -0.1872 0.6946 0.6946
vn -0.5984 0.5666 0.5666
vn -0.8813 0.3341 0.3341
vn -0.9758 0.1545 0.1545
vn -0.9985 0.0386 0.0386
vn -0.1872 0.9076 0.3759
vn -0.5984 0.7402 0.3066
vn -0.8813 0.4366 0.1808
vn -0.9758 0.2019 0.0836
vn -0.9985 0.0505 0.0209
vn -0.1872 0.9823 -0.0000
vn -0.5984 0.8012 -0.0000
vn -0.8813 0.4725 -0.0000
vn -0.9758 0.2185 -0.0000
vn -0.9985 0.0547 -0.0000
vn -0.1872 0.9076 -0.3759
vn -0.5984 0.7402 -0.3066
vn -0.8813 0.4366 -0.1808
vn -0.9758 0.2019 -0.0836
vn -0.9985 0.0505 -0.0209
vn -0.1872 0.6946 -0.6946
vn -0.5984 0.5666 -0.5666
vn -0.8813 0.3341 -0.3341
vn -0.9758 0.1545 -0.1545
vn -0.9985 0.0386 -0.0386
vn -0.1872 0.3759 -0.9076
vn -0.5984 0.3066 -0.7402
vn -0.8813 0.1808 -0.4366
vn -0.9758 0.0836 -0.2019
vn -0.9985 0.0209 -0.0505
vt 0.858772 0.700746
vt 0.909643 0.700746
vt 0.909643 0.837204
vt 0.858772 0.837204
vt 0.543244 0.699946
vt 0.543244 0.851075
vt 0.492372 0.851075
vt 0.492372 0.699946
vt 0.606158 0.851075
vt 0.555286 0.851075
vt 0.555286 0.699946
vt 0.606158 0.699946
vt 0.291082 0.559621
vt 0.291082 0.710750
vt 0.154819 0.710750
vt 0.154819 0.559621
vt 0.922599 0.681506
vt 0.922599 0.536774
vt 0.968292 0.536774
vt 0.968292 0.681506
vt 0.910557 0.673233
vt 0.859685 0.673233
vt 0.859685 0.536774
vt 0.910557 0.536774
vt 0.521924 0.354172
vt 0.349956 0.687903
vt 0.349956 0.536774
vt 0.353147 0.539973
vt 0.353147 0.684705
vt 0.486712 0.536774
vt 0.483521 0.539973
vt 0.486712 0.687903
vt 0.483521 0.684705
vt 0.671045 0.150753
vt 0.671045 0.006021
vt 0.801419 0.006021
vt 0.801419 0.150753
vt 0.349956 0.986811
vt 0.349956 0.856721
vt 0.395649 0.856721
vt 0.395649 0.986811
vt 0.407692 0.986811
vt 0.407692 0.856721
vt 0.453385 0.856721
vt 0.453385 0.986811
vt 0.923246 0.517535
vt 0.923246 0.372803
vt 0.968939 0.372803
vt 0.968939 0.517535
vt 0.431511 0.181391
vt 0.436301 0.181391
vt 0.436266 0.183232
vt 0.431476 0.183232
vt 0.436167 0.184793
vt 0.431377 0.184793
vt 0.327632 0.395649
vt 0.332415 0.395649
vt 0.332528 0.397210
vt 0.327745 0.397210
vt 0.332568 0.399052
vt 0.327785 0.399052
vt 0.332528 0.400893
vt 0.327745 0.400893
vt 0.332415 0.402454
vt 0.327632 0.402454
vt 0.332555 0.440148
vt 0.327766 0.440148
vt 0.327667 0.438587
vt 0.332456 0.438587
vt 0.327632 0.436745
vt 0.332421 0.436745
vt 0.327667 0.434904
vt 0.332456 0.434904
vt 0.327766 0.433343
vt 0.332555 0.433343
vt 0.482275 0.177989
vt 0.487076 0.177989
vt 0.487147 0.179550
vt 0.482347 0.179550
vt 0.487172 0.181391
vt 0.482372 0.181391
vt 0.487147 0.183232
vt 0.482347 0.183232
vt 0.487076 0.184793
vt 0.482275 0.184793
vt 0.350675 0.180035
vt 0.352002 0.178707
vt 0.353737 0.177989
vt 0.355614 0.177989
vt 0.357349 0.178707
vt 0.358676 0.180035
vt 0.359394 0.181769
vt 0.359394 0.183647
vt 0.358676 0.185381
vt 0.357349 0.186708
vt 0.355614 0.187427
vt 0.353737 0.187427
vt 0.352002 0.186708
vt 0.350675 0.185381
vt 0.349956 0.183647
vt 0.349956 0.181769
vt 0.431377 0.177989
vt 0.436167 0.177989
vt 0.436266 0.179550
vt 0.431476 0.179550
vt 0.305207 0.400374
vt 0.305207 0.402251
vt 0.304264 0.402439
vt 0.304264 0.400186
vt 0.310865 0.406031
vt 0.312600 0.405313
vt 0.313134 0.406113
vt 0.311053 0.406975
vt 0.307253 0.397312
vt 0.305926 0.398639
vt 0.305126 0.398104
vt 0.306719 0.396511
vt 0.313927 0.398639
vt 0.312600 0.397312
vt 0.313134 0.396511
vt 0.314727 0.398104
vt 0.307253 0.405313
vt 0.308988 0.406031
vt 0.308800 0.406975
vt 0.306719 0.406113
vt 0.314645 0.402251
vt 0.314645 0.400374
vt 0.315589 0.400186
vt 0.315589 0.402439
vt 0.308988 0.396593
vt 0.308800 0.395649
vt 0.305926 0.403985
vt 0.305126 0.404520
vt 0.313927 0.403985
vt 0.314727 0.404520
vt 0.310865 0.396593
vt 0.311053 0.395649
vt 0.537196 0.338047
vt 0.537155 0.340256
vt 0.536585 0.340170
vt 0.536625 0.338047
vt 0.312790 0.475811
vt 0.310789 0.476640
vt 0.310665 0.476014
vt 0.312435 0.475281
vt 0.310479 0.475078
vt 0.311905 0.474487
vt 0.310259 0.473973
vt 0.311279 0.473550
vt 0.537036 0.342129
vt 0.536471 0.341971
vt 0.308624 0.476640
vt 0.308748 0.476014
vt 0.308935 0.475078
vt 0.309154 0.473973
vt 0.328198 0.508731
vt 0.328334 0.510604
vt 0.327763 0.510690
vt 0.327632 0.508890
vt 0.306623 0.475811
vt 0.306978 0.475281
vt 0.307508 0.474487
vt 0.308134 0.473550
vt 0.328382 0.512814
vt 0.327809 0.512814
vt 0.305092 0.474280
vt 0.305623 0.473926
vt 0.306417 0.473395
vt 0.307353 0.472769
vt 0.328334 0.515023
vt 0.327763 0.514938
vt 0.304264 0.472280
vt 0.304889 0.472155
vt 0.305826 0.471969
vt 0.306931 0.471749
vt 0.328198 0.516896
vt 0.327632 0.516738
vt 0.304264 0.470114
vt 0.304889 0.470239
vt 0.305826 0.470425
vt 0.306931 0.470645
vt 0.306181 0.542705
vt 0.306062 0.540832
vt 0.306631 0.540746
vt 0.306745 0.542547
vt 0.305092 0.468114
vt 0.305623 0.468468
vt 0.306417 0.468999
vt 0.307353 0.469625
vt 0.306020 0.538623
vt 0.306591 0.538623
vt 0.306623 0.466583
vt 0.306978 0.467113
vt 0.307508 0.467907
vt 0.308134 0.468844
vt 0.306062 0.536413
vt 0.306631 0.536499
vt 0.308624 0.465754
vt 0.308748 0.466380
vt 0.308935 0.467316
vt 0.309154 0.468421
vt 0.306181 0.534540
vt 0.306745 0.534698
vt 0.310789 0.465754
vt 0.310665 0.466380
vt 0.310479 0.467316
vt 0.310259 0.468421
vt 0.328194 0.569355
vt 0.328280 0.571228
vt 0.327714 0.571314
vt 0.327632 0.569513
vt 0.312790 0.466583
vt 0.312435 0.467113
vt 0.311905 0.467907
vt 0.311279 0.468844
vt 0.328310 0.573438
vt 0.327743 0.573438
vt 0.314321 0.468114
vt 0.313791 0.468468
vt 0.312997 0.468999
vt 0.312060 0.469625
vt 0.328280 0.575647
vt 0.327714 0.575561
vt 0.315150 0.470114
vt 0.314524 0.470239
vt 0.313587 0.470425
vt 0.312483 0.470645
vt 0.328194 0.577520
vt 0.327632 0.577362
vt 0.315150 0.472280
vt 0.314524 0.472155
vt 0.313587 0.471969
vt 0.312483 0.471749
vt 0.537036 0.333964
vt 0.537155 0.335837
vt 0.536585 0.335923
vt 0.536471 0.334122
vt 0.314321 0.474280
vt 0.313791 0.473926
vt 0.312997 0.473395
vt 0.312060 0.472769
vt 0.538953 0.338047
vt 0.538911 0.340256
vt 0.538911 0.335837
vt 0.538792 0.342129
vt 0.329952 0.508731
vt 0.330088 0.510604
vt 0.330136 0.512814
vt 0.330088 0.515023
vt 0.329952 0.516896
vt 0.304424 0.542705
vt 0.304305 0.540832
vt 0.304264 0.538623
vt 0.304305 0.536413
vt 0.304424 0.534540
vt 0.329954 0.569355
vt 0.330040 0.571228
vt 0.330070 0.573438
vt 0.330040 0.575647
vt 0.329954 0.577520
vt 0.538792 0.333964
s 1
usemtl nightstand
f 39/101/7 40/102/7 43/103/7 44/104/7
f 37/105/8 40/106/8 39/107/8 38/108/8
f 41/109/9 42/110/9 44/111/9 43/112/9
f 40/113/10 37/114/10 41/115/10 43/116/10
f 51/117/8 52/118/8 55/119/8 56/120/8
f 37/121/11 38/122/11 42/123/11 41/124/11
f 38/125/12 39/125/12 46/125/12 45/125/12
f 39/125/12 44/125/12 47/125/12 46/125/12
f 44/125/12 42/125/12 48/125/12 47/125/12
f 42/125/12 38/125/12 45/125/12 48/125/12
f 45/126/12 46/127/12 50/128/12 49/129/12
f 46/127/12 47/130/12 51/131/12 50/128/12
f 47/130/12 48/132/12 52/133/12 51/131/12
f 48/132/12 45/126/12 49/129/12 52/133/12
f 53/134/12 54/135/12 56/136/12 55/137/12
f 52/138/7 49/139/7 53/140/7 55/141/7
f 50/142/11 51/143/11 56/144/11 54/145/11
f 49/146/9 50/147/9 54/148/9 53/149/9
f 57/150/7 58/151/7 60/152/13 59/153/13
f 59/153/13 60/152/13 62/154/14 61/155/14
f 61/156/14 62/157/14 64/158/15 63/159/15
f 63/159/15 64/158/15 66/160/10 65/161/10
f 65/161/10 66/160/10 68/162/16 67/163/16
f 67/163/16 68/162/16 70/164/17 69/165/17
f 69/166/17 70/167/17 72/168/18 71/169/18
f 71/169/18 72/168/18 74/170/11 73/171/11
f 73/171/11 74/170/11 76/172/19 75/173/19
f 75/173/19 76/172/19 78/174/20 77/175/20
f 77/176/20 78/177/20 80/178/21 79/179/21
f 79/179/21 80/178/21 82/180/12 81/181/12
f 81/181/12 82/180/12 84/182/22 83/183/22
f 83/183/22 84/182/22 86/184/23 85/185/23
f 60/186/8 58/187/8 88/188/8 86/189/8 84/190/8 82/191/8 80/192/8 78/193/8 76/194/8 74/195/8 72/196/8 70/197/8 68/198/8 66/199/8 64/200/8 62/201/8
f 85/202/23 86/203/23 88/204/24 87/205/24
f 87/205/24 88/204/24 58/151/7 57/150/7
f 61/206/8 63/207/8 92/208/8 91/209/8
f 71/210/8 73/211/8 97/212/8 96/213/8
f 57/214/8 59/215/8 90/216/8 89/217/8
f 81/218/8 83/219/8 102/220/8 101/221/8
f 67/222/8 69/223/8 95/224/8 94/225/8
f 77/226/8 79/227/8 100/228/8 99/229/8
f 87/230/8 57/214/8 89/217/8 104/231/8
f 63/207/8 65/232/8 93/233/8 92/208/8
f 73/211/8 75/234/8 98/235/8 97/212/8
f 83/219/8 85/236/8 103/237/8 102/220/8
f 59/215/8 61/206/8 91/209/8 90/216/8
f 69/223/8 71/210/8 96/213/8 95/224/8
f 79/227/8 81/218/8 101/221/8 100/228/8
f 65/232/8 67/222/8 94/225/8 93/233/8
f 75/234/8 77/226/8 99/229/8 98/235/8
f 85/236/8 87/230/8 104/231/8 103/237/8
f 106/238/25 110/239/26 112/240/27 109/241/28
f 109/242/28 112/243/27 113/244/29 108/245/30
f 108/245/30 113/244/29 114/246/31 107/247/32
f 107/247/32 114/246/31 111/248/33 105/249/34
f 110/239/26 115/250/35 117/251/36 112/240/27
f 112/243/27 117/252/36 118/253/37 113/244/29
f 113/244/29 118/253/37 119/254/38 114/246/31
f 114/246/31 119/254/38 116/255/39 111/248/33
f 115/256/35 120/257/40 122/258/41 117/259/36
f 117/252/36 122/260/41 123/261/42 118/253/37
f 118/253/37 123/261/42 124/262/43 119/254/38
f 119/254/38 124/262/43 121/263/44 116/255/39
f 120/257/40 125/264/45 127/265/46 122/258/41
f 122/260/41 127/266/46 128/267/47 123/261/42
f 123/261/42 128/267/47 129/268/48 124/262/43
f 124/262/43 129/268/48 126/269/49 121/263/44
f 125/264/45 130/270/50 132/271/51 127/265/46
f 127/266/46 132/272/51 133/273/52 128/267/47
f 128/267/47 133/273/52 134/274/53 129/268/48
f 129/268/48 134/274/53 131/275/54 126/269/49
f 130/270/50 135/276/55 137/277/56 132/271/51
f 132/272/51 137/278/56 138/279/57 133/273/52
f 133/273/52 138/279/57 139/280/58 134/274/53
f 134/274/53 139/280/58 136/281/59 131/275/54
f 135/282/55 140/283/60 142/284/61 137/285/56
f 137/278/56 142/286/61 143/287/62 138/279/57
f 138/279/57 143/287/62 144/288/63 139/280/58
f 139/280/58 144/288/63 141/289/64 136/281/59
f 140/283/60 145/290/65 147/291/66 142/284/61
f 142/286/61 147/292/66 148/293/67 143/287/62
f 143/287/62 148/293/67 149/294/68 144/288/63
f 144/288/63 149/294/68 146/295/69 141/289/64
f 145/290/65 150/296/70 152/297/71 147/291/66
f 147/292/66 152/298/71 153/299/72 148/293/67
f 148/293/67 153/299/72 154/300/73 149/294/68
f 149/294/68 154/300/73 151/301/74 146/295/69
f 150/296/70 155/302/75 157/303/76 152/297/71
f 152/298/71 157/304/76 158/305/77 153/299/72
f 153/299/72 158/305/77 159/306/78 154/300/73
f 154/300/73 159/306/78 156/307/79 151/301/74
f 155/308/75 160/309/80 162/310/81 157/311/76
f 157/304/76 162/312/81 163/313/82 158/305/77
f 158/305/77 163/313/82 164/314/83 159/306/78
f 159/306/78 164/314/83 161/315/84 156/307/79
f 160/309/80 165/316/85 167/317/86 162/310/81
f 162/312/81 167/318/86 168/319/87 163/313/82
f 163/313/82 168/319/87 169/320/88 164/314/83
f 164/314/83 169/320/88 166/321/89 161/315/84
f 165/316/85 170/322/90 172/323/91 167/317/86
f 167/318/86 172/324/91 173/325/92 168/319/87
f 168/319/87 173/325/92 174/326/93 169/320/88
f 169/320/88 174/326/93 171/327/94 166/321/89
f 170/322/90 175/328/95 177/329/96 172/323/91
f 172/324/91 177/330/96 178/331/97 173/325/92
f 173/325/92 178/331/97 179/332/98 174/326/93
f 174/326/93 179/332/98 176/333/99 171/327/94
f 175/334/95 180/335/100 182/336/101 177/337/96
f 177/330/96 182/338/101 183/339/102 178/331/97
f 178/331/97 183/339/102 184/340/103 179/332/98
f 179/332/98 184/340/103 181/341/104 176/333/99
f 180/335/100 106/238/25 109/241/28 182/336/101
f 182/338/101 109/242/28 108/245/30 183/339/102
f 183/339/102 108/245/30 107/247/32 184/340/103
f 184/340/103 107/247/32 105/249/34 181/341/104
f 89/342/7 90/343/13 110/239/26 106/238/25
f 105/249/34 111/248/33 116/255/39 121/263/44 126/269/49 131/275/54 136/281/59 141/289/64 146/295/69 151/301/74 156/307/79 161/315/84 166/321/89 171/327/94 176/333/99 181/341/104
f 104/344/24 89/342/7 106/238/25 180/335/100
f 90/343/13 91/345/14 115/250/35 110/239/26
f 91/346/14 92/347/15 120/257/40 115/256/35
f 92/347/15 93/348/10 125/264/45 120/257/40
f 93/348/10 94/349/16 130/270/50 125/264/45
f 94/349/16 95/350/17 135/276/55 130/270/50
f 95/351/17 96/352/18 140/283/60 135/282/55
f 96/352/18 97/353/11 145/290/65 140/283/60
f 97/353/11 98/354/19 150/296/70 145/290/65
f 98/354/19 99/355/20 155/302/75 150/296/70
f 99/356/20 100/357/21 160/309/80 155/308/75
f 100/357/21 101/358/12 165/316/85 160/309/80
f 101/358/12 102/359/22 170/322/90 165/316/85
f 102/359/22 103/360/23 175/328/95 170/322/90
f 103/361/23 104/344/24 180/335/100 175/334/95
o latch_2
v 0.250000 0.288667 0.330750
v 0.250000 0.511333 0.330750
v 0.250000 0.511333 -0.330750
v 0.250000 0.288667 -0.330750
v -0.350000 0.288667 0.330750
v -0.350000 0.511333 0.330750
v -0.350000 0.288667 -0.330750
v -0.350000 0.511333 -0.330750
v 0.250000 0.511333 0.330750
v 0.250000 0.511333 -0.330750
v -0.350000 0.511333 -0.330750
v -0.350000 0.511333 0.330750
v 0.236000 0.511333 0.316750
v 0.236000 0.511333 -0.316750
v -0.336000 0.511333 -0.316750
v -0.336000 0.511333 0.316750
v 0.236000 0.311333 0.316750
v 0.236000 0.311333 -0.316750
v -0.336000 0.311333 0.316750
v -0.336000 0.311333 -0.316750
v -0.371060 0.400000 -0.021060
v -0.350000 0.400000 -0.021060
v -0.371060 0.391941 -0.019457
v -0.350000 0.391941 -0.019457
v -0.371060 0.385108 -0.014892
v -0.350000 0.385108 -0.014892
v -0.371060 0.380543 -0.008059
v -0.350000 0.380543 -0.008059
v -0.371060 0.378940 -0.000000
v -0.350000 0.378940 -0.000000
v -0.371060 0.380543 0.008059
v -0.350000 0.380543 0.008059
v -0.371060 0.385108 0.014892
v -0.350000 0.385108 0.014892
v -0.371060 0.391941 0.019457
v -0.350000 0.391941 0.019457
v -0.371060 0.400000 0.021060
v -0.350000 0.400000 0.021060
v -0.371060 0.408059 0.019457
v -0.350000 0.408059 0.019457
v -0.371060 0.414892 0.014892
v -0.350000 0.414892 0.014892
v -0.371060 0.419457 0.008059
v -0.350000 0.419457 0.008059
v -0.371060 0.421060 -0.000000
v -0.350000 0.421060 -0.000000
v -0.371060 0.419457 -0.008059
v -0.350000 0.419457 -0.008059
v -0.371060 0.414892 -0.014892
v -0.350000 0.414892 -0.014892
v -0.371060 0.408059 -0.019457
v -0.350000 0.408059 -0.019457
v -0.371060 0.400000 -0.025272
v -0.371060 0.390329 -0.023348
v -0.371060 0.382130 -0.017870
v -0.371060 0.376652 -0.009671
v -0.371060 0.374728 -0.000000
v -0.371060 0.376652 0.009671
v -0.371060 0.382130 0.017870
v -0.371060 0.390329 0.023348
v -0.371060 0.400000 0.025272
v -0.371060 0.409671 0.023348
v -0.371060 0.417870 0.017870
v -0.371060 0.423348 0.009671
v -0.371060 0.425272 -0.000000
v -0.371060 0.423348 -0.009671
v -0.371060 0.417870 -0.017870
v -0.371060 0.409671 -0.023348
v -0.385100 0.400000 -0.012388
v -0.378782 0.400000 -0.025272
v -0.384619 0.400000 -0.017319
v -0.383249 0.400000 -0.021498
v -0.381200 0.400000 -0.024291
v -0.378782 0.390329 -0.023348
v -0.385100 0.395259 -0.011445
v -0.381200 0.390704 -0.022442
v -0.383249 0.391773 -0.019862
v -0.384619 0.393372 -0.016000
v -0.378782 0.382130 -0.017870
v -0.385100 0.391240 -0.008760
v -0.381200 0.382823 -0.017177
v -0.383249 0.384798 -0.015202
v -0.384619 0.387754 -0.012246
v -0.378782 0.376652 -0.009671
v -0.385100 0.388555 -0.004741
v -0.381200 0.377558 -0.009296
v -0.383249 0.380138 -0.008227
v -0.384619 0.384000 -0.006628
v -0.378782 0.374728 -0.000000
v -0.385100 0.387612 -0.000000
v -0.381200 0.375709 -0.000000
v -0.383249 0.378502 -0.000000
v -0.384619 0.382681 -0.000000
v -0.378782 0.376652 0.009671
v -0.385100 0.388555 0.004741
v -0.381200 0.377558 0.009296
v -0.383249 0.380138 0.008227
v -0.384619 0.384000 0.006628
v -0.378782 0.382130 0.017870
v -0.385100 0.391240 0.008760
v -0.381200 0.382823 0.017177
v -0.383249 0.384798 0.015202
v -0.384619 0.387754 0.012246
v -0.378782 0.390329 0.023348
v -0.385100 0.395259 0.011445
v -0.381200 0.390704 0.022442
v -0.383249 0.391773 0.019862
v -0.384619 0.393372 0.016000
v -0.378782 0.400000 0.025272
v -0.385100 0.400000 0.012388
v -0.381200 0.400000 0.024291
v -0.383249 0.400000 0.021498
v -0.384619 0.400000 0.017319
v -0.378782 0.409671 0.023348
v -0.385100 0.404741 0.011445
v -0.381200 0.409296 0.022442
v -0.383249 0.408227 0.019862
v -0.384619 0.406628 0.016000
v -0.378782 0.417870 0.017870
v -0.385100 0.408760 0.008760
v -0.381200 0.417177 0.017177
v -0.383249 0.415202 0.015202
v -0.384619 0.412246 0.012246
v -0.378782 0.423348 0.009671
v -0.385100 0.411445 0.004741
v -0.381200 0.422442 0.009296
v -0.383249 0.419862 0.008227
v -0.384619 0.416000 0.006628
v -0.378782 0.425272 -0.000000
v -0.385100 0.412388 -0.000000
v -0.381200 0.424291 -0.000000
v -0.383249 0.421499 -0.000000
v -0.384619 0.417319 -0.000000
v -0.378782 0.423348 -0.009671
v -0.385100 0.411445 -0.004741
v -0.381200 0.422442 -0.009296
v -0.383249 0.419862 -0.008227
v -0.384619 0.416000 -0.006628
v -0.378782 0.417870 -0.017870
v -0.385100 0.408760 -0.008760
v -0.381200 0.417177 -0.017177
v -0.383249 0.415202 -0.015202
v -0.384619 0.412246 -0.012246
v -0.378782 0.409671 -0.023348
v -0.385100 0.404741 -0.011445
v -0.381200 0.409296 -0.022442
v -0.383249 0.408227 -0.019862
v -0.384619 0.406628 -0.016000
vn -0.0000 -0.0000 -1.0000
vn 1.0000 -0.0000 -0.0000
vn -1.0000 -0.0000 -0.0000
vn -0.0000 -1.0000 -0.0000
vn -0.0000 -0.0000 1.0000
vn -0.0000 1.0000 -0.0000
vn -0.0000 -0.3827 -0.9239
vn -0.0000 -0.7071 -0.7071
vn -0.0000 -0.9239 -0.3827
vn -0.0000 -0.9239 0.3827
vn -0.0000 -0.7071 0.7071
vn -0.0000 -0.3827 0.9239
vn -0.0000 0.3827 0.9239
vn -0.0000 0.7071 0.7071
vn -0.0000 0.9239 0.3827
vn -0.0000 0.9239 -0.3827
vn -0.0000 0.7071 -0.7071
vn -0.0000 0.3827 -0.9239
vn -0.1872 -0.0000 -0.9823
vn -0.1872 -0.3759 -0.9076
vn -0.5984 -0.3066 -0.7402
vn -0.5984 -0.0000 -0.8012
vn -0.8813 -0.1808 -0.4366
vn -0.8813 -0.0000 -0.4725
vn -0.9758 -0.0836 -0.2019
vn -0.9758 -0.0000 -0.2185
vn -0.9985 -0.0209 -0.0505
vn -0.9985 -0.0000 -0.0547
vn -0.1872 -0.6946 -0.6946
vn -0.5984 -0.5666 -0.5666
vn -0.8813 -0.3341 -0.3341
vn -0.9758 -0.1545 -0.1545
vn -0.9985 -0.0386 -0.0386
vn -0.1872 -0.9076 -0.3759
vn -0.5984 -0.7402 -0.3066
vn -0.8813 -0.4366 -0.1808
vn -0.9758 -0.2019 -0.0836
vn -0.9985 -0.0505 -0.0209
vn -0.1872 -0.9823 -0.0000
vn -0.5984 -0.8012 -0.0000
vn -0.8813 -0.4725 -0.0000
vn -0.9758 -0.2185 -0.0000
vn -0.9985 -0.0547 -0.0000
vn -0.1872 -0.9076 0.3759
vn -0.5984 -0.7402 0.3066
vn -0.8813 -0.4366 0.1808
vn -0.9758 -0.2019 0.0836
vn -0.9985 -0.0505 0.0209
vn -0.1872 -0.6946 0.6946
vn -0.5984 -0.5666 0.5666
vn -0.8813 -0.3341 0.3341
vn -0.9758 -0.1545 0.1545
vn -0.9985 -0.0386 0.0386
vn -0.1872 -0.3759 0.9076
vn -0.5984 -0.3066 0.7402
vn -0.8813 -0.1808 0.4366
vn -0.9758 -0.0836 0.2019
vn -0.9985 -0.0209 0.0505
vn -0.1872 -0.0000 0.9823
vn -0.5984 -0.0000 0.8012
vn -0.8813 -0.0000 0.4725
vn -0.9758 -0.0000 0.2185
vn -0.9985 -0.0000 0.0547
vn -0.1872 0.3759 0.9076
vn -0.5984 0.3066 0.7402
vn -0.8813 0.1808 0.4366
vn -0.9758 0.0836 0.2019
vn -0.9985 0.0209 0.0505
vn -0.1872 0.6946 0.6946
vn -0.5984 0.5666 0.5666
vn -0.8813 0.3341 0.3341
vn -0.9758 0.1545 0.1545
vn -0.9985 0.0386 0.0386
vn -0.1872 0.9076 0.3759
vn -0.5984 0.7402 0.3066
vn -0.8813 0.4366 0.1808
vn -0.9758 0.2019 0.0836
vn -0.9985 0.0505 0.0209
vn -0.1872 0.9823 -0.0000
vn -0.5984 0.8012 -0.0000
vn -0.8813 0.4725 -0.0000
vn -0.9758 0.2185 -0.0000
vn -0.9985 0.0547 -0.0000
vn -0.1872 0.9076 -0.3759
vn -0.5984 0.7402 -0.3066
vn -0.8813 0.4366 -0.1808
vn -0.9758 0.2019 -0.0836
vn -0.9985 0.0505 -0.0209
vn -0.1872 0.6946 -0.6946
vn -0.5984 0.5666 -0.5666
vn -0.8813 0.3341 -0.3341
vn -0.9758 0.1545 -0.1545
vn -0.9985 0.0386 -0.0386
vn -0.1872 0.3759 -0.9076
vn -0.5984 0.3066 -0.7402
vn -0.8813 0.1808 -0.4366
vn -0.9758 0.0836 -0.2019
vn -0.9985 0.0209 -0.0505
vt 0.860332 0.372803
vt 0.911203 0.372803
vt 0.911203 0.509261
vt 0.860332 0.509261
vt 0.669072 0.699946
vt 0.669072 0.851075
vt 0.618200 0.851075
vt 0.618200 0.699946
vt 0.731986 0.851075
vt 0.681114 0.851075
vt 0.681114 0.699946
vt 0.731986 0.699946
vt 0.783815 0.536774
vt 0.783815 0.687903
vt 0.647552 0.687903
vt 0.647552 0.536774
vt 0.939289 0.150753
vt 0.939289 0.006021
vt 0.984982 0.006021
vt 0.984982 0.150753
vt 0.927247 0.142480
vt 0.876375 0.142480
vt 0.876375 0.006021
vt 0.927247 0.006021
vt 0.533967 0.354172
vt 0.498754 0.687903
vt 0.498754 0.536774
vt 0.501945 0.539973
vt 0.501945 0.684705
vt 0.635510 0.536774
vt 0.632319 0.539973
vt 0.635510 0.687903
vt 0.632319 0.684705
vt 0.671045 0.307528
vt 0.671045 0.162796
vt 0.801419 0.162796
vt 0.801419 0.307528
vt 0.492372 0.993208
vt 0.492372 0.863118
vt 0.538065 0.863118
vt 0.538065 0.993208
vt 0.555286 0.993208
vt 0.555286 0.863118
vt 0.600979 0.863118
vt 0.600979 0.993208
vt 0.940203 0.313925
vt 0.940203 0.169193
vt 0.985896 0.169193
vt 0.985896 0.313925
vt 0.448477 0.181391
vt 0.453267 0.181391
vt 0.453232 0.183232
vt 0.448442 0.183232
vt 0.453133 0.184793
vt 0.448343 0.184793
vt 0.414398 0.177989
vt 0.419181 0.177989
vt 0.419295 0.179550
vt 0.414512 0.179550
vt 0.419335 0.181391
vt 0.414552 0.181391
vt 0.419295 0.183232
vt 0.414512 0.183232
vt 0.419181 0.184793
vt 0.414398 0.184793
vt 0.332555 0.458995
vt 0.327766 0.458995
vt 0.327667 0.457434
vt 0.332456 0.457434
vt 0.327632 0.455592
vt 0.332421 0.455592
vt 0.327667 0.453751
vt 0.332456 0.453751
vt 0.327766 0.452190
vt 0.332555 0.452190
vt 0.327632 0.489884
vt 0.332432 0.489884
vt 0.332503 0.491445
vt 0.327703 0.491445
vt 0.332529 0.493286
vt 0.327729 0.493286
vt 0.332503 0.495128
vt 0.327703 0.495128
vt 0.332432 0.496689
vt 0.327632 0.496689
vt 0.372155 0.180035
vt 0.373483 0.178707
vt 0.375217 0.177989
vt 0.377095 0.177989
vt 0.378829 0.178707
vt 0.380157 0.180035
vt 0.380875 0.181769
vt 0.380875 0.183647
vt 0.380157 0.185381
vt 0.378829 0.186708
vt 0.377095 0.187427
vt 0.375217 0.187427
vt 0.373483 0.186708
vt 0.372155 0.185381
vt 0.371437 0.183647
vt 0.371437 0.181769
vt 0.448343 0.177989
vt 0.453133 0.177989
vt 0.453232 0.179550
vt 0.448442 0.179550
vt 0.305207 0.423742
vt 0.305207 0.425619
vt 0.304264 0.425807
vt 0.304264 0.423554
vt 0.310865 0.429399
vt 0.312600 0.428681
vt 0.313134 0.429481
vt 0.311053 0.430343
vt 0.307253 0.420680
vt 0.305926 0.422007
vt 0.305126 0.421473
vt 0.306719 0.419880
vt 0.313927 0.422007
vt 0.312600 0.420680
vt 0.313134 0.419880
vt 0.314727 0.421473
vt 0.307253 0.428681
vt 0.308988 0.429399
vt 0.308800 0.430343
vt 0.306719 0.429481
vt 0.314645 0.425619
vt 0.314645 0.423742
vt 0.315589 0.423554
vt 0.315589 0.425807
vt 0.308988 0.419961
vt 0.308800 0.419018
vt 0.305926 0.427353
vt 0.305126 0.427888
vt 0.313927 0.427353
vt 0.314727 0.427888
vt 0.310865 0.419961
vt 0.311053 0.419018
vt 0.551721 0.338047
vt 0.551679 0.340256
vt 0.551110 0.340170
vt 0.551150 0.338047
vt 0.312790 0.498740
vt 0.310789 0.499569
vt 0.310665 0.498943
vt 0.312435 0.498209
vt 0.310479 0.498006
vt 0.311905 0.497415
vt 0.310259 0.496902
vt 0.311279 0.496479
vt 0.551560 0.342129
vt 0.550995 0.341971
vt 0.308624 0.499569
vt 0.308748 0.498943
vt 0.308935 0.498006
vt 0.309154 0.496902
vt 0.522490 0.333964
vt 0.522627 0.335837
vt 0.522055 0.335923
vt 0.521924 0.334122
vt 0.306623 0.498740
vt 0.306978 0.498209
vt 0.307508 0.497416
vt 0.308134 0.496479
vt 0.522675 0.338047
vt 0.522101 0.338047
vt 0.305092 0.497209
vt 0.305623 0.496854
vt 0.306417 0.496324
vt 0.307353 0.495698
vt 0.522627 0.340256
vt 0.522055 0.340170
vt 0.304264 0.495208
vt 0.304889 0.495084
vt 0.305826 0.494898
vt 0.306931 0.494678
vt 0.522490 0.342129
vt 0.521924 0.341971
vt 0.304264 0.493043
vt 0.304889 0.493167
vt 0.305826 0.493354
vt 0.306931 0.493573
vt 0.329549 0.557312
vt 0.329430 0.555439
vt 0.329999 0.555353
vt 0.330114 0.557154
vt 0.305092 0.491042
vt 0.305623 0.491397
vt 0.306417 0.491927
vt 0.307353 0.492553
vt 0.329388 0.553230
vt 0.329959 0.553230
vt 0.306623 0.489511
vt 0.306978 0.490042
vt 0.307508 0.490836
vt 0.308134 0.491772
vt 0.329430 0.551020
vt 0.329999 0.551106
vt 0.308624 0.488683
vt 0.308748 0.489308
vt 0.308935 0.490245
vt 0.309154 0.491350
vt 0.329549 0.549147
vt 0.330114 0.549305
vt 0.310789 0.488683
vt 0.310665 0.489308
vt 0.310479 0.490245
vt 0.310259 0.491350
vt 0.580606 0.333964
vt 0.580692 0.335837
vt 0.580127 0.335923
vt 0.580044 0.334122
vt 0.312790 0.489511
vt 0.312435 0.490042
vt 0.311905 0.490836
vt 0.311279 0.491772
vt 0.580722 0.338047
vt 0.580156 0.338047
vt 0.314321 0.491042
vt 0.313791 0.491397
vt 0.312997 0.491927
vt 0.312060 0.492553
vt 0.580692 0.340256
vt 0.580127 0.340170
vt 0.315150 0.493043
vt 0.314524 0.493167
vt 0.313587 0.493354
vt 0.312483 0.493573
vt 0.580606 0.342129
vt 0.580044 0.341971
vt 0.315150 0.495208
vt 0.314524 0.495084
vt 0.313587 0.494898
vt 0.312483 0.494678
vt 0.551560 0.333964
vt 0.551679 0.335837
vt 0.551110 0.335923
vt 0.550995 0.334122
vt 0.314321 0.497209
vt 0.313791 0.496854
vt 0.312997 0.496324
vt 0.312060 0.495698
vt 0.553477 0.338047
vt 0.553435 0.340256
vt 0.553435 0.335837
vt 0.553316 0.342129
vt 0.524244 0.333964
vt 0.524380 0.335837
vt 0.524428 0.338047
vt 0.524380 0.340256
vt 0.524244 0.342129
vt 0.327792 0.557312
vt 0.327674 0.555439
vt 0.327632 0.553230
vt 0.327674 0.551020
vt 0.327792 0.549147
vt 0.582366 0.333964
vt 0.582452 0.335837
vt 0.582482 0.338047
vt 0.582452 0.340256
vt 0.582366 0.342129
vt 0.553316 0.333964
s 1
usemtl nightstand
f 187/362/105 188/363/105 191/364/105 192/365/105
f 185/366/106 188/367/106 187/368/106 186/369/106
f 189/370/107 190/371/107 192/372/107 191/373/107
f 188/374/108 185/375/108 189/376/108 191/377/108
f 199/378/106 200/379/106 203/380/106 204/381/106
f 185/382/109 186/383/109 190/384/109 189/385/109
f 186/386/110 187/386/110 194/386/110 193/386/110
f 187/386/110 192/386/110 195/386/110 194/386/110
f 192/386/110 190/386/110 196/386/110 195/386/110
f 190/386/110 186/386/110 193/386/110 196/386/110
f 193/387/110 194/388/110 198/389/110 197/390/110
f 194/388/110 195/391/110 199/392/110 198/389/110
f 195/391/110 196/393/110 200/394/110 199/392/110
f 196/393/110 193/387/110 197/390/110 200/394/110
f 201/395/110 202/396/110 204/397/110 203/398/110
f 200/399/105 197/400/105 201/401/105 203/402/105
f 198/403/109 199/404/109 204/405/109 202/406/109
f 197/407/107 198/408/107 202/409/107 201/410/107
f 205/411/105 206/412/105 208/413/111 207/414/111
f 207/414/111 208/413/111 210/415/112 209/416/112
f 209/417/112 210/418/112 212/419/113 211/420/113
f 211/420/113 212/419/113 214/421/108 213/422/108
f 213/422/108 214/421/108 216/423/114 215/424/114
f 215/424/114 216/423/114 218/425/115 217/426/115
f 217/427/115 218/428/115 220/429/116 219/430/116
f 219/430/116 220/429/116 222/431/109 221/432/109
f 221/432/109 222/431/109 224/433/117 223/434/117
f 223/434/117 224/433/117 226/435/118 225/436/118
f 225/437/118 226/438/118 228/439/119 227/440/119
f 227/440/119 228/439/119 230/441/110 229/442/110
f 229/442/110 230/441/110 232/443/120 231/444/120
f 231/444/120 232/443/120 234/445/121 233/446/121
f 208/447/106 206/448/106 236/449/106 234/450/106 232/451/106 230/452/106 228/453/106 226/454/106 224/455/106 222/456/106 220/457/106 218/458/106 216/459/106 214/460/106 212/461/106 210/462/106
f 233/463/121 234/464/121 236/465/122 235/466/122
f 235/466/122 236/465/122 206/412/105 205/411/105
f 209/467/106 211/468/106 240/469/106 239/470/106
f 219/471/106 221/472/106 245/473/106 244/474/106
f 205/475/106 207/476/106 238/477/106 237/478/106
f 229/479/106 231/480/106 250/481/106 249/482/106
f 215/483/106 217/484/106 243/485/106 242/486/106
f 225/487/106 227/488/106 248/489/106 247/490/106
f 235/491/106 205/475/106 237/478/106 252/492/106
f 211/468/106 213/493/106 241/494/106 240/469/106
f 221/472/106 223/495/106 246/496/106 245/473/106
f 231/480/106 233/497/106 251/498/106 250/481/106
f 207/476/106 209/467/106 239/470/106 238/477/106
f 217/484/106 219/471/106 244/474/106 243/485/106
f 227/488/106 229/479/106 249/482/106 248/489/106
f 213/493/106 215/483/106 242/486/106 241/494/106
f 223/495/106 225/487/106 247/490/106 246/496/106
f 233/497/106 235/491/106 252/492/106 251/498/106
f 254/499/123 258/500/124 260/501/125 257/502/126
f 257/503/126 260/504/125 261/505/127 256/506/128
f 256/506/128 261/505/127 262/507/129 255/508/130
f 255/508/130 262/507/129 259/509/131 253/510/132
f 258/500/124 263/511/133 265/512/134 260/501/125
f 260/504/125 265/513/134 266/514/135 261/505/127
f 261/505/127 266/514/135 267/515/136 262/507/129
f 262/507/129 267/515/136 264/516/137 259/509/131
f 263/517/133 268/518/138 270/519/139 265/520/134
f 265/513/134 270/521/139 271/522/140 266/514/135
f 266/514/135 271/522/140 272/523/141 267/515/136
f 267/515/136 272/523/141 269/524/142 264/516/137
f 268/518/138 273/525/143 275/526/144 270/519/139
f 270/521/139 275/527/144 276/528/145 271/522/140
f 271/522/140 276/528/145 277/529/146 272/523/141
f 272/523/141 277/529/146 274/530/147 269/524/142
f 273/525/143 278/531/148 280/532/149 275/526/144
f 275/527/144 280/533/149 281/534/150 276/528/145
f 276/528/145 281/534/150 282/535/151 277/529/146
f 277/529/146 282/535/151 279/536/152 274/530/147
f 278/531/148 283/537/153 285/538/154 280/532/149
f 280/533/149 285/539/154 286/540/155 281/534/150
f 281/534/150 286/540/155 287/541/156 282/535/151
f 282/535/151 287/541/156 284/542/157 279/536/152
f 283/543/153 288/544/158 290/545/159 285/546/154
f 285/539/154 290/547/159 291/548/160 286/540/155
f 286/540/155 291/548/160 292/549/161 287/541/156
f 287/541/156 292/549/161 289/550/162 284/542/157
f 288/544/158 293/551/163 295/552/164 290/545/159
f 290/547/159 295/553/164 296/554/165 291/548/160
f 291/548/160 296/554/165 297/555/166 292/549/161
f 292/549/161 297/555/166 294/556/167 289/550/162
f 293/551/163 298/557/168 300/558/169 295/552/164
f 295/553/164 300/559/169 301/560/170 296/554/165
f 296/554/165 301/560/170 302/561/171 297/555/166
f 297/555/166 302/561/171 299/562/172 294/556/167
f 298/557/168 303/563/173 305/564/174 300/558/169
f 300/559/169 305/565/174 306/566/175 301/560/170
f 301/560/170 306/566/175 307/567/176 302/561/171
f 302/561/171 307/567/176 304/568/177 299/562/172
f 303/569/173 308/570/178 310/571/179 305/572/174
f 305/565/174 310/573/179 311/574/180 306/566/175
f 306/566/175 311/574/180 312/575/181 307/567/176
f 307/567/176 312/575/181 309/576/182 304/568/177
f 308/570/178 313/577/183 315/578/184 310/571/179
f 310/573/179 315/579/184 316/580/185 311/574/180
f 311/574/180 316/580/185 317/581/186 312/575/181
f 312/575/181 317/581/186 314/582/187 309/576/182
f 313/577/183 318/583/188 320/584/189 315/578/184
f 315/579/184 320/585/189 321/586/190 316/580/185
f 316/580/185 321/586/190 322/587/191 317/581/186
f 317/581/186 322/587/191 319/588/192 314/582/187
f 318/583/188 323/589/193 325/590/194 320/584/189
f 320/585/189 325/591/194 326/592/195 321/586/190
f 321/586/190 326/592/195 327/593/196 322/587/191
f 322/587/191 327/593/196 324/594/197 319/588/192
f 323/595/193 328/596/198 330/597/199 325/598/194
f 325/591/194 330/599/199 331/600/200 326/592/195
f 326/592/195 331/600/200 332/601/201 327/593/196
f 327/593/196 332/601/201 329/602/202 324/594/197
f 328/596/198 254/499/123 257/502/126 330/597/199
f 330/599/199 257/503/126 256/506/128 331/600/200
f 331/600/200 256/506/128 255/508/130 332/601/201
f 332/601/201 255/508/130 253/510/132 329/602/202
f 237/603/105 238/604/111 258/500/124 254/499/123
f 253/510/132 259/509/131 264/516/137 269/524/142 274/530/147 279/536/152 284/542/157 289/550/162 294/556/167 299/562/172 304/568/177 309/576/182 314/582/187 319/588/192 324/594/197 329/602/202
f 252/605/122 237/603/105 254/499/123 328/596/198
f 238/604/111 239/606/112 263/511/133 258/500/124
f 239/607/112 240/608/113 268/518/138 263/517/133
f 240/608/113 241/609/108 273/525/143 268/518/138
f 241/609/108 242/610/114 278/531/148 273/525/143
f 242/610/114 243/611/115 283/537/153 278/531/148
f 243/612/115 244/613/116 288/544/158 283/543/153
f 244/613/116 245/614/109 293/551/163 288/544/158
f 245/614/109 246/615/117 298/557/168 293/551/163
f 246/615/117 247/616/118 303/563/173 298/557/168
f 247/617/118 248/618/119 308/570/178 303/569/173
f 248/618/119 249/619/110 313/577/183 308/570/178
f 249/619/110 250/620/120 318/583/188 313/577/183
f 250/620/120 251/621/121 323/589/193 318/583/188
f 251/622/121 252/605/122 328/596/198 323/595/193
o latch_3
v 0.250000 0.022000 0.330750
v 0.250000 0.244667 0.330750
v 0.250000 0.244667 -0.330750
v 0.250000 0.022000 -0.330750
v -0.350000 0.022000 0.330750
v -0.350000 0.244667 0.330750
v -0.350000 0.022000 -0.330750
v -0.350000 0.244667 -0.330750
v 0.250000 0.244667 0.330750
v 0.250000 0.244667 -0.330750
v -0.350000 0.244667 -0.330750
v -0.350000 0.244667 0.330750
v 0.236000 0.244667 0.316750
v 0.236000 0.244667 -0.316750
v -0.336000 0.244667 -0.316750
v -0.336000 0.244667 0.316750
v 0.236000 0.044667 0.316750
v 0.236000 0.044667 -0.316750
v -0.336000 0.044667 0.316750
v -0.336000 0.044667 -0.316750
v -0.371060 0.133333 -0.021060
v -0.350000 0.133333 -0.021060
v -0.371060 0.125274 -0.019457
v -0.350000 0.125274 -0.019457
v -0.371060 0.118442 -0.014892
v -0.350000 0.118442 -0.014892
v -0.371060 0.113876 -0.008059
v -0.350000 0.113876 -0.008059
v -0.371060 0.112273 -0.000000
v -0.350000 0.112273 -0.000000
v -0.371060 0.113876 0.008059
v -0.350000 0.113876 0.008059
v -0.371060 0.118442 0.014892
v -0.350000 0.118442 0.014892
v -0.371060 0.125274 0.019457
v -0.350000 0.125274 0.019457
v -0.371060 0.133333 0.021060
v -0.350000 0.133333 0.021060
v -0.371060 0.141393 0.019457
v -0.350000 0.141393 0.019457
v -0.371060 0.148225 0.014892
v -0.350000 0.148225 0.014892
v -0.371060 0.152790 0.008059
v -0.350000 0.152790 0.008059
v -0.371060 0.154393 -0.000000
v -0.350000 0.154393 -0.000000
v -0.371060 0.152790 -0.008059
v -0.350000 0.152790 -0.008059
v -0.371060 0.148225 -0.014892
v -0.350000 0.148225 -0.014892
v -0.371060 0.141393 -0.019457
v -0.350000 0.141393 -0.019457
v -0.371060 0.133333 -0.025272
v -0.371060 0.123662 -0.023348
v -0.371060 0.115463 -0.017870
v -0.371060 0.109985 -0.009671
v -0.371060 0.108061 -0.000000
v -0.371060 0.109985 0.009671
v -0.371060 0.115463 0.017870
v -0.371060 0.123662 0.023348
v -0.371060 0.133333 0.025272
v -0.371060 0.143005 0.023348
v -0.371060 0.151203 0.017870
v -0.371060 0.156682 0.009671
v -0.371060 0.158605 -0.000000
v -0.371060 0.156682 -0.009671
v -0.371060 0.151203 -0.017870
v -0.371060 0.143005 -0.023348
v -0.385100 0.133333 -0.012388
v -0.378782 0.133333 -0.025272
v -0.384619 0.133333 -0.017319
v -0.383249 0.133333 -0.021498
v -0.381200 0.133333 -0.024291
v -0.378782 0.123662 -0.023348
v -0.385100 0.128592 -0.011445
v -0.381200 0.124037 -0.022442
v -0.383249 0.125106 -0.019862
v -0.384619 0.126706 -0.016000
v -0.378782 0.115463 -0.017870
v -0.385100 0.124573 -0.008760
v -0.381200 0.116157 -0.017177
v -0.383249 0.118132 -0.015202
v -0.384619 0.121087 -0.012246
v -0.378782 0.109985 -0.009671
v -0.385100 0.121888 -0.004741
v -0.381200 0.110891 -0.009296
v -0.383249 0.113471 -0.008227
v -0.384619 0.117333 -0.006628
v -0.378782 0.108061 -0.000000
v -0.385100 0.120945 -0.000000
v -0.381200 0.109042 -0.000000
v -0.383249 0.111835 -0.000000
v -0.384619 0.116015 -0.000000
v -0.378782 0.109985 0.009671
v -0.385100 0.121888 0.004741
v -0.381200 0.110891 0.009296
v -0.383249 0.113471 0.008227
v -0.384619 0.117333 0.006628
v -0.378782 0.115463 0.017870
v -0.385100 0.124573 0.008760
v -0.381200 0.116157 0.017177
v -0.383249 0.118132 0.015202
v -0.384619 0.121087 0.012246
v -0.378782 0.123662 0.023348
v -0.385100 0.128592 0.011445
v -0.381200 0.124037 0.022442
v -0.383249 0.125106 0.019862
v -0.384619 0.126706 0.016000
v -0.378782 0.133333 0.025272
v -0.385100 0.133333 0.012388
v -0.381200 0.133333 0.024291
v -0.383249 0.133333 0.021498
v -0.384619 0.133333 0.017319
v -0.378782 0.143005 0.023348
v -0.385100 0.138074 0.011445
v -0.381200 0.142629 0.022442
v -0.383249 0.141560 0.019862
v -0.384619 0.139961 0.016000
v -0.378782 0.151203 0.017870
v -0.385100 0.142093 0.008760
v -0.381200 0.150510 0.017177
v -0.383249 0.148535 0.015202
v -0.384619 0.145580 0.012246
v -0.378782 0.156682 0.009671
v -0.385100 0.144779 0.004741
v -0.381200 0.155776 0.009296
v -0.383249 0.153195 0.008227
v -0.384619 0.149334 0.006628
v -0.378782 0.158605 -0.000000
v -0.385100 0.145722 -0.000000
v -0.381200 0.157625 -0.000000
v -0.383249 0.154832 -0.000000
v -0.384619 0.150652 -0.000000
v -0.378782 0.156682 -0.009671
v -0.385100 0.144779 -0.004741
v -0.381200 0.155776 -0.009296
v -0.383249 0.153195 -0.008227
v -0.384619 0.149334 -0.006628
v -0.378782 0.151203 -0.017870
v -0.385100 0.142093 -0.008760
v -0.381200 0.150510 -0.017177
v -0.383249 0.148535 -0.015202
v -0.384619 0.145580 -0.012246
v -0.378782 0.143005 -0.023348
v -0.385100 0.138074 -0.011445
v -0.381200 0.142629 -0.022442
v -0.383249 0.141560 -0.019862
v -0.384619 0.139961 -0.016000
vn -0.0000 -0.0000 -1.0000
vn 1.0000 -0.0000 -0.0000
vn -1.0000 -0.0000 -0.0000
vn -0.0000 -1.0000 -0.0000
vn -0.0000 -0.0000 1.0000
vn -0.0000 1.0000 -0.0000
vn -0.0000 -0.3827 -0.9239
vn -0.0000 -0.7071 -0.7071
vn -0.0000 -0.9239 -0.3827
vn -0.0000 -0.9239 0.3827
vn -0.0000 -0.7071 0.7071
vn -0.0000 -0.3827 0.9239
vn -0.0000 0.3827 0.9239
vn -0.0000 0.7071 0.7071
vn -0.0000 0.9239 0.3827
vn -0.0000 0.9239 -0.3827
vn -0.0000 0.7071 -0.7071
vn -0.0000 0.3827 -0.9239
vn -0.1872 -0.0000 -0.9823
vn -0.1872 -0.3759 -0.9076
vn -0.5984 -0.3066 -0.7402
vn -0.5984 -0.0000 -0.8012
vn -0.8813 -0.1808 -0.4366
vn -0.8813 -0.0000 -0.4725
vn -0.9758 -0.0836 -0.2019
vn -0.9758 -0.0000 -0.2185
vn -0.9985 -0.0209 -0.0505
vn -0.9985 -0.0000 -0.0547
vn -0.1872 -0.6946 -0.6946
vn -0.5984 -0.5666 -0.5666
vn -0.8813 -0.3341 -0.3341
vn -0.9758 -0.1545 -0.1545
vn -0.9985 -0.0386 -0.0386
vn -0.1872 -0.9076 -0.3759
vn -0.5984 -0.7402 -0.3066
vn -0.8813 -0.4366 -0.1808
vn -0.9758 -0.2019 -0.0836
vn -0.9985 -0.0505 -0.0209
vn -0.1872 -0.9823 -0.0000
vn -0.5984 -0.8012 -0.0000
vn -0.8813 -0.4725 -0.0000
vn -0.9758 -0.2185 -0.0000
vn -0.9985 -0.0547 -0.0000
vn -0.1872 -0.9076 0.3759
vn -0.5984 -0.7402 0.3066
vn -0.8813 -0.4366 0.1808
vn -0.9758 -0.2019 0.0836
vn -0.9985 -0.0505 0.0209
vn -0.1872 -0.6946 0.6946
vn -0.5984 -0.5666 0.5666
vn -0.8813 -0.3341 0.3341
vn -0.9758 -0.1545 0.1545
vn -0.9985 -0.0386 0.0386
vn -0.1872 -0.3759 0.9076
vn -0.5984 -0.3066 0.7402
vn -0.8813 -0.1808 0.4366
vn -0.9758 -0.0836 0.2019
vn -0.9985 -0.0209 0.0505
vn -0.1872 -0.0000 0.9823
vn -0.5984 -0.0000 0.8012
vn -0.8813 -0.0000 0.4725
vn -0.9758 -0.0000 0.2185
vn -0.9985 -0.0000 0.0547
vn -0.1872 0.3759 0.9076
vn -0.5984 0.3066 0.7402
vn -0.8813 0.1808 0.4366
vn -0.9758 0.0836 0.2019
vn -0.9985 0.0209 0.0505
vn -0.1872 0.6946 0.6946
vn -0.5984 0.5666 0.5666
vn -0.8813 0.3341 0.3341
vn -0.9758 0.1545 0.1545
vn -0.9985 0.0386 0.0386
vn -0.1872 0.9076 0.3759
vn -0.5984 0.7402 0.3066
vn -0.8813 0.4366 0.1808
vn -0.9758 0.2019 0.0836
vn -0.9985 0.0505 0.0209
vn -0.1872 0.9823 -0.0000
vn -0.5984 0.8012 -0.0000
vn -0.8813 0.4725 -0.0000
vn -0.9758 0.2185 -0.0000
vn -0.9985 0.0547 -0.0000
vn -0.1872 0.9076 -0.3759
vn -0.5984 0.7402 -0.3066
vn -0.8813 0.4366 -0.1808
vn -0.9758 0.2019 -0.0836
vn -0.9985 0.0505 -0.0209
vn -0.1872 0.6946 -0.6946
vn -0.5984 0.5666 -0.5666
vn -0.8813 0.3341 -0.3341
vn -0.9758 0.1545 -0.1545
vn -0.9985 0.0386 -0.0386
vn -0.1872 0.3759 -0.9076
vn -0.5984 0.3066 -0.7402
vn -0.8813 0.1808 -0.4366
vn -0.9758 0.0836 -0.2019
vn -0.9985 0.0209 -0.0505
vt 0.877289 0.169193
vt 0.928160 0.169193
vt 0.928160 0.305651
vt 0.877289 0.305651
vt 0.846729 0.700746
vt 0.846729 0.851875
vt 0.795858 0.851875
vt 0.795858 0.700746
vt 0.864333 0.157150
vt 0.813461 0.157150
vt 0.813461 0.006021
vt 0.864333 0.006021
vt 0.784462 0.372803
vt 0.784462 0.523932
vt 0.648199 0.523932
vt 0.648199 0.372803
vt 0.858772 0.993979
vt 0.858772 0.849247
vt 0.904464 0.849247
vt 0.904464 0.993979
vt 0.972557 0.837204
vt 0.921686 0.837204
vt 0.921686 0.700746
vt 0.972557 0.700746
vt 0.546009 0.354172
vt 0.006021 0.710750
vt 0.006021 0.559621
vt 0.009212 0.562819
vt 0.009212 0.707551
vt 0.142777 0.559621
vt 0.139586 0.562819
vt 0.142777 0.710750
vt 0.139586 0.707551
vt 0.349956 0.844678
vt 0.349956 0.699946
vt 0.480330 0.699946
vt 0.480330 0.844678
vt 0.613022 0.993208
vt 0.613022 0.863118
vt 0.658715 0.863118
vt 0.658715 0.993208
vt 0.681114 0.993208
vt 0.681114 0.863118
vt 0.726807 0.863118
vt 0.726807 0.993208
vt 0.921686 0.993979
vt 0.921686 0.849247
vt 0.967379 0.849247
vt 0.967378 0.993979
vt 0.465443 0.181391
vt 0.470233 0.181391
vt 0.470198 0.183232
vt 0.465408 0.183232
vt 0.470099 0.184793
vt 0.465309 0.184793
vt 0.327632 0.414496
vt 0.332415 0.414496
vt 0.332528 0.416057
vt 0.327745 0.416057
vt 0.332568 0.417899
vt 0.327785 0.417899
vt 0.332528 0.419740
vt 0.327745 0.419740
vt 0.332415 0.421301
vt 0.327632 0.421301
vt 0.332555 0.477842
vt 0.327766 0.477842
vt 0.327667 0.476281
vt 0.332456 0.476281
vt 0.327632 0.474439
vt 0.332421 0.474439
vt 0.327667 0.472598
vt 0.332456 0.472598
vt 0.327766 0.471037
vt 0.332555 0.471037
vt 0.499215 0.177989
vt 0.504015 0.177989
vt 0.504087 0.179550
vt 0.499287 0.179550
vt 0.504112 0.181391
vt 0.499312 0.181391
vt 0.504087 0.183232
vt 0.499287 0.183232
vt 0.504015 0.184793
vt 0.499215 0.184793
vt 0.393636 0.180035
vt 0.394964 0.178707
vt 0.396698 0.177989
vt 0.398575 0.177989
vt 0.400310 0.178707
vt 0.401637 0.180035
vt 0.402356 0.181769
vt 0.402356 0.183647
vt 0.401637 0.185381
vt 0.400310 0.186708
vt 0.398575 0.187427
vt 0.396698 0.187427
vt 0.394964 0.186708
vt 0.393636 0.185381
vt 0.392918 0.183647
vt 0.392918 0.181769
vt 0.465309 0.177989
vt 0.470099 0.177989
vt 0.470198 0.179550
vt 0.465408 0.179550
vt 0.305207 0.447110
vt 0.305207 0.448987
vt 0.304264 0.449175
vt 0.304264 0.446922
vt 0.310865 0.452768
vt 0.312600 0.452049
vt 0.313134 0.452849
vt 0.311053 0.453711
vt 0.307253 0.444048
vt 0.305926 0.445375
vt 0.305126 0.444841
vt 0.306719 0.443248
vt 0.313927 0.445375
vt 0.312600 0.444048
vt 0.313134 0.443248
vt 0.314727 0.444841
vt 0.307253 0.452049
vt 0.308988 0.452768
vt 0.308800 0.453711
vt 0.306719 0.452849
vt 0.314645 0.448987
vt 0.314645 0.447110
vt 0.315589 0.446922
vt 0.315589 0.449175
vt 0.308988 0.443330
vt 0.308800 0.442386
vt 0.305926 0.450722
vt 0.305126 0.451256
vt 0.313927 0.450722
vt 0.314727 0.451256
vt 0.310865 0.443330
vt 0.311053 0.442386
vt 0.304989 0.558830
vt 0.304947 0.561040
vt 0.304378 0.560954
vt 0.304418 0.558830
vt 0.312790 0.521669
vt 0.310789 0.522497
vt 0.310665 0.521872
vt 0.312435 0.521138
vt 0.310479 0.520935
vt 0.311905 0.520344
vt 0.310259 0.519830
vt 0.311279 0.519408
vt 0.304829 0.562913
vt 0.304264 0.562755
vt 0.308624 0.522497
vt 0.308748 0.521872
vt 0.308935 0.520935
vt 0.309154 0.519830
vt 0.328198 0.528939
vt 0.328334 0.530812
vt 0.327763 0.530898
vt 0.327632 0.529097
vt 0.306623 0.521669
vt 0.306978 0.521138
vt 0.307508 0.520344
vt 0.308134 0.519408
vt 0.328382 0.533022
vt 0.327809 0.533022
vt 0.305092 0.520137
vt 0.305623 0.519783
vt 0.306417 0.519252
vt 0.307353 0.518627
vt 0.328334 0.535231
vt 0.327763 0.535146
vt 0.304264 0.518137
vt 0.304889 0.518012
vt 0.305826 0.517826
vt 0.306931 0.517606
vt 0.328198 0.537104
vt 0.327632 0.536946
vt 0.304264 0.515972
vt 0.304889 0.516096
vt 0.305826 0.516282
vt 0.306931 0.516502
vt 0.567437 0.342129
vt 0.567318 0.340256
vt 0.567887 0.340170
vt 0.568001 0.341971
vt 0.305092 0.513971
vt 0.305623 0.514325
vt 0.306417 0.514856
vt 0.307353 0.515482
vt 0.567276 0.338047
vt 0.567847 0.338047
vt 0.306623 0.512440
vt 0.306978 0.512970
vt 0.307508 0.513764
vt 0.308134 0.514701
vt 0.567318 0.335837
vt 0.567887 0.335923
vt 0.308624 0.511611
vt 0.308748 0.512237
vt 0.308935 0.513174
vt 0.309154 0.514278
vt 0.567437 0.333964
vt 0.568001 0.334122
vt 0.310789 0.511611
vt 0.310665 0.512237
vt 0.310479 0.513174
vt 0.310259 0.514278
vt 0.304869 0.574956
vt 0.304955 0.576829
vt 0.304390 0.576915
vt 0.304307 0.575114
vt 0.312790 0.512440
vt 0.312435 0.512970
vt 0.311905 0.513764
vt 0.311279 0.514701
vt 0.304985 0.579038
vt 0.304419 0.579038
vt 0.314321 0.513971
vt 0.313790 0.514325
vt 0.312997 0.514856
vt 0.312060 0.515482
vt 0.304955 0.581248
vt 0.304390 0.581162
vt 0.315150 0.515972
vt 0.314524 0.516096
vt 0.313587 0.516282
vt 0.312483 0.516502
vt 0.304869 0.583121
vt 0.304307 0.582963
vt 0.315150 0.518137
vt 0.314524 0.518012
vt 0.313587 0.517826
vt 0.312483 0.517606
vt 0.304829 0.554748
vt 0.304947 0.556621
vt 0.304378 0.556707
vt 0.304264 0.554906
vt 0.314321 0.520137
vt 0.313791 0.519783
vt 0.312997 0.519252
vt 0.312060 0.518627
vt 0.306745 0.558830
vt 0.306704 0.561040
vt 0.306704 0.556621
vt 0.306585 0.562913
vt 0.329952 0.528939
vt 0.330088 0.530812
vt 0.330136 0.533022
vt 0.330088 0.535231
vt 0.329952 0.537104
vt 0.565680 0.342129
vt 0.565561 0.340256
vt 0.565520 0.338047
vt 0.565561 0.335837
vt 0.565680 0.333964
vt 0.306629 0.574956
vt 0.306715 0.576829
vt 0.306745 0.579038
vt 0.306715 0.581248
vt 0.306629 0.583121
vt 0.306585 0.554748
s 1
usemtl nightstand
f 335/623/203 336/624/203 339/625/203 340/626/203
f 333/627/204 336/628/204 335/629/204 334/630/204
f 337/631/205 338/632/205 340/633/205 339/634/205
f 336/635/206 333/636/206 337/637/206 339/638/206
f 347/639/204 348/640/204 351/641/204 352/642/204
f 333/643/207 334/644/207 338/645/207 337/646/207
f 334/647/208 335/647/208 342/647/208 341/647/208
f 335/647/208 340/647/208 343/647/208 342/647/208
f 340/647/208 338/647/208 344/647/208 343/647/208
f 338/647/208 334/647/208 341/647/208 344/647/208
f 341/648/208 342/649/208 346/650/208 345/651/208
f 342/649/208 343/652/208 347/653/208 346/650/208
f 343/652/208 344/654/208 348/655/208 347/653/208
f 344/654/208 341/648/208 345/651/208 348/655/208
f 349/656/208 350/657/208 352/658/208 351/659/208
f 348/660/203 345/661/203 349/662/203 351/663/203
f 346/664/207 347/665/207 352/666/207 350/667/207
f 345/668/205 346/669/205 350/670/205 349/671/205
f 353/672/203 354/673/203 356/674/209 355/675/209
f 355/675/209 356/674/209 358/676/210 357/677/210
f 357/678/210 358/679/210 360/680/211 359/681/211
f 359/681/211 360/680/211 362/682/206 361/683/206
f 361/683/206 362/682/206 364/684/212 363/685/212
f 363/685/212 364/684/212 366/686/213 365/687/213
f 365/688/213 366/689/213 368/690/214 367/691/214
f 367/691/214 368/690/214 370/692/207 369/693/207
f 369/693/207 370/692/207 372/694/215 371/695/215
f 371/695/215 372/694/215 374/696/216 373/697/216
f 373/698/216 374/699/216 376/700/217 375/701/217
f 375/701/217 376/700/217 378/702/208 377/703/208
f 377/703/208 378/702/208 380/704/218 379/705/218
f 379/705/218 380/704/218 382/706/219 381/707/219
f 356/708/204 354/709/204 384/710/204 382/711/204 380/712/204 378/713/204 376/714/204 374/715/204 372/716/204 370/717/204 368/718/204 366/719/204 364/720/204 362/721/204 360/722/204 358/723/204
f 381/724/219 382/725/219 384/726/220 383/727/220
f 383/727/220 384/726/220 354/673/203 353/672/203
f 357/728/204 359/729/204 388/730/204 387/731/204
f 367/732/204 369/733/204 393/734/204 392/735/204
f 353/736/204 355/737/204 386/738/204 385/739/204
f 377/740/204 379/741/204 398/742/204 397/743/204
f 363/744/204 365/745/204 391/746/204 390/747/204
f 373/748/204 375/749/204 396/750/204 395/751/204
f 383/752/204 353/736/204 385/739/204 400/753/204
f 359/729/204 361/754/204 389/755/204 388/730/204
f 369/733/204 371/756/204 394/757/204 393/734/204
f 379/741/204 381/758/204 399/759/204 398/742/204
f 355/737/204 357/728/204 387/731/204 386/738/204
f 365/745/204 367/732/204 392/735/204 391/746/204
f 375/749/204 377/740/204 397/743/204 396/750/204
f 361/754/204 363/744/204 390/747/204 389/755/204
f 371/756/204 373/748/204 395/751/204 394/757/204
f 381/758/204 383/752/204 400/753/204 399/759/204
f 402/760/221 406/761/222 408/762/223 405/763/224
f 405/764/224 408/765/223 409/766/225 404/767/226
f 404/767/226 409/766/225 410/768/227 403/769/228
f 403/769/228 410/768/227 407/770/229 401/771/230
f 406/761/222 411/772/231 413/773/232 408/762/223
f 408/765/223 413/774/232 414/775/233 409/766/225
f 409/766/225 414/775/233 415/776/234 410/768/227
f 410/768/227 415/776/234 412/777/235 407/770/229
f 411/778/231 416/779/236 418/780/237 413/781/232
f 413/774/232 418/782/237 419/783/238 414/775/233
f 414/775/233 419/783/238 420/784/239 415/776/234
f 415/776/234 420/784/239 417/785/240 412/777/235
f 416/779/236 421/786/241 423/787/242 418/780/237
f 418/782/237 423/788/242 424/789/243 419/783/238
f 419/783/238 424/789/243 425/790/244 420/784/239
f 420/784/239 425/790/244 422/791/245 417/785/240
f 421/786/241 426/792/246 428/793/247 423/787/242
f 423/788/242 428/794/247 429/795/248 424/789/243
f 424/789/243 429/795/248 430/796/249 425/790/244
f 425/790/244 430/796/249 427/797/250 422/791/245
f 426/792/246 431/798/251 433/799/252 428/793/247
f 428/794/247 433/800/252 434/801/253 429/795/248
f 429/795/248 434/801/253 435/802/254 430/796/249
f 430/796/249 435/802/254 432/803/255 427/797/250
f 431/804/251 436/805/256 438/806/257 433/807/252
f 433/800/252 438/808/257 439/809/258 434/801/253
f 434/801/253 439/809/258 440/810/259 435/802/254
f 435/802/254 440/810/259 437/811/260 432/803/255
f 436/805/256 441/812/261 443/813/262 438/806/257
f 438/808/257 443/814/262 444/815/263 439/809/258
f 439/809/258 444/815/263 445/816/264 440/810/259
f 440/810/259 445/816/264 442/817/265 437/811/260
f 441/812/261 446/818/266 448/819/267 443/813/262
f 443/814/262 448/820/267 449/821/268 444/815/263
f 444/815/263 449/821/268 450/822/269 445/816/264
f 445/816/264 450/822/269 447/823/270 442/817/265
f 446/818/266 451/824/271 453/825/272 448/819/267
f 448/820/267 453/826/272 454/827/273 449/821/268
f 449/821/268 454/827/273 455/828/274 450/822/269
f 450/822/269 455/828/274 452/829/275 447/823/270
f 451/830/271 456/831/276 458/832/277 453/833/272
f 453/826/272 458/834/277 459/835/278 454/827/273
f 454/827/273 459/835/278 460/836/279 455/828/274
f 455/828/274 460/836/279 457/837/280 452/829/275
f 456/831/276 461/838/281 463/839/282 458/832/277
f 458/834/277 463/840/282 464/841/283 459/835/278
f 459/835/278 464/841/283 465/842/284 460/836/279
f 460/836/279 465/842/284 462/843/285 457/837/280
f 461/838/281 466/844/286 468/845/287 463/839/282
f 463/840/282 468/846/287 469/847/288 464/841/283
f 464/841/283 469/847/288 470/848/289 465/842/284
f 465/842/284 470/848/289 467/849/290 462/843/285
f 466/844/286 471/850/291 473/851/292 468/845/287
f 468/846/287 473/852/292 474/853/293 469/847/288
f 469/847/288 474/853/293 475/854/294 470/848/289
f 470/848/289 475/854/294 472/855/295 467/849/290
f 471/856/291 476/857/296 478/858/297 473/859/292
f 473/852/292 478/860/297 479/861/298 474/853/293
f 474/853/293 479/861/298 480/862/299 475/854/294
f 475/854/294 480/862/299 477/863/300 472/855/295
f 476/857/296 402/760/221 405/763/224 478/858/297
f 478/860/297 405/764/224 404/767/226 479/861/298
f 479/861/298 404/767/226 403/769/228 480/862/299
f 480/862/299 403/769/228 401/771/230 477/863/300
f 385/864/203 386/865/209 406/761/222 402/760/221
f 401/771/230 407/770/229 412/777/235 417/785/240 422/791/245 427/797/250 432/803/255 437/811/260 442/817/265 447/823/270 452/829/275 457/837/280 462/843/285 467/849/290 472/855/295 477/863/300
f 400/866/220 385/864/203 402/760/221 476/857/296
f 386/865/209 387/867/210 411/772/231 406/761/222
f 387/868/210 388/869/211 416/779/236 411/778/231
f 388/869/211 389/870/206 421/786/241 416/779/236
f 389/870/206 390/871/212 426/792/246 421/786/241
f 390/871/212 391/872/213 431/798/251 426/792/246
f 391/873/213 392/874/214 436/805/256 431/804/251
f 392/874/214 393/875/207 441/812/261 436/805/256
f 393/875/207 394/876/215 446/818/266 441/812/261
f 394/876/215 395/877/216 451/824/271 446/818/266
f 395/878/216 396/879/217 456/831/276 451/830/271
f 396/879/217 397/880/208 461/838/281 456/831/276
f 397/880/208 398/881/218 466/844/286 461/838/281
f 398/881/218 399/882/219 471/850/291 466/844/286
f 399/883/219 400/866/220 476/857/296 471/856/291
